<ttFont>
    <TTGlyph name=".notdef" xMin="102" yMin="-220" xMax="699" yMax="1030">
      <contour>
        <pt x="102" y="1030" on="1"/>
        <pt x="699" y="1030" on="1"/>
        <pt x="699" y="-220" on="1"/>
        <pt x="102" y="-220" on="1"/>
      </contour>
      <contour>
        <pt x="635" y="-158" on="1"/>
        <pt x="635" y="969" on="1"/>
        <pt x="167" y="969" on="1"/>
        <pt x="167" y="-158" on="1"/>
      </contour>
    </TTGlyph>
    <TTGlyph name="A" xMin="9" yMin="0" xMax="698" yMax="740">
      <contour>
        <pt x="9" y="6" on="1"/>
        <pt x="298" y="740" on="1"/>
        <pt x="409" y="740" on="1"/>
        <pt x="698" y="6" on="1"/>
        <pt x="698" y="0" on="1"/>
        <pt x="626" y="0" on="1"/>
        <pt x="536" y="229" on="1"/>
        <pt x="170" y="229" on="1"/>
        <pt x="80" y="0" on="1"/>
        <pt x="9" y="0" on="1"/>
      </contour>
      <contour>
        <pt x="514" y="292" on="1"/>
        <pt x="408" y="560" on="1"/>
        <pt x="357" y="690" on="1"/>
        <pt x="350" y="690" on="1"/>
        <pt x="299" y="560" on="1"/>
        <pt x="193" y="292" on="1"/>
      </contour>
    </TTGlyph>
    <TTGlyph name="A.sc" xMin="16" yMin="0" xMax="621" yMax="577">
      <contour>
        <pt x="16" y="5" on="1"/>
        <pt x="266" y="577" on="1"/>
        <pt x="372" y="577" on="1"/>
        <pt x="621" y="5" on="1"/>
        <pt x="621" y="0" on="1"/>
        <pt x="552" y="0" on="1"/>
        <pt x="476" y="172" on="1"/>
        <pt x="161" y="172" on="1"/>
        <pt x="85" y="0" on="1"/>
        <pt x="16" y="0" on="1"/>
      </contour>
      <contour>
        <pt x="456" y="224" on="1"/>
        <pt x="366" y="431" on="1"/>
        <pt x="321" y="530" on="1"/>
        <pt x="315" y="530" on="1"/>
        <pt x="272" y="430" on="1"/>
        <pt x="180" y="224" on="1"/>
      </contour>
    </TTGlyph>
    <TTGlyph name="AE" xMin="9" yMin="0" xMax="850" yMax="740">
      <contour>
        <pt x="9" y="7" on="1"/>
        <pt x="329" y="740" on="1"/>
        <pt x="839" y="740" on="1"/>
        <pt x="839" y="680" on="1"/>
        <pt x="489" y="680" on="1"/>
        <pt x="502" y="405" on="1"/>
        <pt x="810" y="405" on="1"/>
        <pt x="810" y="345" on="1"/>
        <pt x="505" y="345" on="1"/>
        <pt x="519" y="60" on="1"/>
        <pt x="850" y="60" on="1"/>
        <pt x="850" y="0" on="1"/>
        <pt x="448" y="0" on="1"/>
        <pt x="438" y="229" on="1"/>
        <pt x="178" y="229" on="1"/>
        <pt x="78" y="0" on="1"/>
        <pt x="9" y="0" on="1"/>
      </contour>
      <contour>
        <pt x="206" y="292" on="1"/>
        <pt x="436" y="292" on="1"/>
        <pt x="420" y="682" on="1"/>
        <pt x="378" y="682" on="1"/>
      </contour>
    </TTGlyph>
    <TTGlyph name="AE.sc" xMin="18" yMin="0" xMax="759" yMax="577">
      <contour>
        <pt x="18" y="6" on="1"/>
        <pt x="297" y="577" on="1"/>
        <pt x="749" y="577" on="1"/>
        <pt x="749" y="522" on="1"/>
        <pt x="447" y="522" on="1"/>
        <pt x="456" y="318" on="1"/>
        <pt x="724" y="318" on="1"/>
        <pt x="724" y="267" on="1"/>
        <pt x="461" y="267" on="1"/>
        <pt x="472" y="55" on="1"/>
        <pt x="759" y="55" on="1"/>
        <pt x="759" y="0" on="1"/>
        <pt x="403" y="0" on="1"/>
        <pt x="396" y="172" on="1"/>
        <pt x="169" y="172" on="1"/>
        <pt x="85" y="0" on="1"/>
        <pt x="18" y="0" on="1"/>
      </contour>
      <contour>
        <pt x="196" y="223" on="1"/>
        <pt x="393" y="223" on="1"/>
        <pt x="380" y="524" on="1"/>
        <pt x="344" y="524" on="1"/>
      </contour>
    </TTGlyph>
    <TTGlyph name="AEacute" xMin="9" yMin="0" xMax="850" yMax="944">
      <contour>
        <pt x="501" y="811" on="1"/>
        <pt x="577" y="944" on="1"/>
        <pt x="651" y="944" on="1"/>
        <pt x="557" y="805" on="1"/>
      </contour>
      <contour>
        <pt x="9" y="7" on="1"/>
        <pt x="329" y="740" on="1"/>
        <pt x="839" y="740" on="1"/>
        <pt x="839" y="680" on="1"/>
        <pt x="489" y="680" on="1"/>
        <pt x="502" y="405" on="1"/>
        <pt x="810" y="405" on="1"/>
        <pt x="810" y="345" on="1"/>
        <pt x="505" y="345" on="1"/>
        <pt x="519" y="60" on="1"/>
        <pt x="850" y="60" on="1"/>
        <pt x="850" y="0" on="1"/>
        <pt x="448" y="0" on="1"/>
        <pt x="438" y="229" on="1"/>
        <pt x="178" y="229" on="1"/>
        <pt x="78" y="0" on="1"/>
        <pt x="9" y="0" on="1"/>
      </contour>
      <contour>
        <pt x="206" y="292" on="1"/>
        <pt x="436" y="292" on="1"/>
        <pt x="420" y="682" on="1"/>
        <pt x="378" y="682" on="1"/>
      </contour>
    </TTGlyph>
    <TTGlyph name="AEacute.sc" xMin="18" yMin="0" xMax="759" yMax="742">
      <contour>
        <pt x="18" y="6" on="1"/>
        <pt x="297" y="577" on="1"/>
        <pt x="749" y="577" on="1"/>
        <pt x="749" y="522" on="1"/>
        <pt x="447" y="522" on="1"/>
        <pt x="456" y="318" on="1"/>
        <pt x="724" y="318" on="1"/>
        <pt x="724" y="267" on="1"/>
        <pt x="461" y="267" on="1"/>
        <pt x="472" y="55" on="1"/>
        <pt x="759" y="55" on="1"/>
        <pt x="759" y="0" on="1"/>
        <pt x="403" y="0" on="1"/>
        <pt x="396" y="172" on="1"/>
        <pt x="169" y="172" on="1"/>
        <pt x="85" y="0" on="1"/>
        <pt x="18" y="0" on="1"/>
      </contour>
      <contour>
        <pt x="393" y="223" on="1"/>
        <pt x="380" y="524" on="1"/>
        <pt x="344" y="524" on="1"/>
        <pt x="196" y="223" on="1"/>
      </contour>
      <contour>
        <pt x="445" y="634" on="1"/>
        <pt x="510" y="742" on="1"/>
        <pt x="582" y="742" on="1"/>
        <pt x="499" y="629" on="1"/>
      </contour>
    </TTGlyph>
    <TTGlyph name="Aacute" xMin="9" yMin="0" xMax="698" yMax="944">
      <contour>
        <pt x="9" y="6" on="1"/>
        <pt x="298" y="740" on="1"/>
        <pt x="409" y="740" on="1"/>
        <pt x="698" y="6" on="1"/>
        <pt x="698" y="0" on="1"/>
        <pt x="626" y="0" on="1"/>
        <pt x="536" y="229" on="1"/>
        <pt x="170" y="229" on="1"/>
        <pt x="80" y="0" on="1"/>
        <pt x="9" y="0" on="1"/>
      </contour>
      <contour>
        <pt x="514" y="292" on="1"/>
        <pt x="408" y="560" on="1"/>
        <pt x="357" y="690" on="1"/>
        <pt x="350" y="690" on="1"/>
        <pt x="299" y="560" on="1"/>
        <pt x="193" y="292" on="1"/>
      </contour>
      <contour>
        <pt x="320" y="811" on="1"/>
        <pt x="396" y="944" on="1"/>
        <pt x="470" y="944" on="1"/>
        <pt x="376" y="805" on="1"/>
      </contour>
    </TTGlyph>
    <TTGlyph name="Aacute.sc" xMin="16" yMin="0" xMax="621" yMax="742">
      <contour>
        <pt x="16" y="5" on="1"/>
        <pt x="266" y="577" on="1"/>
        <pt x="372" y="577" on="1"/>
        <pt x="621" y="5" on="1"/>
        <pt x="621" y="0" on="1"/>
        <pt x="552" y="0" on="1"/>
        <pt x="476" y="172" on="1"/>
        <pt x="161" y="172" on="1"/>
        <pt x="85" y="0" on="1"/>
        <pt x="16" y="0" on="1"/>
      </contour>
      <contour>
        <pt x="456" y="226" on="1"/>
        <pt x="366" y="431" on="1"/>
        <pt x="321" y="530" on="1"/>
        <pt x="315" y="530" on="1"/>
        <pt x="272" y="430" on="1"/>
        <pt x="180" y="226" on="1"/>
      </contour>
      <contour>
        <pt x="287" y="634" on="1"/>
        <pt x="352" y="742" on="1"/>
        <pt x="423" y="742" on="1"/>
        <pt x="341" y="629" on="1"/>
      </contour>
    </TTGlyph>
    <TTGlyph name="Abreve" xMin="9" yMin="0" xMax="698" yMax="958">
      <contour>
        <pt x="9" y="6" on="1"/>
        <pt x="298" y="740" on="1"/>
        <pt x="409" y="740" on="1"/>
        <pt x="698" y="6" on="1"/>
        <pt x="698" y="0" on="1"/>
        <pt x="626" y="0" on="1"/>
        <pt x="536" y="229" on="1"/>
        <pt x="170" y="229" on="1"/>
        <pt x="80" y="0" on="1"/>
        <pt x="9" y="0" on="1"/>
      </contour>
      <contour>
        <pt x="514" y="292" on="1"/>
        <pt x="408" y="560" on="1"/>
        <pt x="357" y="690" on="1"/>
        <pt x="350" y="690" on="1"/>
        <pt x="299" y="560" on="1"/>
        <pt x="193" y="292" on="1"/>
      </contour>
      <contour>
        <pt x="353" y="815" on="1"/>
        <pt x="263" y="815" on="0"/>
        <pt x="172" y="893" on="0"/>
        <pt x="172" y="958" on="1"/>
        <pt x="227" y="958" on="1"/>
        <pt x="227" y="913" on="0"/>
        <pt x="292" y="862" on="0"/>
        <pt x="353" y="862" on="1"/>
        <pt x="416" y="862" on="0"/>
        <pt x="480" y="913" on="0"/>
        <pt x="480" y="958" on="1"/>
        <pt x="536" y="958" on="1"/>
        <pt x="536" y="893" on="0"/>
        <pt x="444" y="815" on="0"/>
      </contour>
    </TTGlyph>
    <TTGlyph name="Abreve.sc" xMin="16" yMin="0" xMax="621" yMax="752">
      <contour>
        <pt x="319" y="635" on="1"/>
        <pt x="238" y="635" on="0"/>
        <pt x="157" y="700" on="0"/>
        <pt x="157" y="752" on="1"/>
        <pt x="210" y="752" on="1"/>
        <pt x="210" y="717" on="0"/>
        <pt x="265" y="678" on="0"/>
        <pt x="319" y="678" on="1"/>
        <pt x="373" y="678" on="0"/>
        <pt x="429" y="717" on="0"/>
        <pt x="429" y="752" on="1"/>
        <pt x="480" y="752" on="1"/>
        <pt x="480" y="700" on="0"/>
        <pt x="400" y="635" on="0"/>
      </contour>
      <contour>
        <pt x="16" y="5" on="1"/>
        <pt x="266" y="577" on="1"/>
        <pt x="372" y="577" on="1"/>
        <pt x="621" y="5" on="1"/>
        <pt x="621" y="0" on="1"/>
        <pt x="552" y="0" on="1"/>
        <pt x="476" y="172" on="1"/>
        <pt x="161" y="172" on="1"/>
        <pt x="85" y="0" on="1"/>
        <pt x="16" y="0" on="1"/>
      </contour>
      <contour>
        <pt x="456" y="226" on="1"/>
        <pt x="366" y="431" on="1"/>
        <pt x="321" y="530" on="1"/>
        <pt x="315" y="530" on="1"/>
        <pt x="272" y="430" on="1"/>
        <pt x="180" y="226" on="1"/>
      </contour>
    </TTGlyph>
    <TTGlyph name="Acircumflex" xMin="9" yMin="0" xMax="698" yMax="950">
      <contour>
        <pt x="9" y="6" on="1"/>
        <pt x="298" y="740" on="1"/>
        <pt x="409" y="740" on="1"/>
        <pt x="698" y="6" on="1"/>
        <pt x="698" y="0" on="1"/>
        <pt x="626" y="0" on="1"/>
        <pt x="536" y="229" on="1"/>
        <pt x="170" y="229" on="1"/>
        <pt x="80" y="0" on="1"/>
        <pt x="9" y="0" on="1"/>
      </contour>
      <contour>
        <pt x="514" y="292" on="1"/>
        <pt x="408" y="560" on="1"/>
        <pt x="357" y="690" on="1"/>
        <pt x="350" y="690" on="1"/>
        <pt x="299" y="560" on="1"/>
        <pt x="193" y="292" on="1"/>
      </contour>
      <contour>
        <pt x="188" y="876" on="1"/>
        <pt x="355" y="950" on="1"/>
        <pt x="522" y="876" on="1"/>
        <pt x="522" y="815" on="1"/>
        <pt x="355" y="889" on="1"/>
        <pt x="188" y="815" on="1"/>
      </contour>
    </TTGlyph>
    <TTGlyph name="Acircumflex.sc" xMin="16" yMin="0" xMax="621" yMax="748">
      <contour>
        <pt x="16" y="5" on="1"/>
        <pt x="266" y="577" on="1"/>
        <pt x="372" y="577" on="1"/>
        <pt x="621" y="5" on="1"/>
        <pt x="621" y="0" on="1"/>
        <pt x="552" y="0" on="1"/>
        <pt x="476" y="172" on="1"/>
        <pt x="161" y="172" on="1"/>
        <pt x="85" y="0" on="1"/>
        <pt x="16" y="0" on="1"/>
      </contour>
      <contour>
        <pt x="456" y="226" on="1"/>
        <pt x="366" y="431" on="1"/>
        <pt x="321" y="530" on="1"/>
        <pt x="315" y="530" on="1"/>
        <pt x="272" y="430" on="1"/>
        <pt x="180" y="226" on="1"/>
      </contour>
      <contour>
        <pt x="172" y="689" on="1"/>
        <pt x="319" y="748" on="1"/>
        <pt x="468" y="689" on="1"/>
        <pt x="468" y="634" on="1"/>
        <pt x="320" y="692" on="1"/>
        <pt x="172" y="634" on="1"/>
      </contour>
    </TTGlyph>
    <TTGlyph name="Adblgrave" xMin="9" yMin="0" xMax="698" yMax="936">
      <contour>
        <pt x="9" y="6" on="1"/>
        <pt x="298" y="740" on="1"/>
        <pt x="409" y="740" on="1"/>
        <pt x="698" y="6" on="1"/>
        <pt x="698" y="0" on="1"/>
        <pt x="626" y="0" on="1"/>
        <pt x="536" y="229" on="1"/>
        <pt x="170" y="229" on="1"/>
        <pt x="80" y="0" on="1"/>
        <pt x="9" y="0" on="1"/>
      </contour>
      <contour>
        <pt x="514" y="292" on="1"/>
        <pt x="408" y="560" on="1"/>
        <pt x="357" y="690" on="1"/>
        <pt x="350" y="690" on="1"/>
        <pt x="299" y="560" on="1"/>
        <pt x="193" y="292" on="1"/>
      </contour>
      <contour>
        <pt x="250" y="796" on="1"/>
        <pt x="156" y="936" on="1"/>
        <pt x="230" y="936" on="1"/>
        <pt x="305" y="810" on="1"/>
      </contour>
      <contour>
        <pt x="400" y="796" on="1"/>
        <pt x="306" y="936" on="1"/>
        <pt x="379" y="936" on="1"/>
        <pt x="455" y="810" on="1"/>
      </contour>
    </TTGlyph>
    <TTGlyph name="Adblgrave.sc" xMin="16" yMin="0" xMax="621" yMax="736">
      <contour>
        <pt x="16" y="5" on="1"/>
        <pt x="266" y="577" on="1"/>
        <pt x="372" y="577" on="1"/>
        <pt x="621" y="5" on="1"/>
        <pt x="621" y="0" on="1"/>
        <pt x="552" y="0" on="1"/>
        <pt x="476" y="172" on="1"/>
        <pt x="161" y="172" on="1"/>
        <pt x="85" y="0" on="1"/>
        <pt x="16" y="0" on="1"/>
      </contour>
      <contour>
        <pt x="456" y="226" on="1"/>
        <pt x="366" y="431" on="1"/>
        <pt x="321" y="530" on="1"/>
        <pt x="315" y="530" on="1"/>
        <pt x="272" y="430" on="1"/>
        <pt x="180" y="226" on="1"/>
      </contour>
      <contour>
        <pt x="141" y="736" on="1"/>
        <pt x="212" y="736" on="1"/>
        <pt x="276" y="633" on="1"/>
        <pt x="223" y="622" on="1"/>
      </contour>
      <contour>
        <pt x="275" y="736" on="1"/>
        <pt x="346" y="736" on="1"/>
        <pt x="410" y="633" on="1"/>
        <pt x="357" y="622" on="1"/>
      </contour>
    </TTGlyph>
    <TTGlyph name="Adieresis" xMin="9" yMin="0" xMax="698" yMax="924">
      <contour>
        <pt x="9" y="6" on="1"/>
        <pt x="298" y="740" on="1"/>
        <pt x="409" y="740" on="1"/>
        <pt x="698" y="6" on="1"/>
        <pt x="698" y="0" on="1"/>
        <pt x="626" y="0" on="1"/>
        <pt x="536" y="229" on="1"/>
        <pt x="170" y="229" on="1"/>
        <pt x="80" y="0" on="1"/>
        <pt x="9" y="0" on="1"/>
      </contour>
      <contour>
        <pt x="514" y="292" on="1"/>
        <pt x="408" y="560" on="1"/>
        <pt x="357" y="690" on="1"/>
        <pt x="350" y="690" on="1"/>
        <pt x="299" y="560" on="1"/>
        <pt x="193" y="292" on="1"/>
      </contour>
      <contour>
        <pt x="216" y="827" on="1"/>
        <pt x="167" y="827" on="0"/>
        <pt x="167" y="876" on="1"/>
        <pt x="167" y="924" on="0"/>
        <pt x="216" y="924" on="1"/>
        <pt x="239" y="924" on="0"/>
        <pt x="266" y="901" on="0"/>
        <pt x="266" y="876" on="1"/>
        <pt x="266" y="850" on="0"/>
        <pt x="239" y="827" on="0"/>
      </contour>
      <contour>
        <pt x="492" y="827" on="1"/>
        <pt x="443" y="827" on="0"/>
        <pt x="443" y="876" on="1"/>
        <pt x="443" y="924" on="0"/>
        <pt x="492" y="924" on="1"/>
        <pt x="515" y="924" on="0"/>
        <pt x="542" y="901" on="0"/>
        <pt x="542" y="876" on="1"/>
        <pt x="542" y="850" on="0"/>
        <pt x="515" y="827" on="0"/>
      </contour>
    </TTGlyph>
    <TTGlyph name="Adieresis.sc" xMin="16" yMin="0" xMax="621" yMax="731">
      <contour>
        <pt x="197" y="643" on="1"/>
        <pt x="152" y="643" on="0"/>
        <pt x="152" y="687" on="1"/>
        <pt x="152" y="731" on="0"/>
        <pt x="197" y="731" on="1"/>
        <pt x="244" y="731" on="0"/>
        <pt x="244" y="687" on="1"/>
        <pt x="244" y="643" on="0"/>
      </contour>
      <contour>
        <pt x="441" y="643" on="1"/>
        <pt x="394" y="643" on="0"/>
        <pt x="394" y="687" on="1"/>
        <pt x="394" y="731" on="0"/>
        <pt x="441" y="731" on="1"/>
        <pt x="462" y="731" on="0"/>
        <pt x="487" y="710" on="0"/>
        <pt x="487" y="687" on="1"/>
        <pt x="487" y="664" on="0"/>
        <pt x="462" y="643" on="0"/>
      </contour>
      <contour>
        <pt x="16" y="5" on="1"/>
        <pt x="266" y="577" on="1"/>
        <pt x="372" y="577" on="1"/>
        <pt x="621" y="5" on="1"/>
        <pt x="621" y="0" on="1"/>
        <pt x="552" y="0" on="1"/>
        <pt x="476" y="172" on="1"/>
        <pt x="161" y="172" on="1"/>
        <pt x="85" y="0" on="1"/>
        <pt x="16" y="0" on="1"/>
      </contour>
      <contour>
        <pt x="456" y="226" on="1"/>
        <pt x="366" y="431" on="1"/>
        <pt x="321" y="530" on="1"/>
        <pt x="315" y="530" on="1"/>
        <pt x="272" y="430" on="1"/>
        <pt x="180" y="226" on="1"/>
      </contour>
    </TTGlyph>
    <TTGlyph name="Agrave" xMin="9" yMin="0" xMax="698" yMax="944">
      <contour>
        <pt x="9" y="6" on="1"/>
        <pt x="298" y="740" on="1"/>
        <pt x="409" y="740" on="1"/>
        <pt x="698" y="6" on="1"/>
        <pt x="698" y="0" on="1"/>
        <pt x="626" y="0" on="1"/>
        <pt x="536" y="229" on="1"/>
        <pt x="170" y="229" on="1"/>
        <pt x="80" y="0" on="1"/>
        <pt x="9" y="0" on="1"/>
      </contour>
      <contour>
        <pt x="514" y="292" on="1"/>
        <pt x="408" y="560" on="1"/>
        <pt x="357" y="690" on="1"/>
        <pt x="350" y="690" on="1"/>
        <pt x="299" y="560" on="1"/>
        <pt x="193" y="292" on="1"/>
      </contour>
      <contour>
        <pt x="326" y="805" on="1"/>
        <pt x="232" y="944" on="1"/>
        <pt x="306" y="944" on="1"/>
        <pt x="382" y="818" on="1"/>
      </contour>
    </TTGlyph>
    <TTGlyph name="Agrave.sc" xMin="16" yMin="0" xMax="621" yMax="742">
      <contour>
        <pt x="16" y="5" on="1"/>
        <pt x="266" y="577" on="1"/>
        <pt x="372" y="577" on="1"/>
        <pt x="621" y="5" on="1"/>
        <pt x="621" y="0" on="1"/>
        <pt x="552" y="0" on="1"/>
        <pt x="476" y="172" on="1"/>
        <pt x="161" y="172" on="1"/>
        <pt x="85" y="0" on="1"/>
        <pt x="16" y="0" on="1"/>
      </contour>
      <contour>
        <pt x="456" y="226" on="1"/>
        <pt x="366" y="431" on="1"/>
        <pt x="321" y="530" on="1"/>
        <pt x="315" y="530" on="1"/>
        <pt x="272" y="430" on="1"/>
        <pt x="180" y="226" on="1"/>
      </contour>
      <contour>
        <pt x="292" y="629" on="1"/>
        <pt x="208" y="742" on="1"/>
        <pt x="281" y="742" on="1"/>
        <pt x="344" y="639" on="1"/>
      </contour>
    </TTGlyph>
    <TTGlyph name="Ainvertedbreve" xMin="9" yMin="0" xMax="698" yMax="960">
      <contour>
        <pt x="9" y="6" on="1"/>
        <pt x="298" y="740" on="1"/>
        <pt x="409" y="740" on="1"/>
        <pt x="698" y="6" on="1"/>
        <pt x="698" y="0" on="1"/>
        <pt x="626" y="0" on="1"/>
        <pt x="536" y="229" on="1"/>
        <pt x="170" y="229" on="1"/>
        <pt x="80" y="0" on="1"/>
        <pt x="9" y="0" on="1"/>
      </contour>
      <contour>
        <pt x="514" y="292" on="1"/>
        <pt x="408" y="560" on="1"/>
        <pt x="357" y="690" on="1"/>
        <pt x="350" y="690" on="1"/>
        <pt x="299" y="560" on="1"/>
        <pt x="193" y="292" on="1"/>
      </contour>
      <contour>
        <pt x="481" y="817" on="1"/>
        <pt x="481" y="862" on="0"/>
        <pt x="416" y="913" on="0"/>
        <pt x="354" y="913" on="1"/>
        <pt x="292" y="913" on="0"/>
        <pt x="227" y="862" on="0"/>
        <pt x="227" y="817" on="1"/>
        <pt x="172" y="817" on="1"/>
        <pt x="172" y="883" on="0"/>
        <pt x="263" y="960" on="0"/>
        <pt x="354" y="960" on="1"/>
        <pt x="445" y="960" on="0"/>
        <pt x="536" y="883" on="0"/>
        <pt x="536" y="817" on="1"/>
      </contour>
    </TTGlyph>
    <TTGlyph name="Ainvertedbreve.sc" xMin="16" yMin="0" xMax="621" yMax="754">
      <contour>
        <pt x="157" y="637" on="1"/>
        <pt x="157" y="689" on="0"/>
        <pt x="238" y="754" on="0"/>
        <pt x="319" y="754" on="1"/>
        <pt x="400" y="754" on="0"/>
        <pt x="480" y="690" on="0"/>
        <pt x="480" y="637" on="1"/>
        <pt x="429" y="637" on="1"/>
        <pt x="429" y="672" on="0"/>
        <pt x="373" y="711" on="0"/>
        <pt x="319" y="711" on="1"/>
        <pt x="265" y="711" on="0"/>
        <pt x="210" y="672" on="0"/>
        <pt x="210" y="637" on="1"/>
      </contour>
      <contour>
        <pt x="16" y="5" on="1"/>
        <pt x="266" y="577" on="1"/>
        <pt x="372" y="577" on="1"/>
        <pt x="621" y="5" on="1"/>
        <pt x="621" y="0" on="1"/>
        <pt x="552" y="0" on="1"/>
        <pt x="476" y="172" on="1"/>
        <pt x="161" y="172" on="1"/>
        <pt x="85" y="0" on="1"/>
        <pt x="16" y="0" on="1"/>
      </contour>
      <contour>
        <pt x="456" y="226" on="1"/>
        <pt x="366" y="431" on="1"/>
        <pt x="321" y="530" on="1"/>
        <pt x="315" y="530" on="1"/>
        <pt x="272" y="430" on="1"/>
        <pt x="180" y="226" on="1"/>
      </contour>
    </TTGlyph>
    <TTGlyph name="Amacron" xMin="9" yMin="0" xMax="698" yMax="897">
      <contour>
        <pt x="9" y="6" on="1"/>
        <pt x="298" y="740" on="1"/>
        <pt x="409" y="740" on="1"/>
        <pt x="698" y="6" on="1"/>
        <pt x="698" y="0" on="1"/>
        <pt x="626" y="0" on="1"/>
        <pt x="536" y="229" on="1"/>
        <pt x="170" y="229" on="1"/>
        <pt x="80" y="0" on="1"/>
        <pt x="9" y="0" on="1"/>
      </contour>
      <contour>
        <pt x="514" y="292" on="1"/>
        <pt x="408" y="560" on="1"/>
        <pt x="357" y="690" on="1"/>
        <pt x="350" y="690" on="1"/>
        <pt x="299" y="560" on="1"/>
        <pt x="193" y="292" on="1"/>
      </contour>
      <contour>
        <pt x="190" y="897" on="1"/>
        <pt x="519" y="897" on="1"/>
        <pt x="519" y="842" on="1"/>
        <pt x="190" y="842" on="1"/>
      </contour>
    </TTGlyph>
    <TTGlyph name="Amacron.sc" xMin="16" yMin="0" xMax="621" yMax="708">
      <contour>
        <pt x="16" y="5" on="1"/>
        <pt x="266" y="577" on="1"/>
        <pt x="372" y="577" on="1"/>
        <pt x="621" y="5" on="1"/>
        <pt x="621" y="0" on="1"/>
        <pt x="552" y="0" on="1"/>
        <pt x="476" y="172" on="1"/>
        <pt x="161" y="172" on="1"/>
        <pt x="85" y="0" on="1"/>
        <pt x="16" y="0" on="1"/>
      </contour>
      <contour>
        <pt x="456" y="226" on="1"/>
        <pt x="366" y="431" on="1"/>
        <pt x="321" y="530" on="1"/>
        <pt x="315" y="530" on="1"/>
        <pt x="272" y="430" on="1"/>
        <pt x="180" y="226" on="1"/>
      </contour>
      <contour>
        <pt x="174" y="708" on="1"/>
        <pt x="466" y="708" on="1"/>
        <pt x="466" y="657" on="1"/>
        <pt x="174" y="657" on="1"/>
      </contour>
    </TTGlyph>
    <TTGlyph name="Aogonek" xMin="9" yMin="-220" xMax="698" yMax="740">
      <contour>
        <pt x="620" y="-220" on="1"/>
        <pt x="569" y="-220" on="0"/>
        <pt x="521" y="-182" on="0"/>
        <pt x="521" y="-141" on="1"/>
        <pt x="521" y="-122" on="0"/>
        <pt x="533" y="-87" on="0"/>
        <pt x="561" y="-54" on="0"/>
        <pt x="607" y="-20" on="0"/>
        <pt x="640" y="0" on="1"/>
        <pt x="626" y="0" on="1"/>
        <pt x="536" y="229" on="1"/>
        <pt x="170" y="229" on="1"/>
        <pt x="80" y="0" on="1"/>
        <pt x="9" y="0" on="1"/>
        <pt x="9" y="6" on="1"/>
        <pt x="298" y="740" on="1"/>
        <pt x="409" y="740" on="1"/>
        <pt x="698" y="6" on="1"/>
        <pt x="698" y="-20" on="1"/>
        <pt x="632" y="-52" on="0"/>
        <pt x="574" y="-108" on="0"/>
        <pt x="574" y="-138" on="1"/>
        <pt x="574" y="-174" on="0"/>
        <pt x="624" y="-174" on="1"/>
        <pt x="638" y="-174" on="0"/>
        <pt x="677" y="-169" on="0"/>
        <pt x="696" y="-164" on="1"/>
        <pt x="696" y="-208" on="1"/>
        <pt x="682" y="-214" on="0"/>
        <pt x="641" y="-220" on="0"/>
      </contour>
      <contour>
        <pt x="514" y="292" on="1"/>
        <pt x="408" y="560" on="1"/>
        <pt x="357" y="690" on="1"/>
        <pt x="350" y="690" on="1"/>
        <pt x="299" y="560" on="1"/>
        <pt x="193" y="292" on="1"/>
      </contour>
    </TTGlyph>
    <TTGlyph name="Aogonek.sc" xMin="15" yMin="-169" xMax="620" yMax="577">
      <contour>
        <pt x="551" y="-169" on="1"/>
        <pt x="463" y="-169" on="0"/>
        <pt x="463" y="-106" on="1"/>
        <pt x="463" y="-77" on="0"/>
        <pt x="504" y="-30" on="0"/>
        <pt x="558" y="0" on="1"/>
        <pt x="550" y="0" on="1"/>
        <pt x="475" y="172" on="1"/>
        <pt x="160" y="172" on="1"/>
        <pt x="84" y="0" on="1"/>
        <pt x="15" y="0" on="1"/>
        <pt x="15" y="5" on="1"/>
        <pt x="265" y="577" on="1"/>
        <pt x="371" y="577" on="1"/>
        <pt x="620" y="5" on="1"/>
        <pt x="620" y="-12" on="1"/>
        <pt x="566" y="-34" on="0"/>
        <pt x="513" y="-73" on="0"/>
        <pt x="513" y="-99" on="1"/>
        <pt x="513" y="-116" on="0"/>
        <pt x="535" y="-127" on="0"/>
        <pt x="555" y="-127" on="1"/>
        <pt x="569" y="-127" on="0"/>
        <pt x="605" y="-123" on="0"/>
        <pt x="620" y="-119" on="1"/>
        <pt x="620" y="-159" on="1"/>
        <pt x="606" y="-164" on="0"/>
        <pt x="568" y="-169" on="0"/>
      </contour>
      <contour>
        <pt x="455" y="226" on="1"/>
        <pt x="365" y="433" on="1"/>
        <pt x="320" y="530" on="1"/>
        <pt x="314" y="530" on="1"/>
        <pt x="271" y="432" on="1"/>
        <pt x="179" y="226" on="1"/>
      </contour>
    </TTGlyph>
    <TTGlyph name="Aring" xMin="9" yMin="0" xMax="698" yMax="1018">
      <contour>
        <pt x="9" y="6" on="1"/>
        <pt x="298" y="740" on="1"/>
        <pt x="409" y="740" on="1"/>
        <pt x="698" y="6" on="1"/>
        <pt x="698" y="0" on="1"/>
        <pt x="626" y="0" on="1"/>
        <pt x="536" y="229" on="1"/>
        <pt x="170" y="229" on="1"/>
        <pt x="80" y="0" on="1"/>
        <pt x="9" y="0" on="1"/>
      </contour>
      <contour>
        <pt x="514" y="292" on="1"/>
        <pt x="408" y="560" on="1"/>
        <pt x="357" y="690" on="1"/>
        <pt x="350" y="690" on="1"/>
        <pt x="299" y="560" on="1"/>
        <pt x="193" y="292" on="1"/>
      </contour>
      <contour>
        <pt x="356" y="801" on="1"/>
        <pt x="329" y="801" on="0"/>
        <pt x="284" y="817" on="0"/>
        <pt x="250" y="846" on="0"/>
        <pt x="231" y="886" on="0"/>
        <pt x="231" y="909" on="1"/>
        <pt x="231" y="932" on="0"/>
        <pt x="250" y="972" on="0"/>
        <pt x="284" y="1001" on="0"/>
        <pt x="329" y="1018" on="0"/>
        <pt x="356" y="1018" on="1"/>
        <pt x="409" y="1018" on="0"/>
        <pt x="479" y="956" on="0"/>
        <pt x="479" y="909" on="1"/>
        <pt x="479" y="862" on="0"/>
        <pt x="409" y="801" on="0"/>
      </contour>
      <contour>
        <pt x="356" y="842" on="1"/>
        <pt x="394" y="842" on="0"/>
        <pt x="435" y="877" on="0"/>
        <pt x="435" y="909" on="1"/>
        <pt x="435" y="941" on="0"/>
        <pt x="394" y="977" on="0"/>
        <pt x="356" y="977" on="1"/>
        <pt x="317" y="977" on="0"/>
        <pt x="275" y="941" on="0"/>
        <pt x="275" y="909" on="1"/>
        <pt x="275" y="877" on="0"/>
        <pt x="317" y="842" on="0"/>
      </contour>
    </TTGlyph>
    <TTGlyph name="Aring.sc" xMin="16" yMin="0" xMax="621" yMax="798">
      <contour>
        <pt x="16" y="5" on="1"/>
        <pt x="266" y="577" on="1"/>
        <pt x="372" y="577" on="1"/>
        <pt x="621" y="5" on="1"/>
        <pt x="621" y="0" on="1"/>
        <pt x="552" y="0" on="1"/>
        <pt x="476" y="172" on="1"/>
        <pt x="161" y="172" on="1"/>
        <pt x="85" y="0" on="1"/>
        <pt x="16" y="0" on="1"/>
      </contour>
      <contour>
        <pt x="456" y="226" on="1"/>
        <pt x="366" y="431" on="1"/>
        <pt x="321" y="530" on="1"/>
        <pt x="315" y="530" on="1"/>
        <pt x="272" y="430" on="1"/>
        <pt x="180" y="226" on="1"/>
      </contour>
      <contour>
        <pt x="321" y="627" on="1"/>
        <pt x="273" y="627" on="0"/>
        <pt x="211" y="674" on="0"/>
        <pt x="211" y="712" on="1"/>
        <pt x="211" y="749" on="0"/>
        <pt x="273" y="798" on="0"/>
        <pt x="321" y="798" on="1"/>
        <pt x="368" y="798" on="0"/>
        <pt x="429" y="749" on="0"/>
        <pt x="429" y="712" on="1"/>
        <pt x="429" y="674" on="0"/>
        <pt x="368" y="627" on="0"/>
      </contour>
      <contour>
        <pt x="321" y="661" on="1"/>
        <pt x="389" y="661" on="0"/>
        <pt x="389" y="712" on="1"/>
        <pt x="389" y="736" on="0"/>
        <pt x="354" y="764" on="0"/>
        <pt x="321" y="764" on="1"/>
        <pt x="287" y="764" on="0"/>
        <pt x="251" y="736" on="0"/>
        <pt x="251" y="712" on="1"/>
        <pt x="251" y="661" on="0"/>
      </contour>
    </TTGlyph>
    <TTGlyph name="Aringacute" xMin="10" yMin="0" xMax="698" yMax="973">
      <contour>
        <pt x="10" y="6" on="1"/>
        <pt x="269" y="665" on="1"/>
        <pt x="244" y="679" on="0"/>
        <pt x="215" y="726" on="0"/>
        <pt x="215" y="755" on="1"/>
        <pt x="215" y="800" on="0"/>
        <pt x="277" y="862" on="0"/>
        <pt x="327" y="869" on="1"/>
        <pt x="392" y="973" on="1"/>
        <pt x="466" y="973" on="1"/>
        <pt x="394" y="866" on="1"/>
        <pt x="437" y="856" on="0"/>
        <pt x="490" y="796" on="0"/>
        <pt x="490" y="755" on="1"/>
        <pt x="490" y="726" on="0"/>
        <pt x="462" y="680" on="0"/>
        <pt x="439" y="666" on="1"/>
        <pt x="698" y="6" on="1"/>
        <pt x="698" y="0" on="1"/>
        <pt x="627" y="0" on="1"/>
        <pt x="537" y="229" on="1"/>
        <pt x="171" y="229" on="1"/>
        <pt x="81" y="0" on="1"/>
        <pt x="10" y="0" on="1"/>
      </contour>
      <contour>
        <pt x="353" y="687" on="1"/>
        <pt x="391" y="687" on="0"/>
        <pt x="437" y="723" on="0"/>
        <pt x="437" y="755" on="1"/>
        <pt x="437" y="787" on="0"/>
        <pt x="391" y="825" on="0"/>
        <pt x="353" y="825" on="1"/>
        <pt x="314" y="825" on="0"/>
        <pt x="268" y="787" on="0"/>
        <pt x="268" y="755" on="1"/>
        <pt x="268" y="723" on="0"/>
        <pt x="314" y="687" on="0"/>
      </contour>
      <contour>
        <pt x="514" y="292" on="1"/>
        <pt x="409" y="560" on="1"/>
        <pt x="378" y="639" on="1"/>
        <pt x="330" y="639" on="1"/>
        <pt x="299" y="560" on="1"/>
        <pt x="193" y="292" on="1"/>
      </contour>
    </TTGlyph>
    <TTGlyph name="Aringacute.sc" xMin="17" yMin="0" xMax="622" yMax="765">
      <contour>
        <pt x="17" y="5" on="1"/>
        <pt x="241" y="521" on="1"/>
        <pt x="219" y="532" on="0"/>
        <pt x="195" y="568" on="0"/>
        <pt x="195" y="591" on="1"/>
        <pt x="195" y="626" on="0"/>
        <pt x="249" y="676" on="0"/>
        <pt x="294" y="682" on="1"/>
        <pt x="349" y="765" on="1"/>
        <pt x="421" y="765" on="1"/>
        <pt x="357" y="679" on="1"/>
        <pt x="395" y="671" on="0"/>
        <pt x="442" y="623" on="0"/>
        <pt x="442" y="591" on="1"/>
        <pt x="442" y="568" on="0"/>
        <pt x="418" y="532" on="0"/>
        <pt x="397" y="521" on="1"/>
        <pt x="622" y="5" on="1"/>
        <pt x="622" y="0" on="1"/>
        <pt x="553" y="0" on="1"/>
        <pt x="477" y="172" on="1"/>
        <pt x="162" y="172" on="1"/>
        <pt x="86" y="0" on="1"/>
        <pt x="17" y="0" on="1"/>
      </contour>
      <contour>
        <pt x="319" y="539" on="1"/>
        <pt x="353" y="539" on="0"/>
        <pt x="392" y="567" on="0"/>
        <pt x="392" y="591" on="1"/>
        <pt x="392" y="616" on="0"/>
        <pt x="353" y="644" on="0"/>
        <pt x="319" y="644" on="1"/>
        <pt x="284" y="644" on="0"/>
        <pt x="244" y="616" on="0"/>
        <pt x="244" y="591" on="1"/>
        <pt x="244" y="566" on="0"/>
        <pt x="285" y="539" on="0"/>
      </contour>
      <contour>
        <pt x="457" y="226" on="1"/>
        <pt x="366" y="431" on="1"/>
        <pt x="339" y="495" on="1"/>
        <pt x="299" y="494" on="1"/>
        <pt x="273" y="430" on="1"/>
        <pt x="181" y="226" on="1"/>
      </contour>
    </TTGlyph>
    <TTGlyph name="Atilde" xMin="9" yMin="0" xMax="698" yMax="932">
      <contour>
        <pt x="9" y="6" on="1"/>
        <pt x="298" y="740" on="1"/>
        <pt x="409" y="740" on="1"/>
        <pt x="698" y="6" on="1"/>
        <pt x="698" y="0" on="1"/>
        <pt x="626" y="0" on="1"/>
        <pt x="536" y="229" on="1"/>
        <pt x="170" y="229" on="1"/>
        <pt x="80" y="0" on="1"/>
        <pt x="9" y="0" on="1"/>
      </contour>
      <contour>
        <pt x="514" y="292" on="1"/>
        <pt x="408" y="560" on="1"/>
        <pt x="357" y="690" on="1"/>
        <pt x="350" y="690" on="1"/>
        <pt x="299" y="560" on="1"/>
        <pt x="193" y="292" on="1"/>
      </contour>
      <contour>
        <pt x="155" y="867" on="1"/>
        <pt x="185" y="900" on="0"/>
        <pt x="250" y="932" on="0"/>
        <pt x="282" y="932" on="1"/>
        <pt x="307" y="932" on="0"/>
        <pt x="350" y="919" on="0"/>
        <pt x="391" y="903" on="0"/>
        <pt x="433" y="890" on="0"/>
        <pt x="456" y="890" on="1"/>
        <pt x="506" y="890" on="0"/>
        <pt x="554" y="928" on="1"/>
        <pt x="578" y="901" on="1"/>
        <pt x="550" y="869" on="0"/>
        <pt x="480" y="836" on="0"/>
        <pt x="444" y="836" on="1"/>
        <pt x="422" y="836" on="0"/>
        <pt x="379" y="849" on="0"/>
        <pt x="337" y="864" on="0"/>
        <pt x="295" y="877" on="0"/>
        <pt x="274" y="877" on="1"/>
        <pt x="250" y="877" on="0"/>
        <pt x="204" y="860" on="0"/>
        <pt x="179" y="840" on="1"/>
      </contour>
    </TTGlyph>
    <TTGlyph name="Atilde.sc" xMin="16" yMin="0" xMax="621" yMax="734">
      <contour>
        <pt x="16" y="5" on="1"/>
        <pt x="266" y="577" on="1"/>
        <pt x="372" y="577" on="1"/>
        <pt x="621" y="5" on="1"/>
        <pt x="621" y="0" on="1"/>
        <pt x="552" y="0" on="1"/>
        <pt x="476" y="172" on="1"/>
        <pt x="161" y="172" on="1"/>
        <pt x="85" y="0" on="1"/>
        <pt x="16" y="0" on="1"/>
      </contour>
      <contour>
        <pt x="456" y="226" on="1"/>
        <pt x="366" y="431" on="1"/>
        <pt x="321" y="530" on="1"/>
        <pt x="315" y="530" on="1"/>
        <pt x="272" y="430" on="1"/>
        <pt x="180" y="226" on="1"/>
      </contour>
      <contour>
        <pt x="143" y="676" on="1"/>
        <pt x="169" y="705" on="0"/>
        <pt x="226" y="734" on="0"/>
        <pt x="255" y="734" on="1"/>
        <pt x="277" y="734" on="0"/>
        <pt x="315" y="724" on="0"/>
        <pt x="352" y="712" on="0"/>
        <pt x="389" y="702" on="0"/>
        <pt x="409" y="702" on="1"/>
        <pt x="452" y="702" on="0"/>
        <pt x="496" y="731" on="1"/>
        <pt x="516" y="709" on="1"/>
        <pt x="491" y="681" on="0"/>
        <pt x="429" y="652" on="0"/>
        <pt x="398" y="652" on="1"/>
        <pt x="378" y="652" on="0"/>
        <pt x="340" y="662" on="0"/>
        <pt x="302" y="673" on="0"/>
        <pt x="264" y="683" on="0"/>
        <pt x="246" y="683" on="1"/>
        <pt x="225" y="683" on="0"/>
        <pt x="184" y="671" on="0"/>
        <pt x="163" y="654" on="1"/>
      </contour>
    </TTGlyph>
    <TTGlyph name="B" xMin="99" yMin="-10" xMax="633" yMax="749">
      <contour>
        <pt x="337" y="-10" on="1"/>
        <pt x="283" y="-10" on="0"/>
        <pt x="168" y="-3" on="0"/>
        <pt x="99" y="5" on="1"/>
        <pt x="99" y="735" on="1"/>
        <pt x="172" y="742" on="0"/>
        <pt x="280" y="749" on="0"/>
        <pt x="329" y="749" on="1"/>
        <pt x="404" y="749" on="0"/>
        <pt x="510" y="727" on="0"/>
        <pt x="577" y="679" on="0"/>
        <pt x="608" y="604" on="0"/>
        <pt x="608" y="551" on="1"/>
        <pt x="608" y="484" on="0"/>
        <pt x="537" y="390" on="0"/>
        <pt x="477" y="378" on="1"/>
        <pt x="477" y="374" on="1"/>
        <pt x="554" y="359" on="0"/>
        <pt x="633" y="268" on="0"/>
        <pt x="633" y="193" on="1"/>
        <pt x="633" y="-10" on="0"/>
      </contour>
      <contour>
        <pt x="334" y="47" on="1"/>
        <pt x="452" y="47" on="0"/>
        <pt x="562" y="120" on="0"/>
        <pt x="562" y="197" on="1"/>
        <pt x="562" y="348" on="0"/>
        <pt x="360" y="348" on="1"/>
        <pt x="168" y="348" on="1"/>
        <pt x="168" y="57" on="1"/>
        <pt x="221" y="47" on="0"/>
      </contour>
      <contour>
        <pt x="356" y="402" on="1"/>
        <pt x="454" y="402" on="0"/>
        <pt x="538" y="470" on="0"/>
        <pt x="538" y="548" on="1"/>
        <pt x="538" y="587" on="0"/>
        <pt x="516" y="642" on="0"/>
        <pt x="466" y="676" on="0"/>
        <pt x="388" y="691" on="0"/>
        <pt x="331" y="691" on="1"/>
        <pt x="278" y="691" on="0"/>
        <pt x="200" y="688" on="0"/>
        <pt x="168" y="683" on="1"/>
        <pt x="168" y="402" on="1"/>
      </contour>
    </TTGlyph>
    <TTGlyph name="B.sc" xMin="92" yMin="-8" xMax="564" yMax="584">
      <contour>
        <pt x="305" y="-8" on="1"/>
        <pt x="257" y="-8" on="0"/>
        <pt x="155" y="-2" on="0"/>
        <pt x="92" y="4" on="1"/>
        <pt x="92" y="573" on="1"/>
        <pt x="157" y="578" on="0"/>
        <pt x="253" y="584" on="0"/>
        <pt x="297" y="584" on="1"/>
        <pt x="429" y="584" on="0"/>
        <pt x="542" y="511" on="0"/>
        <pt x="542" y="429" on="1"/>
        <pt x="542" y="377" on="0"/>
        <pt x="480" y="305" on="0"/>
        <pt x="427" y="295" on="1"/>
        <pt x="427" y="292" on="1"/>
        <pt x="494" y="280" on="0"/>
        <pt x="564" y="209" on="0"/>
        <pt x="564" y="151" on="1"/>
        <pt x="564" y="-8" on="0"/>
      </contour>
      <contour>
        <pt x="302" y="44" on="1"/>
        <pt x="402" y="44" on="0"/>
        <pt x="494" y="99" on="0"/>
        <pt x="494" y="157" on="1"/>
        <pt x="494" y="268" on="0"/>
        <pt x="326" y="268" on="1"/>
        <pt x="159" y="268" on="1"/>
        <pt x="159" y="52" on="1"/>
        <pt x="184" y="48" on="0"/>
        <pt x="250" y="44" on="0"/>
      </contour>
      <contour>
        <pt x="320" y="317" on="1"/>
        <pt x="403" y="317" on="0"/>
        <pt x="474" y="367" on="0"/>
        <pt x="474" y="425" on="1"/>
        <pt x="474" y="455" on="0"/>
        <pt x="456" y="495" on="0"/>
        <pt x="414" y="521" on="0"/>
        <pt x="347" y="532" on="0"/>
        <pt x="298" y="532" on="1"/>
        <pt x="253" y="532" on="0"/>
        <pt x="186" y="529" on="0"/>
        <pt x="159" y="525" on="1"/>
        <pt x="159" y="317" on="1"/>
      </contour>
    </TTGlyph>
    <TTGlyph name="C" xMin="57" yMin="-8" xMax="575" yMax="750">
      <contour>
        <pt x="390" y="-8" on="1"/>
        <pt x="225" y="-8" on="0"/>
        <pt x="57" y="182" on="0"/>
        <pt x="57" y="368" on="1"/>
        <pt x="57" y="557" on="0"/>
        <pt x="228" y="750" on="0"/>
        <pt x="394" y="750" on="1"/>
        <pt x="431" y="750" on="0"/>
        <pt x="530" y="738" on="0"/>
        <pt x="575" y="729" on="1"/>
        <pt x="575" y="667" on="1"/>
        <pt x="463" y="687" on="0"/>
        <pt x="399" y="687" on="1"/>
        <pt x="265" y="687" on="0"/>
        <pt x="129" y="527" on="0"/>
        <pt x="129" y="369" on="1"/>
        <pt x="129" y="212" on="0"/>
        <pt x="259" y="54" on="0"/>
        <pt x="390" y="54" on="1"/>
        <pt x="408" y="54" on="0"/>
        <pt x="458" y="58" on="0"/>
        <pt x="510" y="65" on="0"/>
        <pt x="558" y="73" on="0"/>
        <pt x="575" y="77" on="1"/>
        <pt x="575" y="16" on="1"/>
        <pt x="556" y="11" on="0"/>
        <pt x="508" y="2" on="0"/>
        <pt x="457" y="-4" on="0"/>
        <pt x="409" y="-8" on="0"/>
      </contour>
    </TTGlyph>
    <TTGlyph name="C.sc" xMin="57" yMin="-7" xMax="510" yMax="585">
      <contour>
        <pt x="349" y="-7" on="1"/>
        <pt x="204" y="-7" on="0"/>
        <pt x="57" y="142" on="0"/>
        <pt x="57" y="287" on="1"/>
        <pt x="57" y="434" on="0"/>
        <pt x="206" y="585" on="0"/>
        <pt x="351" y="585" on="1"/>
        <pt x="384" y="585" on="0"/>
        <pt x="471" y="577" on="0"/>
        <pt x="510" y="569" on="1"/>
        <pt x="510" y="510" on="1"/>
        <pt x="464" y="518" on="0"/>
        <pt x="387" y="526" on="0"/>
        <pt x="357" y="526" on="1"/>
        <pt x="128" y="526" on="0"/>
        <pt x="128" y="288" on="1"/>
        <pt x="128" y="170" on="0"/>
        <pt x="236" y="53" on="0"/>
        <pt x="349" y="53" on="1"/>
        <pt x="365" y="53" on="0"/>
        <pt x="409" y="56" on="0"/>
        <pt x="454" y="60" on="0"/>
        <pt x="496" y="67" on="0"/>
        <pt x="510" y="70" on="1"/>
        <pt x="510" y="12" on="1"/>
        <pt x="493" y="8" on="0"/>
        <pt x="451" y="1" on="0"/>
        <pt x="408" y="-4" on="0"/>
        <pt x="365" y="-7" on="0"/>
      </contour>
    </TTGlyph>
    <TTGlyph name="Cacute" xMin="57" yMin="-8" xMax="575" yMax="944">
      <contour>
        <pt x="390" y="-8" on="1"/>
        <pt x="225" y="-8" on="0"/>
        <pt x="57" y="182" on="0"/>
        <pt x="57" y="368" on="1"/>
        <pt x="57" y="557" on="0"/>
        <pt x="228" y="750" on="0"/>
        <pt x="394" y="750" on="1"/>
        <pt x="431" y="750" on="0"/>
        <pt x="530" y="738" on="0"/>
        <pt x="575" y="729" on="1"/>
        <pt x="575" y="667" on="1"/>
        <pt x="463" y="687" on="0"/>
        <pt x="399" y="687" on="1"/>
        <pt x="265" y="687" on="0"/>
        <pt x="129" y="527" on="0"/>
        <pt x="129" y="369" on="1"/>
        <pt x="129" y="212" on="0"/>
        <pt x="259" y="54" on="0"/>
        <pt x="390" y="54" on="1"/>
        <pt x="408" y="54" on="0"/>
        <pt x="458" y="58" on="0"/>
        <pt x="510" y="65" on="0"/>
        <pt x="558" y="73" on="0"/>
        <pt x="575" y="77" on="1"/>
        <pt x="575" y="16" on="1"/>
        <pt x="556" y="11" on="0"/>
        <pt x="508" y="2" on="0"/>
        <pt x="457" y="-4" on="0"/>
        <pt x="409" y="-8" on="0"/>
      </contour>
      <contour>
        <pt x="327" y="811" on="1"/>
        <pt x="403" y="944" on="1"/>
        <pt x="477" y="944" on="1"/>
        <pt x="383" y="805" on="1"/>
      </contour>
    </TTGlyph>
    <TTGlyph name="Cacute.sc" xMin="57" yMin="-7" xMax="510" yMax="742">
      <contour>
        <pt x="349" y="-7" on="1"/>
        <pt x="204" y="-7" on="0"/>
        <pt x="57" y="142" on="0"/>
        <pt x="57" y="287" on="1"/>
        <pt x="57" y="434" on="0"/>
        <pt x="206" y="585" on="0"/>
        <pt x="351" y="585" on="1"/>
        <pt x="383" y="585" on="0"/>
        <pt x="468" y="577" on="0"/>
        <pt x="510" y="569" on="1"/>
        <pt x="510" y="510" on="1"/>
        <pt x="460" y="518" on="0"/>
        <pt x="384" y="526" on="0"/>
        <pt x="356" y="526" on="1"/>
        <pt x="128" y="526" on="0"/>
        <pt x="128" y="288" on="1"/>
        <pt x="128" y="53" on="0"/>
        <pt x="349" y="53" on="1"/>
        <pt x="365" y="53" on="0"/>
        <pt x="409" y="56" on="0"/>
        <pt x="454" y="60" on="0"/>
        <pt x="496" y="67" on="0"/>
        <pt x="510" y="70" on="1"/>
        <pt x="510" y="12" on="1"/>
        <pt x="493" y="8" on="0"/>
        <pt x="450" y="1" on="0"/>
        <pt x="406" y="-4" on="0"/>
        <pt x="365" y="-7" on="0"/>
      </contour>
      <contour>
        <pt x="289" y="634" on="1"/>
        <pt x="355" y="742" on="1"/>
        <pt x="426" y="742" on="1"/>
        <pt x="344" y="629" on="1"/>
      </contour>
    </TTGlyph>
    <TTGlyph name="Ccaron" xMin="57" yMin="-8" xMax="575" yMax="950">
      <contour>
        <pt x="390" y="-8" on="1"/>
        <pt x="225" y="-8" on="0"/>
        <pt x="57" y="182" on="0"/>
        <pt x="57" y="368" on="1"/>
        <pt x="57" y="557" on="0"/>
        <pt x="228" y="750" on="0"/>
        <pt x="394" y="750" on="1"/>
        <pt x="431" y="750" on="0"/>
        <pt x="530" y="738" on="0"/>
        <pt x="575" y="729" on="1"/>
        <pt x="575" y="667" on="1"/>
        <pt x="463" y="687" on="0"/>
        <pt x="399" y="687" on="1"/>
        <pt x="265" y="687" on="0"/>
        <pt x="129" y="527" on="0"/>
        <pt x="129" y="369" on="1"/>
        <pt x="129" y="212" on="0"/>
        <pt x="259" y="54" on="0"/>
        <pt x="390" y="54" on="1"/>
        <pt x="408" y="54" on="0"/>
        <pt x="458" y="58" on="0"/>
        <pt x="510" y="65" on="0"/>
        <pt x="558" y="73" on="0"/>
        <pt x="575" y="77" on="1"/>
        <pt x="575" y="16" on="1"/>
        <pt x="556" y="11" on="0"/>
        <pt x="508" y="2" on="0"/>
        <pt x="457" y="-4" on="0"/>
        <pt x="409" y="-8" on="0"/>
      </contour>
      <contour>
        <pt x="196" y="950" on="1"/>
        <pt x="363" y="876" on="1"/>
        <pt x="529" y="950" on="1"/>
        <pt x="529" y="889" on="1"/>
        <pt x="362" y="815" on="1"/>
        <pt x="196" y="889" on="1"/>
      </contour>
    </TTGlyph>
    <TTGlyph name="Ccaron.sc" xMin="57" yMin="-7" xMax="510" yMax="748">
      <contour>
        <pt x="349" y="-7" on="1"/>
        <pt x="204" y="-7" on="0"/>
        <pt x="57" y="142" on="0"/>
        <pt x="57" y="287" on="1"/>
        <pt x="57" y="434" on="0"/>
        <pt x="206" y="585" on="0"/>
        <pt x="351" y="585" on="1"/>
        <pt x="383" y="585" on="0"/>
        <pt x="468" y="577" on="0"/>
        <pt x="510" y="569" on="1"/>
        <pt x="510" y="510" on="1"/>
        <pt x="460" y="518" on="0"/>
        <pt x="384" y="526" on="0"/>
        <pt x="356" y="526" on="1"/>
        <pt x="128" y="526" on="0"/>
        <pt x="128" y="288" on="1"/>
        <pt x="128" y="53" on="0"/>
        <pt x="349" y="53" on="1"/>
        <pt x="365" y="53" on="0"/>
        <pt x="409" y="56" on="0"/>
        <pt x="454" y="60" on="0"/>
        <pt x="496" y="67" on="0"/>
        <pt x="510" y="70" on="1"/>
        <pt x="510" y="12" on="1"/>
        <pt x="493" y="8" on="0"/>
        <pt x="450" y="1" on="0"/>
        <pt x="406" y="-4" on="0"/>
        <pt x="365" y="-7" on="0"/>
      </contour>
      <contour>
        <pt x="175" y="748" on="1"/>
        <pt x="323" y="690" on="1"/>
        <pt x="471" y="748" on="1"/>
        <pt x="471" y="693" on="1"/>
        <pt x="322" y="635" on="1"/>
        <pt x="175" y="693" on="1"/>
      </contour>
    </TTGlyph>
    <TTGlyph name="Ccedilla" xMin="57" yMin="-220" xMax="575" yMax="750">
      <contour>
        <pt x="320" y="-220" on="1"/>
        <pt x="300" y="-220" on="0"/>
        <pt x="253" y="-213" on="0"/>
        <pt x="230" y="-208" on="1"/>
        <pt x="230" y="-157" on="1"/>
        <pt x="266" y="-167" on="0"/>
        <pt x="302" y="-167" on="1"/>
        <pt x="347" y="-167" on="0"/>
        <pt x="384" y="-137" on="0"/>
        <pt x="384" y="-101" on="1"/>
        <pt x="384" y="-79" on="0"/>
        <pt x="369" y="-39" on="0"/>
        <pt x="349" y="-6" on="1"/>
        <pt x="204" y="5" on="0"/>
        <pt x="57" y="194" on="0"/>
        <pt x="57" y="368" on="1"/>
        <pt x="57" y="557" on="0"/>
        <pt x="228" y="750" on="0"/>
        <pt x="394" y="750" on="1"/>
        <pt x="431" y="750" on="0"/>
        <pt x="530" y="738" on="0"/>
        <pt x="575" y="729" on="1"/>
        <pt x="575" y="667" on="1"/>
        <pt x="463" y="687" on="0"/>
        <pt x="399" y="687" on="1"/>
        <pt x="265" y="687" on="0"/>
        <pt x="129" y="527" on="0"/>
        <pt x="129" y="369" on="1"/>
        <pt x="129" y="212" on="0"/>
        <pt x="259" y="54" on="0"/>
        <pt x="390" y="54" on="1"/>
        <pt x="408" y="54" on="0"/>
        <pt x="458" y="58" on="0"/>
        <pt x="510" y="65" on="0"/>
        <pt x="558" y="73" on="0"/>
        <pt x="575" y="77" on="1"/>
        <pt x="575" y="16" on="1"/>
        <pt x="558" y="11" on="0"/>
        <pt x="515" y="3" on="0"/>
        <pt x="470" y="-3" on="0"/>
        <pt x="426" y="-7" on="0"/>
        <pt x="407" y="-8" on="1"/>
        <pt x="428" y="-45" on="0"/>
        <pt x="442" y="-84" on="0"/>
        <pt x="442" y="-105" on="1"/>
        <pt x="442" y="-160" on="0"/>
        <pt x="378" y="-220" on="0"/>
      </contour>
    </TTGlyph>
    <TTGlyph name="Ccedilla.sc" xMin="57" yMin="-172" xMax="510" yMax="585">
      <contour>
        <pt x="290" y="-172" on="1"/>
        <pt x="273" y="-172" on="0"/>
        <pt x="231" y="-167" on="0"/>
        <pt x="209" y="-162" on="1"/>
        <pt x="209" y="-116" on="1"/>
        <pt x="223" y="-120" on="0"/>
        <pt x="254" y="-125" on="0"/>
        <pt x="273" y="-125" on="1"/>
        <pt x="313" y="-125" on="0"/>
        <pt x="342" y="-100" on="0"/>
        <pt x="342" y="-71" on="1"/>
        <pt x="342" y="-60" on="0"/>
        <pt x="332" y="-33" on="0"/>
        <pt x="315" y="-7" on="1"/>
        <pt x="187" y="0" on="0"/>
        <pt x="57" y="150" on="0"/>
        <pt x="57" y="287" on="1"/>
        <pt x="57" y="434" on="0"/>
        <pt x="206" y="585" on="0"/>
        <pt x="351" y="585" on="1"/>
        <pt x="383" y="585" on="0"/>
        <pt x="468" y="577" on="0"/>
        <pt x="510" y="569" on="1"/>
        <pt x="510" y="510" on="1"/>
        <pt x="460" y="518" on="0"/>
        <pt x="384" y="526" on="0"/>
        <pt x="357" y="526" on="1"/>
        <pt x="128" y="526" on="0"/>
        <pt x="128" y="288" on="1"/>
        <pt x="128" y="53" on="0"/>
        <pt x="349" y="53" on="1"/>
        <pt x="365" y="53" on="0"/>
        <pt x="409" y="56" on="0"/>
        <pt x="454" y="60" on="0"/>
        <pt x="496" y="67" on="0"/>
        <pt x="510" y="70" on="1"/>
        <pt x="510" y="12" on="1"/>
        <pt x="495" y="9" on="0"/>
        <pt x="459" y="2" on="0"/>
        <pt x="421" y="-3" on="0"/>
        <pt x="384" y="-6" on="0"/>
        <pt x="368" y="-7" on="1"/>
        <pt x="384" y="-34" on="0"/>
        <pt x="395" y="-65" on="0"/>
        <pt x="395" y="-81" on="1"/>
        <pt x="395" y="-125" on="0"/>
        <pt x="341" y="-172" on="0"/>
      </contour>
    </TTGlyph>
    <TTGlyph name="Ccircumflex" xMin="57" yMin="-8" xMax="575" yMax="950">
      <contour>
        <pt x="390" y="-8" on="1"/>
        <pt x="225" y="-8" on="0"/>
        <pt x="57" y="182" on="0"/>
        <pt x="57" y="368" on="1"/>
        <pt x="57" y="557" on="0"/>
        <pt x="228" y="750" on="0"/>
        <pt x="394" y="750" on="1"/>
        <pt x="431" y="750" on="0"/>
        <pt x="530" y="738" on="0"/>
        <pt x="575" y="729" on="1"/>
        <pt x="575" y="667" on="1"/>
        <pt x="463" y="687" on="0"/>
        <pt x="399" y="687" on="1"/>
        <pt x="265" y="687" on="0"/>
        <pt x="129" y="527" on="0"/>
        <pt x="129" y="369" on="1"/>
        <pt x="129" y="212" on="0"/>
        <pt x="259" y="54" on="0"/>
        <pt x="390" y="54" on="1"/>
        <pt x="408" y="54" on="0"/>
        <pt x="458" y="58" on="0"/>
        <pt x="510" y="65" on="0"/>
        <pt x="558" y="73" on="0"/>
        <pt x="575" y="77" on="1"/>
        <pt x="575" y="16" on="1"/>
        <pt x="556" y="11" on="0"/>
        <pt x="508" y="2" on="0"/>
        <pt x="457" y="-4" on="0"/>
        <pt x="409" y="-8" on="0"/>
      </contour>
      <contour>
        <pt x="195" y="876" on="1"/>
        <pt x="362" y="950" on="1"/>
        <pt x="529" y="876" on="1"/>
        <pt x="529" y="815" on="1"/>
        <pt x="362" y="889" on="1"/>
        <pt x="195" y="815" on="1"/>
      </contour>
    </TTGlyph>
    <TTGlyph name="Ccircumflex.sc" xMin="57" yMin="-7" xMax="510" yMax="748">
      <contour>
        <pt x="349" y="-7" on="1"/>
        <pt x="204" y="-7" on="0"/>
        <pt x="57" y="142" on="0"/>
        <pt x="57" y="287" on="1"/>
        <pt x="57" y="434" on="0"/>
        <pt x="206" y="585" on="0"/>
        <pt x="351" y="585" on="1"/>
        <pt x="383" y="585" on="0"/>
        <pt x="468" y="577" on="0"/>
        <pt x="510" y="569" on="1"/>
        <pt x="510" y="510" on="1"/>
        <pt x="460" y="518" on="0"/>
        <pt x="384" y="526" on="0"/>
        <pt x="356" y="526" on="1"/>
        <pt x="128" y="526" on="0"/>
        <pt x="128" y="288" on="1"/>
        <pt x="128" y="53" on="0"/>
        <pt x="349" y="53" on="1"/>
        <pt x="365" y="53" on="0"/>
        <pt x="409" y="56" on="0"/>
        <pt x="454" y="60" on="0"/>
        <pt x="496" y="67" on="0"/>
        <pt x="510" y="70" on="1"/>
        <pt x="510" y="12" on="1"/>
        <pt x="493" y="8" on="0"/>
        <pt x="450" y="1" on="0"/>
        <pt x="406" y="-4" on="0"/>
        <pt x="365" y="-7" on="0"/>
      </contour>
      <contour>
        <pt x="175" y="689" on="1"/>
        <pt x="322" y="748" on="1"/>
        <pt x="471" y="689" on="1"/>
        <pt x="471" y="634" on="1"/>
        <pt x="323" y="692" on="1"/>
        <pt x="175" y="634" on="1"/>
      </contour>
    </TTGlyph>
    <TTGlyph name="Cdotaccent" xMin="57" yMin="-8" xMax="575" yMax="919">
      <contour>
        <pt x="367" y="822" on="1"/>
        <pt x="344" y="822" on="0"/>
        <pt x="318" y="844" on="0"/>
        <pt x="318" y="870" on="1"/>
        <pt x="318" y="919" on="0"/>
        <pt x="367" y="919" on="1"/>
        <pt x="390" y="919" on="0"/>
        <pt x="417" y="896" on="0"/>
        <pt x="417" y="870" on="1"/>
        <pt x="417" y="844" on="0"/>
        <pt x="390" y="822" on="0"/>
      </contour>
      <contour>
        <pt x="390" y="-8" on="1"/>
        <pt x="225" y="-8" on="0"/>
        <pt x="57" y="182" on="0"/>
        <pt x="57" y="368" on="1"/>
        <pt x="57" y="557" on="0"/>
        <pt x="228" y="750" on="0"/>
        <pt x="394" y="750" on="1"/>
        <pt x="431" y="750" on="0"/>
        <pt x="530" y="738" on="0"/>
        <pt x="575" y="729" on="1"/>
        <pt x="575" y="667" on="1"/>
        <pt x="463" y="687" on="0"/>
        <pt x="399" y="687" on="1"/>
        <pt x="265" y="687" on="0"/>
        <pt x="129" y="527" on="0"/>
        <pt x="129" y="369" on="1"/>
        <pt x="129" y="212" on="0"/>
        <pt x="259" y="54" on="0"/>
        <pt x="390" y="54" on="1"/>
        <pt x="408" y="54" on="0"/>
        <pt x="458" y="58" on="0"/>
        <pt x="510" y="65" on="0"/>
        <pt x="558" y="73" on="0"/>
        <pt x="575" y="77" on="1"/>
        <pt x="575" y="16" on="1"/>
        <pt x="556" y="11" on="0"/>
        <pt x="508" y="2" on="0"/>
        <pt x="457" y="-4" on="0"/>
        <pt x="409" y="-8" on="0"/>
      </contour>
    </TTGlyph>
    <TTGlyph name="Cdotaccent.sc" xMin="57" yMin="-7" xMax="510" yMax="727">
      <contour>
        <pt x="349" y="-7" on="1"/>
        <pt x="204" y="-7" on="0"/>
        <pt x="57" y="142" on="0"/>
        <pt x="57" y="287" on="1"/>
        <pt x="57" y="434" on="0"/>
        <pt x="206" y="585" on="0"/>
        <pt x="351" y="585" on="1"/>
        <pt x="383" y="585" on="0"/>
        <pt x="468" y="577" on="0"/>
        <pt x="510" y="569" on="1"/>
        <pt x="510" y="510" on="1"/>
        <pt x="460" y="518" on="0"/>
        <pt x="384" y="526" on="0"/>
        <pt x="356" y="526" on="1"/>
        <pt x="128" y="526" on="0"/>
        <pt x="128" y="288" on="1"/>
        <pt x="128" y="53" on="0"/>
        <pt x="349" y="53" on="1"/>
        <pt x="365" y="53" on="0"/>
        <pt x="409" y="56" on="0"/>
        <pt x="454" y="60" on="0"/>
        <pt x="496" y="67" on="0"/>
        <pt x="510" y="70" on="1"/>
        <pt x="510" y="12" on="1"/>
        <pt x="493" y="8" on="0"/>
        <pt x="450" y="1" on="0"/>
        <pt x="406" y="-4" on="0"/>
        <pt x="365" y="-7" on="0"/>
      </contour>
      <contour>
        <pt x="329" y="640" on="1"/>
        <pt x="306" y="640" on="0"/>
        <pt x="283" y="660" on="0"/>
        <pt x="283" y="684" on="1"/>
        <pt x="283" y="727" on="0"/>
        <pt x="329" y="727" on="1"/>
        <pt x="375" y="727" on="0"/>
        <pt x="375" y="684" on="1"/>
        <pt x="375" y="640" on="0"/>
      </contour>
    </TTGlyph>
    <TTGlyph name="D" xMin="99" yMin="-9" xMax="707" yMax="749">
      <contour>
        <pt x="300" y="-9" on="1"/>
        <pt x="232" y="-9" on="0"/>
        <pt x="122" y="0" on="0"/>
        <pt x="99" y="8" on="1"/>
        <pt x="99" y="739" on="1"/>
        <pt x="121" y="741" on="0"/>
        <pt x="178" y="744" on="0"/>
        <pt x="237" y="747" on="0"/>
        <pt x="291" y="749" on="0"/>
        <pt x="310" y="749" on="1"/>
        <pt x="515" y="749" on="0"/>
        <pt x="707" y="566" on="0"/>
        <pt x="707" y="370" on="1"/>
        <pt x="707" y="272" on="0"/>
        <pt x="659" y="129" on="0"/>
        <pt x="559" y="36" on="0"/>
        <pt x="406" y="-9" on="0"/>
      </contour>
      <contour>
        <pt x="318" y="52" on="1"/>
        <pt x="483" y="52" on="0"/>
        <pt x="635" y="205" on="0"/>
        <pt x="635" y="370" on="1"/>
        <pt x="635" y="534" on="0"/>
        <pt x="482" y="686" on="0"/>
        <pt x="317" y="686" on="1"/>
        <pt x="303" y="686" on="0"/>
        <pt x="265" y="685" on="0"/>
        <pt x="225" y="683" on="0"/>
        <pt x="185" y="680" on="0"/>
        <pt x="169" y="679" on="1"/>
        <pt x="169" y="63" on="1"/>
        <pt x="213" y="57" on="0"/>
        <pt x="277" y="52" on="0"/>
      </contour>
    </TTGlyph>
    <TTGlyph name="D.sc" xMin="92" yMin="-7" xMax="628" yMax="584">
      <contour>
        <pt x="281" y="-7" on="1"/>
        <pt x="219" y="-7" on="0"/>
        <pt x="115" y="0" on="0"/>
        <pt x="92" y="7" on="1"/>
        <pt x="92" y="576" on="1"/>
        <pt x="112" y="578" on="0"/>
        <pt x="163" y="581" on="0"/>
        <pt x="215" y="583" on="0"/>
        <pt x="264" y="584" on="0"/>
        <pt x="281" y="584" on="1"/>
        <pt x="459" y="584" on="0"/>
        <pt x="628" y="440" on="0"/>
        <pt x="628" y="288" on="1"/>
        <pt x="628" y="136" on="0"/>
        <pt x="461" y="-7" on="0"/>
      </contour>
      <contour>
        <pt x="290" y="51" on="1"/>
        <pt x="430" y="51" on="0"/>
        <pt x="559" y="165" on="0"/>
        <pt x="559" y="288" on="1"/>
        <pt x="559" y="412" on="0"/>
        <pt x="429" y="525" on="0"/>
        <pt x="288" y="525" on="1"/>
        <pt x="276" y="525" on="0"/>
        <pt x="244" y="524" on="0"/>
        <pt x="209" y="522" on="0"/>
        <pt x="175" y="521" on="0"/>
        <pt x="161" y="520" on="1"/>
        <pt x="161" y="59" on="1"/>
        <pt x="198" y="54" on="0"/>
        <pt x="254" y="51" on="0"/>
      </contour>
    </TTGlyph>
    <TTGlyph name="Dcaron" xMin="99" yMin="-9" xMax="707" yMax="950">
      <contour>
        <pt x="186" y="950" on="1"/>
        <pt x="353" y="876" on="1"/>
        <pt x="519" y="950" on="1"/>
        <pt x="519" y="889" on="1"/>
        <pt x="352" y="815" on="1"/>
        <pt x="186" y="889" on="1"/>
      </contour>
      <contour>
        <pt x="300" y="-9" on="1"/>
        <pt x="232" y="-9" on="0"/>
        <pt x="122" y="0" on="0"/>
        <pt x="99" y="8" on="1"/>
        <pt x="99" y="739" on="1"/>
        <pt x="121" y="741" on="0"/>
        <pt x="178" y="744" on="0"/>
        <pt x="237" y="747" on="0"/>
        <pt x="291" y="749" on="0"/>
        <pt x="310" y="749" on="1"/>
        <pt x="515" y="749" on="0"/>
        <pt x="707" y="566" on="0"/>
        <pt x="707" y="370" on="1"/>
        <pt x="707" y="272" on="0"/>
        <pt x="659" y="129" on="0"/>
        <pt x="559" y="36" on="0"/>
        <pt x="406" y="-9" on="0"/>
      </contour>
      <contour>
        <pt x="318" y="52" on="1"/>
        <pt x="483" y="52" on="0"/>
        <pt x="635" y="205" on="0"/>
        <pt x="635" y="370" on="1"/>
        <pt x="635" y="534" on="0"/>
        <pt x="482" y="686" on="0"/>
        <pt x="317" y="686" on="1"/>
        <pt x="303" y="686" on="0"/>
        <pt x="265" y="685" on="0"/>
        <pt x="225" y="683" on="0"/>
        <pt x="185" y="680" on="0"/>
        <pt x="169" y="679" on="1"/>
        <pt x="169" y="63" on="1"/>
        <pt x="213" y="57" on="0"/>
        <pt x="277" y="52" on="0"/>
      </contour>
    </TTGlyph>
    <TTGlyph name="Dcaron.sc" xMin="92" yMin="-7" xMax="628" yMax="748">
      <contour>
        <pt x="281" y="-7" on="1"/>
        <pt x="219" y="-7" on="0"/>
        <pt x="115" y="0" on="0"/>
        <pt x="92" y="7" on="1"/>
        <pt x="92" y="576" on="1"/>
        <pt x="112" y="578" on="0"/>
        <pt x="163" y="581" on="0"/>
        <pt x="215" y="583" on="0"/>
        <pt x="264" y="584" on="0"/>
        <pt x="281" y="584" on="1"/>
        <pt x="459" y="584" on="0"/>
        <pt x="628" y="440" on="0"/>
        <pt x="628" y="288" on="1"/>
        <pt x="628" y="136" on="0"/>
        <pt x="461" y="-7" on="0"/>
      </contour>
      <contour>
        <pt x="290" y="51" on="1"/>
        <pt x="430" y="51" on="0"/>
        <pt x="559" y="165" on="0"/>
        <pt x="559" y="288" on="1"/>
        <pt x="559" y="412" on="0"/>
        <pt x="429" y="525" on="0"/>
        <pt x="288" y="525" on="1"/>
        <pt x="276" y="525" on="0"/>
        <pt x="244" y="524" on="0"/>
        <pt x="209" y="522" on="0"/>
        <pt x="175" y="521" on="0"/>
        <pt x="161" y="520" on="1"/>
        <pt x="161" y="59" on="1"/>
        <pt x="198" y="54" on="0"/>
        <pt x="254" y="51" on="0"/>
      </contour>
      <contour>
        <pt x="170" y="693" on="1"/>
        <pt x="170" y="748" on="1"/>
        <pt x="318" y="690" on="1"/>
        <pt x="467" y="748" on="1"/>
        <pt x="467" y="693" on="1"/>
        <pt x="318" y="635" on="1"/>
      </contour>
    </TTGlyph>
    <TTGlyph name="Dcroat" xMin="6" yMin="-9" xMax="715" yMax="749">
      <contour>
        <pt x="6" y="399" on="1"/>
        <pt x="107" y="399" on="1"/>
        <pt x="107" y="739" on="1"/>
        <pt x="129" y="741" on="0"/>
        <pt x="186" y="744" on="0"/>
        <pt x="245" y="747" on="0"/>
        <pt x="299" y="749" on="0"/>
        <pt x="318" y="749" on="1"/>
        <pt x="523" y="749" on="0"/>
        <pt x="715" y="566" on="0"/>
        <pt x="715" y="370" on="1"/>
        <pt x="715" y="272" on="0"/>
        <pt x="667" y="129" on="0"/>
        <pt x="567" y="36" on="0"/>
        <pt x="414" y="-9" on="0"/>
        <pt x="308" y="-9" on="1"/>
        <pt x="240" y="-9" on="0"/>
        <pt x="130" y="0" on="0"/>
        <pt x="107" y="8" on="1"/>
        <pt x="107" y="339" on="1"/>
        <pt x="6" y="339" on="1"/>
      </contour>
      <contour>
        <pt x="326" y="52" on="1"/>
        <pt x="491" y="52" on="0"/>
        <pt x="643" y="205" on="0"/>
        <pt x="643" y="370" on="1"/>
        <pt x="643" y="534" on="0"/>
        <pt x="490" y="686" on="0"/>
        <pt x="325" y="686" on="1"/>
        <pt x="311" y="686" on="0"/>
        <pt x="273" y="685" on="0"/>
        <pt x="233" y="683" on="0"/>
        <pt x="193" y="680" on="0"/>
        <pt x="177" y="679" on="1"/>
        <pt x="177" y="399" on="1"/>
        <pt x="388" y="399" on="1"/>
        <pt x="388" y="339" on="1"/>
        <pt x="177" y="339" on="1"/>
        <pt x="177" y="63" on="1"/>
        <pt x="221" y="57" on="0"/>
        <pt x="285" y="52" on="0"/>
      </contour>
    </TTGlyph>
    <TTGlyph name="Dcroat.sc" xMin="16" yMin="-7" xMax="638" yMax="584">
      <contour>
        <pt x="16" y="316" on="1"/>
        <pt x="102" y="316" on="1"/>
        <pt x="102" y="576" on="1"/>
        <pt x="122" y="578" on="0"/>
        <pt x="174" y="581" on="0"/>
        <pt x="226" y="583" on="0"/>
        <pt x="274" y="584" on="0"/>
        <pt x="291" y="584" on="1"/>
        <pt x="470" y="584" on="0"/>
        <pt x="638" y="441" on="0"/>
        <pt x="638" y="288" on="1"/>
        <pt x="638" y="135" on="0"/>
        <pt x="467" y="-7" on="0"/>
        <pt x="280" y="-7" on="1"/>
        <pt x="220" y="-7" on="0"/>
        <pt x="122" y="0" on="0"/>
        <pt x="102" y="7" on="1"/>
        <pt x="102" y="260" on="1"/>
        <pt x="16" y="260" on="1"/>
      </contour>
      <contour>
        <pt x="300" y="51" on="1"/>
        <pt x="439" y="51" on="0"/>
        <pt x="568" y="164" on="0"/>
        <pt x="568" y="288" on="1"/>
        <pt x="568" y="412" on="0"/>
        <pt x="439" y="525" on="0"/>
        <pt x="298" y="525" on="1"/>
        <pt x="286" y="525" on="0"/>
        <pt x="254" y="524" on="0"/>
        <pt x="220" y="523" on="0"/>
        <pt x="186" y="521" on="0"/>
        <pt x="171" y="520" on="1"/>
        <pt x="171" y="316" on="1"/>
        <pt x="349" y="316" on="1"/>
        <pt x="349" y="260" on="1"/>
        <pt x="171" y="260" on="1"/>
        <pt x="171" y="59" on="1"/>
        <pt x="208" y="54" on="0"/>
        <pt x="264" y="51" on="0"/>
      </contour>
    </TTGlyph>
    <TTGlyph name="Ddotbelow" xMin="99" yMin="-179" xMax="707" yMax="749">
      <contour>
        <pt x="363" y="-179" on="1"/>
        <pt x="340" y="-179" on="0"/>
        <pt x="316" y="-158" on="0"/>
        <pt x="316" y="-133" on="1"/>
        <pt x="316" y="-86" on="0"/>
        <pt x="363" y="-86" on="1"/>
        <pt x="386" y="-86" on="0"/>
        <pt x="411" y="-107" on="0"/>
        <pt x="411" y="-133" on="1"/>
        <pt x="411" y="-159" on="0"/>
        <pt x="386" y="-179" on="0"/>
      </contour>
      <contour>
        <pt x="300" y="-9" on="1"/>
        <pt x="232" y="-9" on="0"/>
        <pt x="122" y="0" on="0"/>
        <pt x="99" y="8" on="1"/>
        <pt x="99" y="739" on="1"/>
        <pt x="121" y="741" on="0"/>
        <pt x="178" y="744" on="0"/>
        <pt x="237" y="747" on="0"/>
        <pt x="291" y="749" on="0"/>
        <pt x="310" y="749" on="1"/>
        <pt x="515" y="749" on="0"/>
        <pt x="707" y="566" on="0"/>
        <pt x="707" y="370" on="1"/>
        <pt x="707" y="272" on="0"/>
        <pt x="659" y="129" on="0"/>
        <pt x="559" y="36" on="0"/>
        <pt x="406" y="-9" on="0"/>
      </contour>
      <contour>
        <pt x="318" y="52" on="1"/>
        <pt x="483" y="52" on="0"/>
        <pt x="635" y="205" on="0"/>
        <pt x="635" y="370" on="1"/>
        <pt x="635" y="534" on="0"/>
        <pt x="482" y="686" on="0"/>
        <pt x="317" y="686" on="1"/>
        <pt x="303" y="686" on="0"/>
        <pt x="265" y="685" on="0"/>
        <pt x="225" y="683" on="0"/>
        <pt x="185" y="680" on="0"/>
        <pt x="169" y="679" on="1"/>
        <pt x="169" y="63" on="1"/>
        <pt x="213" y="57" on="0"/>
        <pt x="277" y="52" on="0"/>
      </contour>
    </TTGlyph>
    <TTGlyph name="Ddotbelow.sc" xMin="92" yMin="-144" xMax="628" yMax="584">
      <contour>
        <pt x="281" y="-7" on="1"/>
        <pt x="219" y="-7" on="0"/>
        <pt x="115" y="0" on="0"/>
        <pt x="92" y="7" on="1"/>
        <pt x="92" y="576" on="1"/>
        <pt x="112" y="578" on="0"/>
        <pt x="163" y="581" on="0"/>
        <pt x="215" y="583" on="0"/>
        <pt x="264" y="584" on="0"/>
        <pt x="281" y="584" on="1"/>
        <pt x="459" y="584" on="0"/>
        <pt x="628" y="440" on="0"/>
        <pt x="628" y="288" on="1"/>
        <pt x="628" y="136" on="0"/>
        <pt x="461" y="-7" on="0"/>
      </contour>
      <contour>
        <pt x="290" y="51" on="1"/>
        <pt x="430" y="51" on="0"/>
        <pt x="559" y="165" on="0"/>
        <pt x="559" y="288" on="1"/>
        <pt x="559" y="412" on="0"/>
        <pt x="429" y="525" on="0"/>
        <pt x="288" y="525" on="1"/>
        <pt x="276" y="525" on="0"/>
        <pt x="244" y="524" on="0"/>
        <pt x="209" y="522" on="0"/>
        <pt x="175" y="521" on="0"/>
        <pt x="161" y="520" on="1"/>
        <pt x="161" y="59" on="1"/>
        <pt x="198" y="54" on="0"/>
        <pt x="254" y="51" on="0"/>
      </contour>
      <contour>
        <pt x="328" y="-144" on="1"/>
        <pt x="285" y="-144" on="0"/>
        <pt x="285" y="-104" on="1"/>
        <pt x="285" y="-63" on="0"/>
        <pt x="328" y="-63" on="1"/>
        <pt x="371" y="-63" on="0"/>
        <pt x="371" y="-104" on="1"/>
        <pt x="371" y="-144" on="0"/>
      </contour>
    </TTGlyph>
    <TTGlyph name="Delta" xMin="27" yMin="0" xMax="747" yMax="740">
      <contour>
        <pt x="344" y="740" on="1"/>
        <pt x="430" y="740" on="1"/>
        <pt x="747" y="0" on="1"/>
        <pt x="27" y="0" on="1"/>
      </contour>
      <contour>
        <pt x="653" y="60" on="1"/>
        <pt x="387" y="679" on="1"/>
        <pt x="120" y="60" on="1"/>
      </contour>
    </TTGlyph>
    <TTGlyph name="E" xMin="99" yMin="0" xMax="586" yMax="740">
      <contour>
        <pt x="99" y="740" on="1"/>
        <pt x="577" y="740" on="1"/>
        <pt x="577" y="680" on="1"/>
        <pt x="169" y="680" on="1"/>
        <pt x="169" y="407" on="1"/>
        <pt x="556" y="407" on="1"/>
        <pt x="556" y="346" on="1"/>
        <pt x="169" y="346" on="1"/>
        <pt x="169" y="60" on="1"/>
        <pt x="586" y="60" on="1"/>
        <pt x="586" y="0" on="1"/>
        <pt x="99" y="0" on="1"/>
      </contour>
    </TTGlyph>
    <TTGlyph name="E.sc" xMin="93" yMin="0" xMax="523" yMax="577">
      <contour>
        <pt x="93" y="577" on="1"/>
        <pt x="516" y="577" on="1"/>
        <pt x="516" y="522" on="1"/>
        <pt x="162" y="522" on="1"/>
        <pt x="162" y="320" on="1"/>
        <pt x="497" y="320" on="1"/>
        <pt x="497" y="269" on="1"/>
        <pt x="162" y="269" on="1"/>
        <pt x="162" y="55" on="1"/>
        <pt x="523" y="55" on="1"/>
        <pt x="523" y="0" on="1"/>
        <pt x="93" y="0" on="1"/>
      </contour>
    </TTGlyph>
    <TTGlyph name="Eacute" xMin="99" yMin="0" xMax="586" yMax="944">
      <contour>
        <pt x="305" y="811" on="1"/>
        <pt x="381" y="944" on="1"/>
        <pt x="455" y="944" on="1"/>
        <pt x="361" y="805" on="1"/>
      </contour>
      <contour>
        <pt x="99" y="740" on="1"/>
        <pt x="577" y="740" on="1"/>
        <pt x="577" y="680" on="1"/>
        <pt x="169" y="680" on="1"/>
        <pt x="169" y="407" on="1"/>
        <pt x="556" y="407" on="1"/>
        <pt x="556" y="346" on="1"/>
        <pt x="169" y="346" on="1"/>
        <pt x="169" y="60" on="1"/>
        <pt x="586" y="60" on="1"/>
        <pt x="586" y="0" on="1"/>
        <pt x="99" y="0" on="1"/>
      </contour>
    </TTGlyph>
    <TTGlyph name="Eacute.sc" xMin="93" yMin="0" xMax="523" yMax="742">
      <contour>
        <pt x="93" y="577" on="1"/>
        <pt x="516" y="577" on="1"/>
        <pt x="516" y="522" on="1"/>
        <pt x="162" y="522" on="1"/>
        <pt x="162" y="320" on="1"/>
        <pt x="497" y="320" on="1"/>
        <pt x="497" y="269" on="1"/>
        <pt x="162" y="269" on="1"/>
        <pt x="162" y="55" on="1"/>
        <pt x="523" y="55" on="1"/>
        <pt x="523" y="0" on="1"/>
        <pt x="93" y="0" on="1"/>
      </contour>
      <contour>
        <pt x="272" y="634" on="1"/>
        <pt x="337" y="742" on="1"/>
        <pt x="408" y="742" on="1"/>
        <pt x="327" y="629" on="1"/>
      </contour>
    </TTGlyph>
    <TTGlyph name="Ebreve" xMin="99" yMin="0" xMax="586" yMax="958">
      <contour>
        <pt x="337" y="815" on="1"/>
        <pt x="247" y="815" on="0"/>
        <pt x="156" y="893" on="0"/>
        <pt x="156" y="958" on="1"/>
        <pt x="211" y="958" on="1"/>
        <pt x="211" y="913" on="0"/>
        <pt x="276" y="862" on="0"/>
        <pt x="337" y="862" on="1"/>
        <pt x="400" y="862" on="0"/>
        <pt x="464" y="913" on="0"/>
        <pt x="464" y="958" on="1"/>
        <pt x="520" y="958" on="1"/>
        <pt x="520" y="893" on="0"/>
        <pt x="428" y="815" on="0"/>
      </contour>
      <contour>
        <pt x="99" y="740" on="1"/>
        <pt x="577" y="740" on="1"/>
        <pt x="577" y="680" on="1"/>
        <pt x="169" y="680" on="1"/>
        <pt x="169" y="407" on="1"/>
        <pt x="556" y="407" on="1"/>
        <pt x="556" y="346" on="1"/>
        <pt x="169" y="346" on="1"/>
        <pt x="169" y="60" on="1"/>
        <pt x="586" y="60" on="1"/>
        <pt x="586" y="0" on="1"/>
        <pt x="99" y="0" on="1"/>
      </contour>
    </TTGlyph>
    <TTGlyph name="Ebreve.sc" xMin="93" yMin="0" xMax="523" yMax="752">
      <contour>
        <pt x="304" y="635" on="1"/>
        <pt x="223" y="635" on="0"/>
        <pt x="143" y="700" on="0"/>
        <pt x="143" y="752" on="1"/>
        <pt x="195" y="752" on="1"/>
        <pt x="195" y="717" on="0"/>
        <pt x="250" y="678" on="0"/>
        <pt x="304" y="678" on="1"/>
        <pt x="358" y="678" on="0"/>
        <pt x="414" y="717" on="0"/>
        <pt x="414" y="752" on="1"/>
        <pt x="465" y="752" on="1"/>
        <pt x="465" y="700" on="0"/>
        <pt x="385" y="635" on="0"/>
      </contour>
      <contour>
        <pt x="93" y="577" on="1"/>
        <pt x="516" y="577" on="1"/>
        <pt x="516" y="522" on="1"/>
        <pt x="162" y="522" on="1"/>
        <pt x="162" y="320" on="1"/>
        <pt x="497" y="320" on="1"/>
        <pt x="497" y="269" on="1"/>
        <pt x="162" y="269" on="1"/>
        <pt x="162" y="55" on="1"/>
        <pt x="523" y="55" on="1"/>
        <pt x="523" y="0" on="1"/>
        <pt x="93" y="0" on="1"/>
      </contour>
    </TTGlyph>
    <TTGlyph name="Ecaron" xMin="99" yMin="0" xMax="586" yMax="950">
      <contour>
        <pt x="174" y="950" on="1"/>
        <pt x="341" y="876" on="1"/>
        <pt x="507" y="950" on="1"/>
        <pt x="507" y="889" on="1"/>
        <pt x="340" y="815" on="1"/>
        <pt x="174" y="889" on="1"/>
      </contour>
      <contour>
        <pt x="99" y="740" on="1"/>
        <pt x="577" y="740" on="1"/>
        <pt x="577" y="680" on="1"/>
        <pt x="169" y="680" on="1"/>
        <pt x="169" y="407" on="1"/>
        <pt x="556" y="407" on="1"/>
        <pt x="556" y="346" on="1"/>
        <pt x="169" y="346" on="1"/>
        <pt x="169" y="60" on="1"/>
        <pt x="586" y="60" on="1"/>
        <pt x="586" y="0" on="1"/>
        <pt x="99" y="0" on="1"/>
      </contour>
    </TTGlyph>
    <TTGlyph name="Ecaron.sc" xMin="93" yMin="0" xMax="523" yMax="748">
      <contour>
        <pt x="93" y="577" on="1"/>
        <pt x="516" y="577" on="1"/>
        <pt x="516" y="522" on="1"/>
        <pt x="162" y="522" on="1"/>
        <pt x="162" y="320" on="1"/>
        <pt x="497" y="320" on="1"/>
        <pt x="497" y="269" on="1"/>
        <pt x="162" y="269" on="1"/>
        <pt x="162" y="55" on="1"/>
        <pt x="523" y="55" on="1"/>
        <pt x="523" y="0" on="1"/>
        <pt x="93" y="0" on="1"/>
      </contour>
      <contour>
        <pt x="159" y="693" on="1"/>
        <pt x="159" y="748" on="1"/>
        <pt x="307" y="690" on="1"/>
        <pt x="454" y="748" on="1"/>
        <pt x="454" y="693" on="1"/>
        <pt x="306" y="635" on="1"/>
      </contour>
    </TTGlyph>
    <TTGlyph name="Ecircumflex" xMin="99" yMin="0" xMax="586" yMax="950">
      <contour>
        <pt x="99" y="740" on="1"/>
        <pt x="577" y="740" on="1"/>
        <pt x="577" y="680" on="1"/>
        <pt x="169" y="680" on="1"/>
        <pt x="169" y="407" on="1"/>
        <pt x="556" y="407" on="1"/>
        <pt x="556" y="346" on="1"/>
        <pt x="169" y="346" on="1"/>
        <pt x="169" y="60" on="1"/>
        <pt x="586" y="60" on="1"/>
        <pt x="586" y="0" on="1"/>
        <pt x="99" y="0" on="1"/>
      </contour>
      <contour>
        <pt x="178" y="876" on="1"/>
        <pt x="345" y="950" on="1"/>
        <pt x="512" y="876" on="1"/>
        <pt x="512" y="815" on="1"/>
        <pt x="345" y="889" on="1"/>
        <pt x="178" y="815" on="1"/>
      </contour>
    </TTGlyph>
    <TTGlyph name="Ecircumflex.sc" xMin="93" yMin="0" xMax="523" yMax="748">
      <contour>
        <pt x="93" y="577" on="1"/>
        <pt x="516" y="577" on="1"/>
        <pt x="516" y="522" on="1"/>
        <pt x="162" y="522" on="1"/>
        <pt x="162" y="320" on="1"/>
        <pt x="497" y="320" on="1"/>
        <pt x="497" y="269" on="1"/>
        <pt x="162" y="269" on="1"/>
        <pt x="162" y="55" on="1"/>
        <pt x="523" y="55" on="1"/>
        <pt x="523" y="0" on="1"/>
        <pt x="93" y="0" on="1"/>
      </contour>
      <contour>
        <pt x="163" y="689" on="1"/>
        <pt x="310" y="748" on="1"/>
        <pt x="459" y="689" on="1"/>
        <pt x="459" y="634" on="1"/>
        <pt x="311" y="692" on="1"/>
        <pt x="163" y="634" on="1"/>
      </contour>
    </TTGlyph>
    <TTGlyph name="Edblgrave" xMin="99" yMin="0" xMax="586" yMax="936">
      <contour>
        <pt x="99" y="740" on="1"/>
        <pt x="577" y="740" on="1"/>
        <pt x="577" y="680" on="1"/>
        <pt x="169" y="680" on="1"/>
        <pt x="169" y="407" on="1"/>
        <pt x="556" y="407" on="1"/>
        <pt x="556" y="346" on="1"/>
        <pt x="169" y="346" on="1"/>
        <pt x="169" y="60" on="1"/>
        <pt x="586" y="60" on="1"/>
        <pt x="586" y="0" on="1"/>
        <pt x="99" y="0" on="1"/>
      </contour>
      <contour>
        <pt x="238" y="796" on="1"/>
        <pt x="144" y="936" on="1"/>
        <pt x="218" y="936" on="1"/>
        <pt x="293" y="810" on="1"/>
      </contour>
      <contour>
        <pt x="388" y="796" on="1"/>
        <pt x="294" y="936" on="1"/>
        <pt x="367" y="936" on="1"/>
        <pt x="443" y="810" on="1"/>
      </contour>
    </TTGlyph>
    <TTGlyph name="Edblgrave.sc" xMin="93" yMin="0" xMax="523" yMax="736">
      <contour>
        <pt x="93" y="577" on="1"/>
        <pt x="516" y="577" on="1"/>
        <pt x="516" y="522" on="1"/>
        <pt x="162" y="522" on="1"/>
        <pt x="162" y="320" on="1"/>
        <pt x="497" y="320" on="1"/>
        <pt x="497" y="269" on="1"/>
        <pt x="162" y="269" on="1"/>
        <pt x="162" y="55" on="1"/>
        <pt x="523" y="55" on="1"/>
        <pt x="523" y="0" on="1"/>
        <pt x="93" y="0" on="1"/>
      </contour>
      <contour>
        <pt x="131" y="736" on="1"/>
        <pt x="201" y="736" on="1"/>
        <pt x="266" y="633" on="1"/>
        <pt x="212" y="622" on="1"/>
      </contour>
      <contour>
        <pt x="264" y="736" on="1"/>
        <pt x="335" y="736" on="1"/>
        <pt x="400" y="633" on="1"/>
        <pt x="346" y="622" on="1"/>
      </contour>
    </TTGlyph>
    <TTGlyph name="Edieresis" xMin="99" yMin="0" xMax="586" yMax="924">
      <contour>
        <pt x="204" y="827" on="1"/>
        <pt x="155" y="827" on="0"/>
        <pt x="155" y="876" on="1"/>
        <pt x="155" y="924" on="0"/>
        <pt x="204" y="924" on="1"/>
        <pt x="227" y="924" on="0"/>
        <pt x="254" y="901" on="0"/>
        <pt x="254" y="876" on="1"/>
        <pt x="254" y="850" on="0"/>
        <pt x="227" y="827" on="0"/>
      </contour>
      <contour>
        <pt x="480" y="827" on="1"/>
        <pt x="431" y="827" on="0"/>
        <pt x="431" y="876" on="1"/>
        <pt x="431" y="924" on="0"/>
        <pt x="480" y="924" on="1"/>
        <pt x="503" y="924" on="0"/>
        <pt x="530" y="901" on="0"/>
        <pt x="530" y="876" on="1"/>
        <pt x="530" y="850" on="0"/>
        <pt x="503" y="827" on="0"/>
      </contour>
      <contour>
        <pt x="99" y="740" on="1"/>
        <pt x="577" y="740" on="1"/>
        <pt x="577" y="680" on="1"/>
        <pt x="169" y="680" on="1"/>
        <pt x="169" y="407" on="1"/>
        <pt x="556" y="407" on="1"/>
        <pt x="556" y="346" on="1"/>
        <pt x="169" y="346" on="1"/>
        <pt x="169" y="60" on="1"/>
        <pt x="586" y="60" on="1"/>
        <pt x="586" y="0" on="1"/>
        <pt x="99" y="0" on="1"/>
      </contour>
    </TTGlyph>
    <TTGlyph name="Edieresis.sc" xMin="93" yMin="0" xMax="523" yMax="731">
      <contour>
        <pt x="188" y="643" on="1"/>
        <pt x="141" y="643" on="0"/>
        <pt x="141" y="687" on="1"/>
        <pt x="141" y="731" on="0"/>
        <pt x="188" y="731" on="1"/>
        <pt x="209" y="731" on="0"/>
        <pt x="234" y="710" on="0"/>
        <pt x="234" y="687" on="1"/>
        <pt x="234" y="664" on="0"/>
        <pt x="209" y="643" on="0"/>
      </contour>
      <contour>
        <pt x="431" y="643" on="1"/>
        <pt x="385" y="643" on="0"/>
        <pt x="385" y="687" on="1"/>
        <pt x="385" y="731" on="0"/>
        <pt x="431" y="731" on="1"/>
        <pt x="476" y="731" on="0"/>
        <pt x="476" y="687" on="1"/>
        <pt x="476" y="643" on="0"/>
      </contour>
      <contour>
        <pt x="93" y="577" on="1"/>
        <pt x="516" y="577" on="1"/>
        <pt x="516" y="522" on="1"/>
        <pt x="162" y="522" on="1"/>
        <pt x="162" y="320" on="1"/>
        <pt x="497" y="320" on="1"/>
        <pt x="497" y="269" on="1"/>
        <pt x="162" y="269" on="1"/>
        <pt x="162" y="55" on="1"/>
        <pt x="523" y="55" on="1"/>
        <pt x="523" y="0" on="1"/>
        <pt x="93" y="0" on="1"/>
      </contour>
    </TTGlyph>
    <TTGlyph name="Edotaccent" xMin="99" yMin="0" xMax="586" yMax="919">
      <contour>
        <pt x="339" y="822" on="1"/>
        <pt x="316" y="822" on="0"/>
        <pt x="290" y="844" on="0"/>
        <pt x="290" y="870" on="1"/>
        <pt x="290" y="919" on="0"/>
        <pt x="339" y="919" on="1"/>
        <pt x="362" y="919" on="0"/>
        <pt x="389" y="896" on="0"/>
        <pt x="389" y="870" on="1"/>
        <pt x="389" y="844" on="0"/>
        <pt x="362" y="822" on="0"/>
      </contour>
      <contour>
        <pt x="99" y="740" on="1"/>
        <pt x="577" y="740" on="1"/>
        <pt x="577" y="680" on="1"/>
        <pt x="169" y="680" on="1"/>
        <pt x="169" y="407" on="1"/>
        <pt x="556" y="407" on="1"/>
        <pt x="556" y="346" on="1"/>
        <pt x="169" y="346" on="1"/>
        <pt x="169" y="60" on="1"/>
        <pt x="586" y="60" on="1"/>
        <pt x="586" y="0" on="1"/>
        <pt x="99" y="0" on="1"/>
      </contour>
    </TTGlyph>
    <TTGlyph name="Edotaccent.sc" xMin="93" yMin="0" xMax="523" yMax="727">
      <contour>
        <pt x="305" y="640" on="1"/>
        <pt x="282" y="640" on="0"/>
        <pt x="259" y="660" on="0"/>
        <pt x="259" y="684" on="1"/>
        <pt x="259" y="727" on="0"/>
        <pt x="305" y="727" on="1"/>
        <pt x="327" y="727" on="0"/>
        <pt x="352" y="707" on="0"/>
        <pt x="352" y="684" on="1"/>
        <pt x="352" y="661" on="0"/>
        <pt x="327" y="640" on="0"/>
      </contour>
      <contour>
        <pt x="93" y="577" on="1"/>
        <pt x="516" y="577" on="1"/>
        <pt x="516" y="522" on="1"/>
        <pt x="162" y="522" on="1"/>
        <pt x="162" y="320" on="1"/>
        <pt x="497" y="320" on="1"/>
        <pt x="497" y="269" on="1"/>
        <pt x="162" y="269" on="1"/>
        <pt x="162" y="55" on="1"/>
        <pt x="523" y="55" on="1"/>
        <pt x="523" y="0" on="1"/>
        <pt x="93" y="0" on="1"/>
      </contour>
    </TTGlyph>
    <TTGlyph name="Edotbelow" xMin="99" yMin="-179" xMax="586" yMax="740">
      <contour>
        <pt x="99" y="740" on="1"/>
        <pt x="577" y="740" on="1"/>
        <pt x="577" y="680" on="1"/>
        <pt x="169" y="680" on="1"/>
        <pt x="169" y="407" on="1"/>
        <pt x="556" y="407" on="1"/>
        <pt x="556" y="346" on="1"/>
        <pt x="169" y="346" on="1"/>
        <pt x="169" y="60" on="1"/>
        <pt x="586" y="60" on="1"/>
        <pt x="586" y="0" on="1"/>
        <pt x="99" y="0" on="1"/>
      </contour>
      <contour>
        <pt x="359" y="-179" on="1"/>
        <pt x="336" y="-179" on="0"/>
        <pt x="312" y="-158" on="0"/>
        <pt x="312" y="-133" on="1"/>
        <pt x="312" y="-86" on="0"/>
        <pt x="359" y="-86" on="1"/>
        <pt x="382" y="-86" on="0"/>
        <pt x="407" y="-107" on="0"/>
        <pt x="407" y="-133" on="1"/>
        <pt x="407" y="-159" on="0"/>
        <pt x="382" y="-179" on="0"/>
      </contour>
    </TTGlyph>
    <TTGlyph name="Edotbelow.sc" xMin="93" yMin="-144" xMax="523" yMax="577">
      <contour>
        <pt x="323" y="-144" on="1"/>
        <pt x="280" y="-144" on="0"/>
        <pt x="280" y="-104" on="1"/>
        <pt x="280" y="-63" on="0"/>
        <pt x="323" y="-63" on="1"/>
        <pt x="366" y="-63" on="0"/>
        <pt x="366" y="-104" on="1"/>
        <pt x="366" y="-144" on="0"/>
      </contour>
      <contour>
        <pt x="93" y="577" on="1"/>
        <pt x="516" y="577" on="1"/>
        <pt x="516" y="522" on="1"/>
        <pt x="162" y="522" on="1"/>
        <pt x="162" y="320" on="1"/>
        <pt x="497" y="320" on="1"/>
        <pt x="497" y="269" on="1"/>
        <pt x="162" y="269" on="1"/>
        <pt x="162" y="55" on="1"/>
        <pt x="523" y="55" on="1"/>
        <pt x="523" y="0" on="1"/>
        <pt x="93" y="0" on="1"/>
      </contour>
    </TTGlyph>
    <TTGlyph name="Egrave" xMin="99" yMin="0" xMax="586" yMax="944">
      <contour>
        <pt x="322" y="805" on="1"/>
        <pt x="228" y="944" on="1"/>
        <pt x="302" y="944" on="1"/>
        <pt x="378" y="818" on="1"/>
      </contour>
      <contour>
        <pt x="99" y="740" on="1"/>
        <pt x="577" y="740" on="1"/>
        <pt x="577" y="680" on="1"/>
        <pt x="169" y="680" on="1"/>
        <pt x="169" y="407" on="1"/>
        <pt x="556" y="407" on="1"/>
        <pt x="556" y="346" on="1"/>
        <pt x="169" y="346" on="1"/>
        <pt x="169" y="60" on="1"/>
        <pt x="586" y="60" on="1"/>
        <pt x="586" y="0" on="1"/>
        <pt x="99" y="0" on="1"/>
      </contour>
    </TTGlyph>
    <TTGlyph name="Egrave.sc" xMin="93" yMin="0" xMax="523" yMax="742">
      <contour>
        <pt x="93" y="577" on="1"/>
        <pt x="516" y="577" on="1"/>
        <pt x="516" y="522" on="1"/>
        <pt x="162" y="522" on="1"/>
        <pt x="162" y="320" on="1"/>
        <pt x="497" y="320" on="1"/>
        <pt x="497" y="269" on="1"/>
        <pt x="162" y="269" on="1"/>
        <pt x="162" y="55" on="1"/>
        <pt x="523" y="55" on="1"/>
        <pt x="523" y="0" on="1"/>
        <pt x="93" y="0" on="1"/>
      </contour>
      <contour>
        <pt x="207" y="742" on="1"/>
        <pt x="279" y="742" on="1"/>
        <pt x="343" y="639" on="1"/>
        <pt x="289" y="629" on="1"/>
      </contour>
    </TTGlyph>
    <TTGlyph name="Einvertedbreve" xMin="99" yMin="0" xMax="586" yMax="960">
      <contour>
        <pt x="99" y="740" on="1"/>
        <pt x="577" y="740" on="1"/>
        <pt x="577" y="680" on="1"/>
        <pt x="169" y="680" on="1"/>
        <pt x="169" y="407" on="1"/>
        <pt x="556" y="407" on="1"/>
        <pt x="556" y="346" on="1"/>
        <pt x="169" y="346" on="1"/>
        <pt x="169" y="60" on="1"/>
        <pt x="586" y="60" on="1"/>
        <pt x="586" y="0" on="1"/>
        <pt x="99" y="0" on="1"/>
      </contour>
      <contour>
        <pt x="468" y="817" on="1"/>
        <pt x="468" y="862" on="0"/>
        <pt x="403" y="913" on="0"/>
        <pt x="341" y="913" on="1"/>
        <pt x="279" y="913" on="0"/>
        <pt x="214" y="862" on="0"/>
        <pt x="214" y="817" on="1"/>
        <pt x="159" y="817" on="1"/>
        <pt x="159" y="883" on="0"/>
        <pt x="250" y="960" on="0"/>
        <pt x="341" y="960" on="1"/>
        <pt x="432" y="960" on="0"/>
        <pt x="523" y="883" on="0"/>
        <pt x="523" y="817" on="1"/>
      </contour>
    </TTGlyph>
    <TTGlyph name="Einvertedbreve.sc" xMin="93" yMin="0" xMax="523" yMax="754">
      <contour>
        <pt x="145" y="637" on="1"/>
        <pt x="145" y="689" on="0"/>
        <pt x="225" y="754" on="0"/>
        <pt x="306" y="754" on="1"/>
        <pt x="387" y="754" on="0"/>
        <pt x="468" y="690" on="0"/>
        <pt x="468" y="637" on="1"/>
        <pt x="416" y="637" on="1"/>
        <pt x="416" y="672" on="0"/>
        <pt x="361" y="711" on="0"/>
        <pt x="306" y="711" on="1"/>
        <pt x="252" y="711" on="0"/>
        <pt x="197" y="672" on="0"/>
        <pt x="197" y="637" on="1"/>
      </contour>
      <contour>
        <pt x="93" y="577" on="1"/>
        <pt x="516" y="577" on="1"/>
        <pt x="516" y="522" on="1"/>
        <pt x="162" y="522" on="1"/>
        <pt x="162" y="320" on="1"/>
        <pt x="497" y="320" on="1"/>
        <pt x="497" y="269" on="1"/>
        <pt x="162" y="269" on="1"/>
        <pt x="162" y="55" on="1"/>
        <pt x="523" y="55" on="1"/>
        <pt x="523" y="0" on="1"/>
        <pt x="93" y="0" on="1"/>
      </contour>
    </TTGlyph>
    <TTGlyph name="Emacron" xMin="99" yMin="0" xMax="586" yMax="897">
      <contour>
        <pt x="177" y="897" on="1"/>
        <pt x="506" y="897" on="1"/>
        <pt x="506" y="842" on="1"/>
        <pt x="177" y="842" on="1"/>
      </contour>
      <contour>
        <pt x="99" y="740" on="1"/>
        <pt x="577" y="740" on="1"/>
        <pt x="577" y="680" on="1"/>
        <pt x="169" y="680" on="1"/>
        <pt x="169" y="407" on="1"/>
        <pt x="556" y="407" on="1"/>
        <pt x="556" y="346" on="1"/>
        <pt x="169" y="346" on="1"/>
        <pt x="169" y="60" on="1"/>
        <pt x="586" y="60" on="1"/>
        <pt x="586" y="0" on="1"/>
        <pt x="99" y="0" on="1"/>
      </contour>
    </TTGlyph>
    <TTGlyph name="Emacron.sc" xMin="93" yMin="0" xMax="523" yMax="708">
      <contour>
        <pt x="93" y="577" on="1"/>
        <pt x="516" y="577" on="1"/>
        <pt x="516" y="522" on="1"/>
        <pt x="162" y="522" on="1"/>
        <pt x="162" y="320" on="1"/>
        <pt x="497" y="320" on="1"/>
        <pt x="497" y="269" on="1"/>
        <pt x="162" y="269" on="1"/>
        <pt x="162" y="55" on="1"/>
        <pt x="523" y="55" on="1"/>
        <pt x="523" y="0" on="1"/>
        <pt x="93" y="0" on="1"/>
      </contour>
      <contour>
        <pt x="162" y="708" on="1"/>
        <pt x="455" y="708" on="1"/>
        <pt x="455" y="657" on="1"/>
        <pt x="162" y="657" on="1"/>
      </contour>
    </TTGlyph>
    <TTGlyph name="Eng" xMin="99" yMin="-189" xMax="715" yMax="740">
      <contour>
        <pt x="569" y="-174" on="1"/>
        <pt x="582" y="-151" on="0"/>
        <pt x="606" y="-99" on="0"/>
        <pt x="624" y="-48" on="0"/>
        <pt x="636" y="0" on="0"/>
        <pt x="638" y="20" on="1"/>
        <pt x="231" y="547" on="1"/>
        <pt x="170" y="632" on="1"/>
        <pt x="164" y="632" on="1"/>
        <pt x="164" y="0" on="1"/>
        <pt x="99" y="0" on="1"/>
        <pt x="99" y="740" on="1"/>
        <pt x="158" y="740" on="1"/>
        <pt x="578" y="196" on="1"/>
        <pt x="643" y="106" on="1"/>
        <pt x="649" y="106" on="1"/>
        <pt x="649" y="740" on="1"/>
        <pt x="715" y="740" on="1"/>
        <pt x="715" y="84" on="1"/>
        <pt x="715" y="53" on="0"/>
        <pt x="701" y="-19" on="0"/>
        <pt x="676" y="-93" on="0"/>
        <pt x="642" y="-162" on="0"/>
        <pt x="622" y="-189" on="1"/>
      </contour>
    </TTGlyph>
    <TTGlyph name="Eng.sc" xMin="93" yMin="-151" xMax="629" yMax="577">
      <contour>
        <pt x="500" y="-136" on="1"/>
        <pt x="523" y="-97" on="0"/>
        <pt x="555" y="-15" on="0"/>
        <pt x="559" y="14" on="1"/>
        <pt x="216" y="410" on="1"/>
        <pt x="162" y="478" on="1"/>
        <pt x="156" y="478" on="1"/>
        <pt x="156" y="0" on="1"/>
        <pt x="93" y="0" on="1"/>
        <pt x="93" y="577" on="1"/>
        <pt x="150" y="577" on="1"/>
        <pt x="503" y="169" on="1"/>
        <pt x="560" y="98" on="1"/>
        <pt x="565" y="98" on="1"/>
        <pt x="565" y="577" on="1"/>
        <pt x="629" y="577" on="1"/>
        <pt x="629" y="71" on="1"/>
        <pt x="629" y="46" on="0"/>
        <pt x="617" y="-12" on="0"/>
        <pt x="596" y="-71" on="0"/>
        <pt x="567" y="-127" on="0"/>
        <pt x="549" y="-151" on="1"/>
      </contour>
    </TTGlyph>
    <TTGlyph name="Eogonek" xMin="99" yMin="-220" xMax="586" yMax="740">
      <contour>
        <pt x="99" y="740" on="1"/>
        <pt x="577" y="740" on="1"/>
        <pt x="577" y="680" on="1"/>
        <pt x="169" y="680" on="1"/>
        <pt x="169" y="407" on="1"/>
        <pt x="556" y="407" on="1"/>
        <pt x="556" y="346" on="1"/>
        <pt x="169" y="346" on="1"/>
        <pt x="169" y="60" on="1"/>
        <pt x="586" y="60" on="1"/>
        <pt x="586" y="-20" on="1"/>
        <pt x="520" y="-52" on="0"/>
        <pt x="462" y="-108" on="0"/>
        <pt x="462" y="-138" on="1"/>
        <pt x="462" y="-174" on="0"/>
        <pt x="512" y="-174" on="1"/>
        <pt x="526" y="-174" on="0"/>
        <pt x="565" y="-169" on="0"/>
        <pt x="584" y="-164" on="1"/>
        <pt x="584" y="-208" on="1"/>
        <pt x="570" y="-214" on="0"/>
        <pt x="529" y="-220" on="0"/>
        <pt x="508" y="-220" on="1"/>
        <pt x="457" y="-220" on="0"/>
        <pt x="409" y="-182" on="0"/>
        <pt x="409" y="-141" on="1"/>
        <pt x="409" y="-122" on="0"/>
        <pt x="421" y="-87" on="0"/>
        <pt x="449" y="-54" on="0"/>
        <pt x="495" y="-20" on="0"/>
        <pt x="528" y="0" on="1"/>
        <pt x="99" y="0" on="1"/>
      </contour>
    </TTGlyph>
    <TTGlyph name="Eogonek.sc" xMin="93" yMin="-172" xMax="523" yMax="577">
      <contour>
        <pt x="453" y="-172" on="1"/>
        <pt x="407" y="-172" on="0"/>
        <pt x="365" y="-141" on="0"/>
        <pt x="365" y="-109" on="1"/>
        <pt x="365" y="-94" on="0"/>
        <pt x="374" y="-68" on="0"/>
        <pt x="397" y="-43" on="0"/>
        <pt x="435" y="-16" on="0"/>
        <pt x="464" y="0" on="1"/>
        <pt x="93" y="0" on="1"/>
        <pt x="93" y="577" on="1"/>
        <pt x="516" y="577" on="1"/>
        <pt x="516" y="522" on="1"/>
        <pt x="162" y="522" on="1"/>
        <pt x="162" y="320" on="1"/>
        <pt x="497" y="320" on="1"/>
        <pt x="497" y="269" on="1"/>
        <pt x="162" y="269" on="1"/>
        <pt x="162" y="55" on="1"/>
        <pt x="523" y="55" on="1"/>
        <pt x="523" y="-15" on="1"/>
        <pt x="468" y="-37" on="0"/>
        <pt x="415" y="-76" on="0"/>
        <pt x="415" y="-102" on="1"/>
        <pt x="415" y="-119" on="0"/>
        <pt x="437" y="-131" on="0"/>
        <pt x="457" y="-131" on="1"/>
        <pt x="471" y="-131" on="0"/>
        <pt x="508" y="-126" on="0"/>
        <pt x="522" y="-122" on="1"/>
        <pt x="522" y="-162" on="1"/>
        <pt x="508" y="-167" on="0"/>
        <pt x="472" y="-172" on="0"/>
      </contour>
    </TTGlyph>
    <TTGlyph name="Eth" xMin="6" yMin="-9" xMax="715" yMax="749">
      <contour>
        <pt x="6" y="399" on="1"/>
        <pt x="107" y="399" on="1"/>
        <pt x="107" y="739" on="1"/>
        <pt x="129" y="741" on="0"/>
        <pt x="186" y="744" on="0"/>
        <pt x="245" y="747" on="0"/>
        <pt x="299" y="749" on="0"/>
        <pt x="318" y="749" on="1"/>
        <pt x="523" y="749" on="0"/>
        <pt x="715" y="566" on="0"/>
        <pt x="715" y="370" on="1"/>
        <pt x="715" y="272" on="0"/>
        <pt x="667" y="129" on="0"/>
        <pt x="567" y="36" on="0"/>
        <pt x="414" y="-9" on="0"/>
        <pt x="308" y="-9" on="1"/>
        <pt x="240" y="-9" on="0"/>
        <pt x="130" y="0" on="0"/>
        <pt x="107" y="8" on="1"/>
        <pt x="107" y="339" on="1"/>
        <pt x="6" y="339" on="1"/>
      </contour>
      <contour>
        <pt x="326" y="52" on="1"/>
        <pt x="491" y="52" on="0"/>
        <pt x="643" y="205" on="0"/>
        <pt x="643" y="370" on="1"/>
        <pt x="643" y="534" on="0"/>
        <pt x="490" y="686" on="0"/>
        <pt x="325" y="686" on="1"/>
        <pt x="311" y="686" on="0"/>
        <pt x="273" y="685" on="0"/>
        <pt x="233" y="683" on="0"/>
        <pt x="193" y="680" on="0"/>
        <pt x="177" y="679" on="1"/>
        <pt x="177" y="399" on="1"/>
        <pt x="388" y="399" on="1"/>
        <pt x="388" y="339" on="1"/>
        <pt x="177" y="339" on="1"/>
        <pt x="177" y="63" on="1"/>
        <pt x="221" y="57" on="0"/>
        <pt x="285" y="52" on="0"/>
      </contour>
    </TTGlyph>
    <TTGlyph name="Eth.sc" xMin="15" yMin="-7" xMax="638" yMax="584">
      <contour>
        <pt x="15" y="315" on="1"/>
        <pt x="102" y="315" on="1"/>
        <pt x="102" y="576" on="1"/>
        <pt x="122" y="578" on="0"/>
        <pt x="173" y="581" on="0"/>
        <pt x="226" y="583" on="0"/>
        <pt x="274" y="584" on="0"/>
        <pt x="291" y="584" on="1"/>
        <pt x="469" y="584" on="0"/>
        <pt x="638" y="441" on="0"/>
        <pt x="638" y="288" on="1"/>
        <pt x="638" y="135" on="0"/>
        <pt x="467" y="-7" on="0"/>
        <pt x="280" y="-7" on="1"/>
        <pt x="220" y="-7" on="0"/>
        <pt x="121" y="0" on="0"/>
        <pt x="102" y="7" on="1"/>
        <pt x="102" y="261" on="1"/>
        <pt x="15" y="261" on="1"/>
      </contour>
      <contour>
        <pt x="300" y="51" on="1"/>
        <pt x="439" y="51" on="0"/>
        <pt x="567" y="164" on="0"/>
        <pt x="567" y="288" on="1"/>
        <pt x="567" y="412" on="0"/>
        <pt x="439" y="525" on="0"/>
        <pt x="297" y="525" on="1"/>
        <pt x="285" y="525" on="0"/>
        <pt x="253" y="524" on="0"/>
        <pt x="219" y="523" on="0"/>
        <pt x="185" y="521" on="0"/>
        <pt x="170" y="520" on="1"/>
        <pt x="170" y="315" on="1"/>
        <pt x="348" y="315" on="1"/>
        <pt x="348" y="261" on="1"/>
        <pt x="170" y="261" on="1"/>
        <pt x="170" y="59" on="1"/>
        <pt x="207" y="54" on="0"/>
        <pt x="264" y="51" on="0"/>
      </contour>
    </TTGlyph>
    <TTGlyph name="Etilde" xMin="99" yMin="0" xMax="586" yMax="932">
      <contour>
        <pt x="141" y="867" on="1"/>
        <pt x="171" y="900" on="0"/>
        <pt x="236" y="932" on="0"/>
        <pt x="268" y="932" on="1"/>
        <pt x="293" y="932" on="0"/>
        <pt x="336" y="919" on="0"/>
        <pt x="377" y="903" on="0"/>
        <pt x="419" y="890" on="0"/>
        <pt x="442" y="890" on="1"/>
        <pt x="492" y="890" on="0"/>
        <pt x="540" y="928" on="1"/>
        <pt x="564" y="901" on="1"/>
        <pt x="536" y="869" on="0"/>
        <pt x="466" y="836" on="0"/>
        <pt x="430" y="836" on="1"/>
        <pt x="408" y="836" on="0"/>
        <pt x="365" y="849" on="0"/>
        <pt x="323" y="864" on="0"/>
        <pt x="281" y="877" on="0"/>
        <pt x="260" y="877" on="1"/>
        <pt x="236" y="877" on="0"/>
        <pt x="190" y="860" on="0"/>
        <pt x="165" y="840" on="1"/>
      </contour>
      <contour>
        <pt x="99" y="740" on="1"/>
        <pt x="577" y="740" on="1"/>
        <pt x="577" y="680" on="1"/>
        <pt x="169" y="680" on="1"/>
        <pt x="169" y="407" on="1"/>
        <pt x="556" y="407" on="1"/>
        <pt x="556" y="346" on="1"/>
        <pt x="169" y="346" on="1"/>
        <pt x="169" y="60" on="1"/>
        <pt x="586" y="60" on="1"/>
        <pt x="586" y="0" on="1"/>
        <pt x="99" y="0" on="1"/>
      </contour>
    </TTGlyph>
    <TTGlyph name="Etilde.sc" xMin="93" yMin="0" xMax="523" yMax="734">
      <contour>
        <pt x="130" y="676" on="1"/>
        <pt x="182" y="734" on="0"/>
        <pt x="243" y="734" on="1"/>
        <pt x="265" y="734" on="0"/>
        <pt x="303" y="724" on="0"/>
        <pt x="339" y="712" on="0"/>
        <pt x="376" y="702" on="0"/>
        <pt x="397" y="702" on="1"/>
        <pt x="441" y="702" on="0"/>
        <pt x="483" y="731" on="1"/>
        <pt x="504" y="709" on="1"/>
        <pt x="478" y="681" on="0"/>
        <pt x="416" y="652" on="0"/>
        <pt x="385" y="652" on="1"/>
        <pt x="365" y="652" on="0"/>
        <pt x="327" y="662" on="0"/>
        <pt x="289" y="673" on="0"/>
        <pt x="252" y="683" on="0"/>
        <pt x="233" y="683" on="1"/>
        <pt x="212" y="683" on="0"/>
        <pt x="171" y="671" on="0"/>
        <pt x="151" y="654" on="1"/>
      </contour>
      <contour>
        <pt x="93" y="577" on="1"/>
        <pt x="516" y="577" on="1"/>
        <pt x="516" y="522" on="1"/>
        <pt x="162" y="522" on="1"/>
        <pt x="162" y="320" on="1"/>
        <pt x="497" y="320" on="1"/>
        <pt x="497" y="269" on="1"/>
        <pt x="162" y="269" on="1"/>
        <pt x="162" y="55" on="1"/>
        <pt x="523" y="55" on="1"/>
        <pt x="523" y="0" on="1"/>
        <pt x="93" y="0" on="1"/>
      </contour>
    </TTGlyph>
    <TTGlyph name="Euro" xMin="48" yMin="-10" xMax="609" yMax="749">
      <contour>
        <pt x="48" y="479" on="1"/>
        <pt x="144" y="479" on="1"/>
        <pt x="155" y="550" on="0"/>
        <pt x="208" y="652" on="0"/>
        <pt x="298" y="718" on="0"/>
        <pt x="426" y="749" on="0"/>
        <pt x="512" y="749" on="1"/>
        <pt x="546" y="749" on="0"/>
        <pt x="589" y="745" on="0"/>
        <pt x="609" y="743" on="1"/>
        <pt x="582" y="682" on="1"/>
        <pt x="574" y="683" on="0"/>
        <pt x="544" y="686" on="0"/>
        <pt x="526" y="686" on="1"/>
        <pt x="452" y="686" on="0"/>
        <pt x="343" y="664" on="0"/>
        <pt x="268" y="614" on="0"/>
        <pt x="224" y="536" on="0"/>
        <pt x="215" y="479" on="1"/>
        <pt x="519" y="479" on="1"/>
        <pt x="503" y="429" on="1"/>
        <pt x="210" y="429" on="1"/>
        <pt x="208" y="415" on="0"/>
        <pt x="208" y="386" on="0"/>
        <pt x="208" y="370" on="1"/>
        <pt x="208" y="354" on="0"/>
        <pt x="208" y="325" on="0"/>
        <pt x="210" y="311" on="1"/>
        <pt x="479" y="311" on="1"/>
        <pt x="463" y="261" on="1"/>
        <pt x="216" y="261" on="1"/>
        <pt x="226" y="206" on="0"/>
        <pt x="270" y="127" on="0"/>
        <pt x="345" y="77" on="0"/>
        <pt x="451" y="53" on="0"/>
        <pt x="522" y="53" on="1"/>
        <pt x="535" y="53" on="0"/>
        <pt x="572" y="56" on="0"/>
        <pt x="593" y="58" on="1"/>
        <pt x="593" y="-5" on="1"/>
        <pt x="580" y="-8" on="0"/>
        <pt x="544" y="-10" on="0"/>
        <pt x="518" y="-10" on="1"/>
        <pt x="346" y="-9" on="0"/>
        <pt x="166" y="121" on="0"/>
        <pt x="144" y="261" on="1"/>
        <pt x="48" y="261" on="1"/>
        <pt x="48" y="311" on="1"/>
        <pt x="139" y="311" on="1"/>
        <pt x="137" y="325" on="0"/>
        <pt x="137" y="354" on="0"/>
        <pt x="137" y="369" on="1"/>
        <pt x="137" y="385" on="0"/>
        <pt x="137" y="415" on="0"/>
        <pt x="139" y="429" on="1"/>
        <pt x="48" y="429" on="1"/>
      </contour>
    </TTGlyph>
    <TTGlyph name="Euro.tab" xMin="16" yMin="-10" xMax="551" yMax="749">
      <contour>
        <pt x="16" y="479" on="1"/>
        <pt x="107" y="479" on="1"/>
        <pt x="117" y="551" on="0"/>
        <pt x="168" y="653" on="0"/>
        <pt x="253" y="718" on="0"/>
        <pt x="376" y="749" on="0"/>
        <pt x="457" y="749" on="1"/>
        <pt x="489" y="749" on="0"/>
        <pt x="532" y="745" on="0"/>
        <pt x="551" y="743" on="1"/>
        <pt x="526" y="682" on="1"/>
        <pt x="518" y="683" on="0"/>
        <pt x="488" y="686" on="0"/>
        <pt x="471" y="686" on="1"/>
        <pt x="403" y="686" on="0"/>
        <pt x="301" y="663" on="0"/>
        <pt x="230" y="614" on="0"/>
        <pt x="188" y="535" on="0"/>
        <pt x="179" y="479" on="1"/>
        <pt x="466" y="479" on="1"/>
        <pt x="451" y="429" on="1"/>
        <pt x="172" y="429" on="1"/>
        <pt x="171" y="416" on="0"/>
        <pt x="170" y="385" on="0"/>
        <pt x="170" y="370" on="1"/>
        <pt x="170" y="355" on="0"/>
        <pt x="171" y="324" on="0"/>
        <pt x="172" y="311" on="1"/>
        <pt x="428" y="311" on="1"/>
        <pt x="412" y="261" on="1"/>
        <pt x="180" y="261" on="1"/>
        <pt x="199" y="152" on="0"/>
        <pt x="336" y="53" on="0"/>
        <pt x="468" y="53" on="1"/>
        <pt x="480" y="53" on="0"/>
        <pt x="516" y="56" on="0"/>
        <pt x="536" y="58" on="1"/>
        <pt x="536" y="-5" on="1"/>
        <pt x="523" y="-8" on="0"/>
        <pt x="488" y="-10" on="0"/>
        <pt x="462" y="-10" on="1"/>
        <pt x="300" y="-9" on="0"/>
        <pt x="129" y="121" on="0"/>
        <pt x="108" y="261" on="1"/>
        <pt x="16" y="261" on="1"/>
        <pt x="16" y="311" on="1"/>
        <pt x="101" y="311" on="1"/>
        <pt x="101" y="324" on="0"/>
        <pt x="100" y="355" on="0"/>
        <pt x="100" y="369" on="1"/>
        <pt x="100" y="384" on="0"/>
        <pt x="100" y="416" on="0"/>
        <pt x="101" y="429" on="1"/>
        <pt x="16" y="429" on="1"/>
      </contour>
    </TTGlyph>
    <TTGlyph name="F" xMin="99" yMin="0" xMax="577" yMax="740">
      <contour>
        <pt x="99" y="740" on="1"/>
        <pt x="577" y="740" on="1"/>
        <pt x="577" y="680" on="1"/>
        <pt x="169" y="680" on="1"/>
        <pt x="169" y="401" on="1"/>
        <pt x="540" y="401" on="1"/>
        <pt x="540" y="341" on="1"/>
        <pt x="169" y="341" on="1"/>
        <pt x="169" y="0" on="1"/>
        <pt x="99" y="0" on="1"/>
      </contour>
    </TTGlyph>
    <TTGlyph name="F.sc" xMin="93" yMin="0" xMax="516" yMax="577">
      <contour>
        <pt x="93" y="577" on="1"/>
        <pt x="516" y="577" on="1"/>
        <pt x="516" y="521" on="1"/>
        <pt x="162" y="521" on="1"/>
        <pt x="162" y="313" on="1"/>
        <pt x="483" y="313" on="1"/>
        <pt x="483" y="261" on="1"/>
        <pt x="162" y="261" on="1"/>
        <pt x="162" y="0" on="1"/>
        <pt x="93" y="0" on="1"/>
      </contour>
    </TTGlyph>
    <TTGlyph name="F_B.sc" xMin="93" yMin="-8" xMax="1097" yMax="584">
      <contour>
        <pt x="93" y="577" on="1"/>
        <pt x="516" y="577" on="1"/>
        <pt x="516" y="521" on="1"/>
        <pt x="162" y="521" on="1"/>
        <pt x="162" y="313" on="1"/>
        <pt x="483" y="313" on="1"/>
        <pt x="483" y="261" on="1"/>
        <pt x="162" y="261" on="1"/>
        <pt x="162" y="0" on="1"/>
        <pt x="93" y="0" on="1"/>
      </contour>
      <contour>
        <pt x="838" y="-8" on="1"/>
        <pt x="790" y="-8" on="0"/>
        <pt x="688" y="-2" on="0"/>
        <pt x="625" y="4" on="1"/>
        <pt x="625" y="573" on="1"/>
        <pt x="690" y="578" on="0"/>
        <pt x="786" y="584" on="0"/>
        <pt x="830" y="584" on="1"/>
        <pt x="962" y="584" on="0"/>
        <pt x="1075" y="511" on="0"/>
        <pt x="1075" y="429" on="1"/>
        <pt x="1075" y="377" on="0"/>
        <pt x="1013" y="305" on="0"/>
        <pt x="960" y="295" on="1"/>
        <pt x="960" y="292" on="1"/>
        <pt x="1027" y="280" on="0"/>
        <pt x="1097" y="209" on="0"/>
        <pt x="1097" y="151" on="1"/>
        <pt x="1097" y="-8" on="0"/>
      </contour>
      <contour>
        <pt x="835" y="44" on="1"/>
        <pt x="935" y="44" on="0"/>
        <pt x="1027" y="99" on="0"/>
        <pt x="1027" y="157" on="1"/>
        <pt x="1027" y="268" on="0"/>
        <pt x="859" y="268" on="1"/>
        <pt x="692" y="268" on="1"/>
        <pt x="692" y="52" on="1"/>
        <pt x="717" y="48" on="0"/>
        <pt x="783" y="44" on="0"/>
      </contour>
      <contour>
        <pt x="853" y="317" on="1"/>
        <pt x="936" y="317" on="0"/>
        <pt x="1007" y="367" on="0"/>
        <pt x="1007" y="425" on="1"/>
        <pt x="1007" y="455" on="0"/>
        <pt x="989" y="495" on="0"/>
        <pt x="947" y="521" on="0"/>
        <pt x="880" y="532" on="0"/>
        <pt x="831" y="532" on="1"/>
        <pt x="786" y="532" on="0"/>
        <pt x="719" y="529" on="0"/>
        <pt x="692" y="525" on="1"/>
        <pt x="692" y="317" on="1"/>
      </contour>
    </TTGlyph>
    <TTGlyph name="F_F.sc" xMin="93" yMin="0" xMax="1048" yMax="577">
      <contour>
        <pt x="93" y="577" on="1"/>
        <pt x="516" y="577" on="1"/>
        <pt x="516" y="521" on="1"/>
        <pt x="162" y="521" on="1"/>
        <pt x="162" y="313" on="1"/>
        <pt x="483" y="313" on="1"/>
        <pt x="483" y="261" on="1"/>
        <pt x="162" y="261" on="1"/>
        <pt x="162" y="0" on="1"/>
        <pt x="93" y="0" on="1"/>
      </contour>
      <contour>
        <pt x="625" y="577" on="1"/>
        <pt x="1048" y="577" on="1"/>
        <pt x="1048" y="521" on="1"/>
        <pt x="694" y="521" on="1"/>
        <pt x="694" y="313" on="1"/>
        <pt x="1015" y="313" on="1"/>
        <pt x="1015" y="261" on="1"/>
        <pt x="694" y="261" on="1"/>
        <pt x="694" y="0" on="1"/>
        <pt x="625" y="0" on="1"/>
      </contour>
    </TTGlyph>
    <TTGlyph name="F_F_B.sc" xMin="93" yMin="-8" xMax="1627" yMax="584">
      <contour>
        <pt x="93" y="577" on="1"/>
        <pt x="516" y="577" on="1"/>
        <pt x="516" y="521" on="1"/>
        <pt x="162" y="521" on="1"/>
        <pt x="162" y="313" on="1"/>
        <pt x="483" y="313" on="1"/>
        <pt x="483" y="261" on="1"/>
        <pt x="162" y="261" on="1"/>
        <pt x="162" y="0" on="1"/>
        <pt x="93" y="0" on="1"/>
      </contour>
      <contour>
        <pt x="625" y="577" on="1"/>
        <pt x="1048" y="577" on="1"/>
        <pt x="1048" y="521" on="1"/>
        <pt x="694" y="521" on="1"/>
        <pt x="694" y="313" on="1"/>
        <pt x="1015" y="313" on="1"/>
        <pt x="1015" y="261" on="1"/>
        <pt x="694" y="261" on="1"/>
        <pt x="694" y="0" on="1"/>
        <pt x="625" y="0" on="1"/>
      </contour>
      <contour>
        <pt x="1368" y="-8" on="1"/>
        <pt x="1320" y="-8" on="0"/>
        <pt x="1218" y="-2" on="0"/>
        <pt x="1155" y="4" on="1"/>
        <pt x="1155" y="573" on="1"/>
        <pt x="1220" y="578" on="0"/>
        <pt x="1316" y="584" on="0"/>
        <pt x="1360" y="584" on="1"/>
        <pt x="1492" y="584" on="0"/>
        <pt x="1605" y="511" on="0"/>
        <pt x="1605" y="429" on="1"/>
        <pt x="1605" y="377" on="0"/>
        <pt x="1543" y="305" on="0"/>
        <pt x="1490" y="295" on="1"/>
        <pt x="1490" y="292" on="1"/>
        <pt x="1557" y="280" on="0"/>
        <pt x="1627" y="209" on="0"/>
        <pt x="1627" y="151" on="1"/>
        <pt x="1627" y="-8" on="0"/>
      </contour>
      <contour>
        <pt x="1365" y="44" on="1"/>
        <pt x="1465" y="44" on="0"/>
        <pt x="1557" y="99" on="0"/>
        <pt x="1557" y="157" on="1"/>
        <pt x="1557" y="268" on="0"/>
        <pt x="1389" y="268" on="1"/>
        <pt x="1222" y="268" on="1"/>
        <pt x="1222" y="52" on="1"/>
        <pt x="1247" y="48" on="0"/>
        <pt x="1313" y="44" on="0"/>
      </contour>
      <contour>
        <pt x="1383" y="317" on="1"/>
        <pt x="1466" y="317" on="0"/>
        <pt x="1537" y="367" on="0"/>
        <pt x="1537" y="425" on="1"/>
        <pt x="1537" y="455" on="0"/>
        <pt x="1519" y="495" on="0"/>
        <pt x="1477" y="521" on="0"/>
        <pt x="1410" y="532" on="0"/>
        <pt x="1361" y="532" on="1"/>
        <pt x="1316" y="532" on="0"/>
        <pt x="1249" y="529" on="0"/>
        <pt x="1222" y="525" on="1"/>
        <pt x="1222" y="317" on="1"/>
      </contour>
    </TTGlyph>
    <TTGlyph name="F_F_H.sc" xMin="93" yMin="0" xMax="1688" yMax="577">
      <contour>
        <pt x="93" y="577" on="1"/>
        <pt x="516" y="577" on="1"/>
        <pt x="516" y="521" on="1"/>
        <pt x="162" y="521" on="1"/>
        <pt x="162" y="313" on="1"/>
        <pt x="483" y="313" on="1"/>
        <pt x="483" y="261" on="1"/>
        <pt x="162" y="261" on="1"/>
        <pt x="162" y="0" on="1"/>
        <pt x="93" y="0" on="1"/>
      </contour>
      <contour>
        <pt x="625" y="577" on="1"/>
        <pt x="1048" y="577" on="1"/>
        <pt x="1048" y="521" on="1"/>
        <pt x="694" y="521" on="1"/>
        <pt x="694" y="313" on="1"/>
        <pt x="1015" y="313" on="1"/>
        <pt x="1015" y="261" on="1"/>
        <pt x="694" y="261" on="1"/>
        <pt x="694" y="0" on="1"/>
        <pt x="625" y="0" on="1"/>
      </contour>
      <contour>
        <pt x="1155" y="577" on="1"/>
        <pt x="1224" y="577" on="1"/>
        <pt x="1224" y="324" on="1"/>
        <pt x="1619" y="324" on="1"/>
        <pt x="1619" y="577" on="1"/>
        <pt x="1688" y="577" on="1"/>
        <pt x="1688" y="0" on="1"/>
        <pt x="1619" y="0" on="1"/>
        <pt x="1619" y="269" on="1"/>
        <pt x="1224" y="269" on="1"/>
        <pt x="1224" y="0" on="1"/>
        <pt x="1155" y="0" on="1"/>
      </contour>
    </TTGlyph>
    <TTGlyph name="F_F_I.sc" xMin="93" yMin="0" xMax="1224" yMax="577">
      <contour>
        <pt x="93" y="577" on="1"/>
        <pt x="516" y="577" on="1"/>
        <pt x="516" y="521" on="1"/>
        <pt x="162" y="521" on="1"/>
        <pt x="162" y="313" on="1"/>
        <pt x="483" y="313" on="1"/>
        <pt x="483" y="261" on="1"/>
        <pt x="162" y="261" on="1"/>
        <pt x="162" y="0" on="1"/>
        <pt x="93" y="0" on="1"/>
      </contour>
      <contour>
        <pt x="625" y="577" on="1"/>
        <pt x="1048" y="577" on="1"/>
        <pt x="1048" y="521" on="1"/>
        <pt x="694" y="521" on="1"/>
        <pt x="694" y="313" on="1"/>
        <pt x="1015" y="313" on="1"/>
        <pt x="1015" y="261" on="1"/>
        <pt x="694" y="261" on="1"/>
        <pt x="694" y="0" on="1"/>
        <pt x="625" y="0" on="1"/>
      </contour>
      <contour>
        <pt x="1155" y="577" on="1"/>
        <pt x="1224" y="577" on="1"/>
        <pt x="1224" y="0" on="1"/>
        <pt x="1155" y="0" on="1"/>
      </contour>
    </TTGlyph>
    <TTGlyph name="F_F_J.sc" xMin="93" yMin="-147" xMax="1234" yMax="577">
      <contour>
        <pt x="93" y="577" on="1"/>
        <pt x="516" y="577" on="1"/>
        <pt x="516" y="521" on="1"/>
        <pt x="162" y="521" on="1"/>
        <pt x="162" y="313" on="1"/>
        <pt x="483" y="313" on="1"/>
        <pt x="483" y="261" on="1"/>
        <pt x="162" y="261" on="1"/>
        <pt x="162" y="0" on="1"/>
        <pt x="93" y="0" on="1"/>
      </contour>
      <contour>
        <pt x="625" y="577" on="1"/>
        <pt x="1048" y="577" on="1"/>
        <pt x="1048" y="521" on="1"/>
        <pt x="694" y="521" on="1"/>
        <pt x="694" y="313" on="1"/>
        <pt x="1015" y="313" on="1"/>
        <pt x="1015" y="261" on="1"/>
        <pt x="694" y="261" on="1"/>
        <pt x="694" y="0" on="1"/>
        <pt x="625" y="0" on="1"/>
      </contour>
      <contour>
        <pt x="1098" y="-124" on="1"/>
        <pt x="1117" y="-88" on="0"/>
        <pt x="1143" y="-25" on="0"/>
        <pt x="1158" y="38" on="0"/>
        <pt x="1165" y="105" on="0"/>
        <pt x="1165" y="145" on="1"/>
        <pt x="1165" y="577" on="1"/>
        <pt x="1234" y="577" on="1"/>
        <pt x="1234" y="142" on="1"/>
        <pt x="1234" y="102" on="0"/>
        <pt x="1226" y="35" on="0"/>
        <pt x="1206" y="-31" on="0"/>
        <pt x="1172" y="-102" on="0"/>
        <pt x="1147" y="-147" on="1"/>
      </contour>
    </TTGlyph>
    <TTGlyph name="F_F_K.sc" xMin="93" yMin="0" xMax="1665" yMax="577">
      <contour>
        <pt x="93" y="577" on="1"/>
        <pt x="516" y="577" on="1"/>
        <pt x="516" y="521" on="1"/>
        <pt x="162" y="521" on="1"/>
        <pt x="162" y="313" on="1"/>
        <pt x="483" y="313" on="1"/>
        <pt x="483" y="261" on="1"/>
        <pt x="162" y="261" on="1"/>
        <pt x="162" y="0" on="1"/>
        <pt x="93" y="0" on="1"/>
      </contour>
      <contour>
        <pt x="625" y="577" on="1"/>
        <pt x="1048" y="577" on="1"/>
        <pt x="1048" y="521" on="1"/>
        <pt x="694" y="521" on="1"/>
        <pt x="694" y="313" on="1"/>
        <pt x="1015" y="313" on="1"/>
        <pt x="1015" y="261" on="1"/>
        <pt x="694" y="261" on="1"/>
        <pt x="694" y="0" on="1"/>
        <pt x="625" y="0" on="1"/>
      </contour>
      <contour>
        <pt x="1155" y="577" on="1"/>
        <pt x="1224" y="577" on="1"/>
        <pt x="1224" y="321" on="1"/>
        <pt x="1370" y="321" on="1"/>
        <pt x="1571" y="577" on="1"/>
        <pt x="1650" y="577" on="1"/>
        <pt x="1447" y="320" on="1"/>
        <pt x="1420" y="301" on="1"/>
        <pt x="1420" y="296" on="1"/>
        <pt x="1449" y="276" on="1"/>
        <pt x="1665" y="0" on="1"/>
        <pt x="1585" y="0" on="1"/>
        <pt x="1377" y="266" on="1"/>
        <pt x="1224" y="266" on="1"/>
        <pt x="1224" y="0" on="1"/>
        <pt x="1155" y="0" on="1"/>
      </contour>
    </TTGlyph>
    <TTGlyph name="F_F_L.sc" xMin="93" yMin="0" xMax="1547" yMax="577">
      <contour>
        <pt x="1155" y="577" on="1"/>
        <pt x="1224" y="577" on="1"/>
        <pt x="1224" y="56" on="1"/>
        <pt x="1547" y="56" on="1"/>
        <pt x="1547" y="0" on="1"/>
        <pt x="1155" y="0" on="1"/>
      </contour>
      <contour>
        <pt x="93" y="577" on="1"/>
        <pt x="516" y="577" on="1"/>
        <pt x="516" y="521" on="1"/>
        <pt x="162" y="521" on="1"/>
        <pt x="162" y="313" on="1"/>
        <pt x="483" y="313" on="1"/>
        <pt x="483" y="261" on="1"/>
        <pt x="162" y="261" on="1"/>
        <pt x="162" y="0" on="1"/>
        <pt x="93" y="0" on="1"/>
      </contour>
      <contour>
        <pt x="625" y="577" on="1"/>
        <pt x="1048" y="577" on="1"/>
        <pt x="1048" y="521" on="1"/>
        <pt x="694" y="521" on="1"/>
        <pt x="694" y="313" on="1"/>
        <pt x="1015" y="313" on="1"/>
        <pt x="1015" y="261" on="1"/>
        <pt x="694" y="261" on="1"/>
        <pt x="694" y="0" on="1"/>
        <pt x="625" y="0" on="1"/>
      </contour>
    </TTGlyph>
    <TTGlyph name="F_F_T.sc" xMin="93" yMin="0" xMax="1602" yMax="577">
      <contour>
        <pt x="1307" y="521" on="1"/>
        <pt x="1080" y="521" on="1"/>
        <pt x="1080" y="577" on="1"/>
        <pt x="1602" y="577" on="1"/>
        <pt x="1602" y="521" on="1"/>
        <pt x="1376" y="521" on="1"/>
        <pt x="1376" y="0" on="1"/>
        <pt x="1307" y="0" on="1"/>
      </contour>
      <contour>
        <pt x="93" y="577" on="1"/>
        <pt x="516" y="577" on="1"/>
        <pt x="516" y="521" on="1"/>
        <pt x="162" y="521" on="1"/>
        <pt x="162" y="313" on="1"/>
        <pt x="483" y="313" on="1"/>
        <pt x="483" y="261" on="1"/>
        <pt x="162" y="261" on="1"/>
        <pt x="162" y="0" on="1"/>
        <pt x="93" y="0" on="1"/>
      </contour>
      <contour>
        <pt x="625" y="577" on="1"/>
        <pt x="1048" y="577" on="1"/>
        <pt x="1048" y="521" on="1"/>
        <pt x="694" y="521" on="1"/>
        <pt x="694" y="313" on="1"/>
        <pt x="1015" y="313" on="1"/>
        <pt x="1015" y="261" on="1"/>
        <pt x="694" y="261" on="1"/>
        <pt x="694" y="0" on="1"/>
        <pt x="625" y="0" on="1"/>
      </contour>
    </TTGlyph>
    <TTGlyph name="F_H.sc" xMin="93" yMin="0" xMax="1158" yMax="577">
      <contour>
        <pt x="93" y="577" on="1"/>
        <pt x="516" y="577" on="1"/>
        <pt x="516" y="521" on="1"/>
        <pt x="162" y="521" on="1"/>
        <pt x="162" y="313" on="1"/>
        <pt x="483" y="313" on="1"/>
        <pt x="483" y="261" on="1"/>
        <pt x="162" y="261" on="1"/>
        <pt x="162" y="0" on="1"/>
        <pt x="93" y="0" on="1"/>
      </contour>
      <contour>
        <pt x="625" y="577" on="1"/>
        <pt x="694" y="577" on="1"/>
        <pt x="694" y="324" on="1"/>
        <pt x="1089" y="324" on="1"/>
        <pt x="1089" y="577" on="1"/>
        <pt x="1158" y="577" on="1"/>
        <pt x="1158" y="0" on="1"/>
        <pt x="1089" y="0" on="1"/>
        <pt x="1089" y="269" on="1"/>
        <pt x="694" y="269" on="1"/>
        <pt x="694" y="0" on="1"/>
        <pt x="625" y="0" on="1"/>
      </contour>
    </TTGlyph>
    <TTGlyph name="F_I.sc" xMin="93" yMin="0" xMax="694" yMax="577">
      <contour>
        <pt x="93" y="577" on="1"/>
        <pt x="516" y="577" on="1"/>
        <pt x="516" y="521" on="1"/>
        <pt x="162" y="521" on="1"/>
        <pt x="162" y="313" on="1"/>
        <pt x="483" y="313" on="1"/>
        <pt x="483" y="261" on="1"/>
        <pt x="162" y="261" on="1"/>
        <pt x="162" y="0" on="1"/>
        <pt x="93" y="0" on="1"/>
      </contour>
      <contour>
        <pt x="625" y="577" on="1"/>
        <pt x="694" y="577" on="1"/>
        <pt x="694" y="0" on="1"/>
        <pt x="625" y="0" on="1"/>
      </contour>
    </TTGlyph>
    <TTGlyph name="F_J.sc" xMin="93" yMin="-147" xMax="703" yMax="577">
      <contour>
        <pt x="93" y="577" on="1"/>
        <pt x="516" y="577" on="1"/>
        <pt x="516" y="521" on="1"/>
        <pt x="162" y="521" on="1"/>
        <pt x="162" y="313" on="1"/>
        <pt x="483" y="313" on="1"/>
        <pt x="483" y="261" on="1"/>
        <pt x="162" y="261" on="1"/>
        <pt x="162" y="0" on="1"/>
        <pt x="93" y="0" on="1"/>
      </contour>
      <contour>
        <pt x="567" y="-124" on="1"/>
        <pt x="586" y="-88" on="0"/>
        <pt x="612" y="-25" on="0"/>
        <pt x="627" y="38" on="0"/>
        <pt x="634" y="105" on="0"/>
        <pt x="634" y="145" on="1"/>
        <pt x="634" y="577" on="1"/>
        <pt x="703" y="577" on="1"/>
        <pt x="703" y="142" on="1"/>
        <pt x="703" y="102" on="0"/>
        <pt x="695" y="35" on="0"/>
        <pt x="675" y="-31" on="0"/>
        <pt x="641" y="-102" on="0"/>
        <pt x="616" y="-147" on="1"/>
      </contour>
    </TTGlyph>
    <TTGlyph name="F_K.sc" xMin="93" yMin="0" xMax="1135" yMax="577">
      <contour>
        <pt x="93" y="577" on="1"/>
        <pt x="516" y="577" on="1"/>
        <pt x="516" y="521" on="1"/>
        <pt x="162" y="521" on="1"/>
        <pt x="162" y="313" on="1"/>
        <pt x="483" y="313" on="1"/>
        <pt x="483" y="261" on="1"/>
        <pt x="162" y="261" on="1"/>
        <pt x="162" y="0" on="1"/>
        <pt x="93" y="0" on="1"/>
      </contour>
      <contour>
        <pt x="625" y="577" on="1"/>
        <pt x="694" y="577" on="1"/>
        <pt x="694" y="321" on="1"/>
        <pt x="840" y="321" on="1"/>
        <pt x="1041" y="577" on="1"/>
        <pt x="1120" y="577" on="1"/>
        <pt x="917" y="320" on="1"/>
        <pt x="890" y="301" on="1"/>
        <pt x="890" y="296" on="1"/>
        <pt x="919" y="276" on="1"/>
        <pt x="1135" y="0" on="1"/>
        <pt x="1055" y="0" on="1"/>
        <pt x="847" y="266" on="1"/>
        <pt x="694" y="266" on="1"/>
        <pt x="694" y="0" on="1"/>
        <pt x="625" y="0" on="1"/>
      </contour>
    </TTGlyph>
    <TTGlyph name="F_L.sc" xMin="93" yMin="0" xMax="1017" yMax="577">
      <contour>
        <pt x="625" y="577" on="1"/>
        <pt x="694" y="577" on="1"/>
        <pt x="694" y="56" on="1"/>
        <pt x="1017" y="56" on="1"/>
        <pt x="1017" y="0" on="1"/>
        <pt x="625" y="0" on="1"/>
      </contour>
      <contour>
        <pt x="93" y="577" on="1"/>
        <pt x="516" y="577" on="1"/>
        <pt x="516" y="521" on="1"/>
        <pt x="162" y="521" on="1"/>
        <pt x="162" y="313" on="1"/>
        <pt x="483" y="313" on="1"/>
        <pt x="483" y="261" on="1"/>
        <pt x="162" y="261" on="1"/>
        <pt x="162" y="0" on="1"/>
        <pt x="93" y="0" on="1"/>
      </contour>
    </TTGlyph>
    <TTGlyph name="F_T.sc" xMin="93" yMin="0" xMax="1071" yMax="577">
      <contour>
        <pt x="776" y="521" on="1"/>
        <pt x="549" y="521" on="1"/>
        <pt x="549" y="577" on="1"/>
        <pt x="1071" y="577" on="1"/>
        <pt x="1071" y="521" on="1"/>
        <pt x="845" y="521" on="1"/>
        <pt x="845" y="0" on="1"/>
        <pt x="776" y="0" on="1"/>
      </contour>
      <contour>
        <pt x="93" y="577" on="1"/>
        <pt x="516" y="577" on="1"/>
        <pt x="516" y="521" on="1"/>
        <pt x="162" y="521" on="1"/>
        <pt x="162" y="313" on="1"/>
        <pt x="483" y="313" on="1"/>
        <pt x="483" y="261" on="1"/>
        <pt x="162" y="261" on="1"/>
        <pt x="162" y="0" on="1"/>
        <pt x="93" y="0" on="1"/>
      </contour>
    </TTGlyph>
    <TTGlyph name="G" xMin="57" yMin="-8" xMax="615" yMax="750">
      <contour>
        <pt x="402" y="-8" on="1"/>
        <pt x="232" y="-8" on="0"/>
        <pt x="57" y="182" on="0"/>
        <pt x="57" y="368" on="1"/>
        <pt x="57" y="556" on="0"/>
        <pt x="237" y="750" on="0"/>
        <pt x="412" y="750" on="1"/>
        <pt x="506" y="750" on="0"/>
        <pt x="608" y="723" on="1"/>
        <pt x="608" y="660" on="1"/>
        <pt x="575" y="668" on="0"/>
        <pt x="523" y="678" on="0"/>
        <pt x="478" y="684" on="0"/>
        <pt x="438" y="687" on="0"/>
        <pt x="416" y="687" on="1"/>
        <pt x="273" y="687" on="0"/>
        <pt x="129" y="527" on="0"/>
        <pt x="129" y="369" on="1"/>
        <pt x="129" y="212" on="0"/>
        <pt x="266" y="54" on="0"/>
        <pt x="402" y="54" on="1"/>
        <pt x="430" y="54" on="0"/>
        <pt x="514" y="63" on="0"/>
        <pt x="548" y="70" on="1"/>
        <pt x="548" y="376" on="1"/>
        <pt x="615" y="376" on="1"/>
        <pt x="615" y="27" on="1"/>
        <pt x="591" y="19" on="0"/>
        <pt x="535" y="6" on="0"/>
        <pt x="478" y="-3" on="0"/>
        <pt x="424" y="-8" on="0"/>
      </contour>
    </TTGlyph>
    <TTGlyph name="G.sc" xMin="57" yMin="-7" xMax="548" yMax="585">
      <contour>
        <pt x="359" y="-7" on="1"/>
        <pt x="210" y="-7" on="0"/>
        <pt x="57" y="142" on="0"/>
        <pt x="57" y="287" on="1"/>
        <pt x="57" y="433" on="0"/>
        <pt x="214" y="585" on="0"/>
        <pt x="368" y="585" on="1"/>
        <pt x="452" y="585" on="0"/>
        <pt x="541" y="564" on="1"/>
        <pt x="541" y="506" on="1"/>
        <pt x="511" y="512" on="0"/>
        <pt x="465" y="519" on="0"/>
        <pt x="426" y="524" on="0"/>
        <pt x="391" y="526" on="0"/>
        <pt x="372" y="526" on="1"/>
        <pt x="128" y="526" on="0"/>
        <pt x="128" y="288" on="1"/>
        <pt x="128" y="170" on="0"/>
        <pt x="241" y="53" on="0"/>
        <pt x="359" y="53" on="1"/>
        <pt x="371" y="53" on="0"/>
        <pt x="403" y="55" on="0"/>
        <pt x="438" y="59" on="0"/>
        <pt x="470" y="64" on="0"/>
        <pt x="482" y="67" on="1"/>
        <pt x="482" y="293" on="1"/>
        <pt x="548" y="293" on="1"/>
        <pt x="548" y="22" on="1"/>
        <pt x="527" y="16" on="0"/>
        <pt x="477" y="5" on="0"/>
        <pt x="426" y="-3" on="0"/>
        <pt x="378" y="-7" on="0"/>
      </contour>
    </TTGlyph>
    <TTGlyph name="Gacute" xMin="57" yMin="-8" xMax="615" yMax="944">
      <contour>
        <pt x="332" y="811" on="1"/>
        <pt x="408" y="944" on="1"/>
        <pt x="482" y="944" on="1"/>
        <pt x="388" y="805" on="1"/>
      </contour>
      <contour>
        <pt x="402" y="-8" on="1"/>
        <pt x="232" y="-8" on="0"/>
        <pt x="57" y="182" on="0"/>
        <pt x="57" y="368" on="1"/>
        <pt x="57" y="556" on="0"/>
        <pt x="237" y="750" on="0"/>
        <pt x="412" y="750" on="1"/>
        <pt x="506" y="750" on="0"/>
        <pt x="608" y="723" on="1"/>
        <pt x="608" y="660" on="1"/>
        <pt x="575" y="668" on="0"/>
        <pt x="523" y="678" on="0"/>
        <pt x="478" y="684" on="0"/>
        <pt x="438" y="687" on="0"/>
        <pt x="416" y="687" on="1"/>
        <pt x="273" y="687" on="0"/>
        <pt x="129" y="527" on="0"/>
        <pt x="129" y="369" on="1"/>
        <pt x="129" y="212" on="0"/>
        <pt x="266" y="54" on="0"/>
        <pt x="402" y="54" on="1"/>
        <pt x="430" y="54" on="0"/>
        <pt x="514" y="63" on="0"/>
        <pt x="548" y="70" on="1"/>
        <pt x="548" y="376" on="1"/>
        <pt x="615" y="376" on="1"/>
        <pt x="615" y="27" on="1"/>
        <pt x="591" y="19" on="0"/>
        <pt x="535" y="6" on="0"/>
        <pt x="478" y="-3" on="0"/>
        <pt x="424" y="-8" on="0"/>
      </contour>
    </TTGlyph>
    <TTGlyph name="Gacute.sc" xMin="57" yMin="-7" xMax="548" yMax="742">
      <contour>
        <pt x="359" y="-7" on="1"/>
        <pt x="210" y="-7" on="0"/>
        <pt x="57" y="141" on="0"/>
        <pt x="57" y="287" on="1"/>
        <pt x="57" y="434" on="0"/>
        <pt x="214" y="585" on="0"/>
        <pt x="368" y="585" on="1"/>
        <pt x="452" y="585" on="0"/>
        <pt x="541" y="564" on="1"/>
        <pt x="541" y="505" on="1"/>
        <pt x="511" y="511" on="0"/>
        <pt x="465" y="519" on="0"/>
        <pt x="426" y="524" on="0"/>
        <pt x="391" y="526" on="0"/>
        <pt x="372" y="526" on="1"/>
        <pt x="128" y="526" on="0"/>
        <pt x="128" y="288" on="1"/>
        <pt x="128" y="53" on="0"/>
        <pt x="359" y="53" on="1"/>
        <pt x="371" y="53" on="0"/>
        <pt x="403" y="55" on="0"/>
        <pt x="438" y="59" on="0"/>
        <pt x="470" y="64" on="0"/>
        <pt x="482" y="67" on="1"/>
        <pt x="482" y="293" on="1"/>
        <pt x="548" y="293" on="1"/>
        <pt x="548" y="22" on="1"/>
        <pt x="527" y="16" on="0"/>
        <pt x="477" y="5" on="0"/>
        <pt x="426" y="-3" on="0"/>
        <pt x="378" y="-7" on="0"/>
      </contour>
      <contour>
        <pt x="295" y="634" on="1"/>
        <pt x="359" y="742" on="1"/>
        <pt x="431" y="742" on="1"/>
        <pt x="348" y="629" on="1"/>
      </contour>
    </TTGlyph>
    <TTGlyph name="Gbreve" xMin="57" yMin="-8" xMax="615" yMax="958">
      <contour>
        <pt x="369" y="815" on="1"/>
        <pt x="279" y="815" on="0"/>
        <pt x="188" y="893" on="0"/>
        <pt x="188" y="958" on="1"/>
        <pt x="243" y="958" on="1"/>
        <pt x="243" y="913" on="0"/>
        <pt x="308" y="862" on="0"/>
        <pt x="369" y="862" on="1"/>
        <pt x="432" y="862" on="0"/>
        <pt x="496" y="913" on="0"/>
        <pt x="496" y="958" on="1"/>
        <pt x="552" y="958" on="1"/>
        <pt x="552" y="893" on="0"/>
        <pt x="460" y="815" on="0"/>
      </contour>
      <contour>
        <pt x="402" y="-8" on="1"/>
        <pt x="232" y="-8" on="0"/>
        <pt x="57" y="182" on="0"/>
        <pt x="57" y="368" on="1"/>
        <pt x="57" y="556" on="0"/>
        <pt x="237" y="750" on="0"/>
        <pt x="412" y="750" on="1"/>
        <pt x="506" y="750" on="0"/>
        <pt x="608" y="723" on="1"/>
        <pt x="608" y="660" on="1"/>
        <pt x="575" y="668" on="0"/>
        <pt x="523" y="678" on="0"/>
        <pt x="478" y="684" on="0"/>
        <pt x="438" y="687" on="0"/>
        <pt x="416" y="687" on="1"/>
        <pt x="273" y="687" on="0"/>
        <pt x="129" y="527" on="0"/>
        <pt x="129" y="369" on="1"/>
        <pt x="129" y="212" on="0"/>
        <pt x="266" y="54" on="0"/>
        <pt x="402" y="54" on="1"/>
        <pt x="430" y="54" on="0"/>
        <pt x="514" y="63" on="0"/>
        <pt x="548" y="70" on="1"/>
        <pt x="548" y="376" on="1"/>
        <pt x="615" y="376" on="1"/>
        <pt x="615" y="27" on="1"/>
        <pt x="591" y="19" on="0"/>
        <pt x="535" y="6" on="0"/>
        <pt x="478" y="-3" on="0"/>
        <pt x="424" y="-8" on="0"/>
      </contour>
    </TTGlyph>
    <TTGlyph name="Gbreve.sc" xMin="57" yMin="-7" xMax="548" yMax="752">
      <contour>
        <pt x="359" y="-7" on="1"/>
        <pt x="210" y="-7" on="0"/>
        <pt x="57" y="141" on="0"/>
        <pt x="57" y="287" on="1"/>
        <pt x="57" y="434" on="0"/>
        <pt x="214" y="585" on="0"/>
        <pt x="368" y="585" on="1"/>
        <pt x="452" y="585" on="0"/>
        <pt x="541" y="564" on="1"/>
        <pt x="541" y="505" on="1"/>
        <pt x="511" y="511" on="0"/>
        <pt x="465" y="519" on="0"/>
        <pt x="426" y="524" on="0"/>
        <pt x="391" y="526" on="0"/>
        <pt x="372" y="526" on="1"/>
        <pt x="128" y="526" on="0"/>
        <pt x="128" y="288" on="1"/>
        <pt x="128" y="53" on="0"/>
        <pt x="359" y="53" on="1"/>
        <pt x="371" y="53" on="0"/>
        <pt x="403" y="55" on="0"/>
        <pt x="438" y="59" on="0"/>
        <pt x="470" y="64" on="0"/>
        <pt x="482" y="67" on="1"/>
        <pt x="482" y="293" on="1"/>
        <pt x="548" y="293" on="1"/>
        <pt x="548" y="22" on="1"/>
        <pt x="527" y="16" on="0"/>
        <pt x="477" y="5" on="0"/>
        <pt x="426" y="-3" on="0"/>
        <pt x="378" y="-7" on="0"/>
      </contour>
      <contour>
        <pt x="331" y="635" on="1"/>
        <pt x="250" y="635" on="0"/>
        <pt x="170" y="700" on="0"/>
        <pt x="170" y="752" on="1"/>
        <pt x="221" y="752" on="1"/>
        <pt x="221" y="717" on="0"/>
        <pt x="277" y="678" on="0"/>
        <pt x="331" y="678" on="1"/>
        <pt x="385" y="678" on="0"/>
        <pt x="439" y="717" on="0"/>
        <pt x="439" y="752" on="1"/>
        <pt x="492" y="752" on="1"/>
        <pt x="492" y="700" on="0"/>
        <pt x="412" y="635" on="0"/>
      </contour>
    </TTGlyph>
    <TTGlyph name="Gcircumflex" xMin="57" yMin="-8" xMax="615" yMax="950">
      <contour>
        <pt x="402" y="-8" on="1"/>
        <pt x="232" y="-8" on="0"/>
        <pt x="57" y="182" on="0"/>
        <pt x="57" y="368" on="1"/>
        <pt x="57" y="556" on="0"/>
        <pt x="237" y="750" on="0"/>
        <pt x="412" y="750" on="1"/>
        <pt x="506" y="750" on="0"/>
        <pt x="608" y="723" on="1"/>
        <pt x="608" y="660" on="1"/>
        <pt x="575" y="668" on="0"/>
        <pt x="523" y="678" on="0"/>
        <pt x="478" y="684" on="0"/>
        <pt x="438" y="687" on="0"/>
        <pt x="416" y="687" on="1"/>
        <pt x="273" y="687" on="0"/>
        <pt x="129" y="527" on="0"/>
        <pt x="129" y="369" on="1"/>
        <pt x="129" y="212" on="0"/>
        <pt x="266" y="54" on="0"/>
        <pt x="402" y="54" on="1"/>
        <pt x="430" y="54" on="0"/>
        <pt x="514" y="63" on="0"/>
        <pt x="548" y="70" on="1"/>
        <pt x="548" y="376" on="1"/>
        <pt x="615" y="376" on="1"/>
        <pt x="615" y="27" on="1"/>
        <pt x="591" y="19" on="0"/>
        <pt x="535" y="6" on="0"/>
        <pt x="478" y="-3" on="0"/>
        <pt x="424" y="-8" on="0"/>
      </contour>
      <contour>
        <pt x="201" y="876" on="1"/>
        <pt x="368" y="950" on="1"/>
        <pt x="535" y="876" on="1"/>
        <pt x="535" y="815" on="1"/>
        <pt x="368" y="889" on="1"/>
        <pt x="201" y="815" on="1"/>
      </contour>
    </TTGlyph>
    <TTGlyph name="Gcircumflex.sc" xMin="57" yMin="-7" xMax="548" yMax="748">
      <contour>
        <pt x="359" y="-7" on="1"/>
        <pt x="210" y="-7" on="0"/>
        <pt x="57" y="141" on="0"/>
        <pt x="57" y="287" on="1"/>
        <pt x="57" y="434" on="0"/>
        <pt x="214" y="585" on="0"/>
        <pt x="368" y="585" on="1"/>
        <pt x="452" y="585" on="0"/>
        <pt x="541" y="564" on="1"/>
        <pt x="541" y="505" on="1"/>
        <pt x="511" y="511" on="0"/>
        <pt x="465" y="519" on="0"/>
        <pt x="426" y="524" on="0"/>
        <pt x="391" y="526" on="0"/>
        <pt x="372" y="526" on="1"/>
        <pt x="128" y="526" on="0"/>
        <pt x="128" y="288" on="1"/>
        <pt x="128" y="53" on="0"/>
        <pt x="359" y="53" on="1"/>
        <pt x="371" y="53" on="0"/>
        <pt x="403" y="55" on="0"/>
        <pt x="438" y="59" on="0"/>
        <pt x="470" y="64" on="0"/>
        <pt x="482" y="67" on="1"/>
        <pt x="482" y="293" on="1"/>
        <pt x="548" y="293" on="1"/>
        <pt x="548" y="22" on="1"/>
        <pt x="527" y="16" on="0"/>
        <pt x="477" y="5" on="0"/>
        <pt x="426" y="-3" on="0"/>
        <pt x="378" y="-7" on="0"/>
      </contour>
      <contour>
        <pt x="180" y="689" on="1"/>
        <pt x="327" y="748" on="1"/>
        <pt x="476" y="689" on="1"/>
        <pt x="476" y="634" on="1"/>
        <pt x="328" y="692" on="1"/>
        <pt x="180" y="634" on="1"/>
      </contour>
    </TTGlyph>
    <TTGlyph name="Gcommaaccent" xMin="57" yMin="-220" xMax="615" yMax="750">
      <contour>
        <pt x="341" y="-70" on="1"/>
        <pt x="415" y="-70" on="1"/>
        <pt x="352" y="-220" on="1"/>
        <pt x="292" y="-220" on="1"/>
      </contour>
      <contour>
        <pt x="402" y="-8" on="1"/>
        <pt x="232" y="-8" on="0"/>
        <pt x="57" y="182" on="0"/>
        <pt x="57" y="368" on="1"/>
        <pt x="57" y="556" on="0"/>
        <pt x="237" y="750" on="0"/>
        <pt x="412" y="750" on="1"/>
        <pt x="506" y="750" on="0"/>
        <pt x="608" y="723" on="1"/>
        <pt x="608" y="660" on="1"/>
        <pt x="575" y="668" on="0"/>
        <pt x="523" y="678" on="0"/>
        <pt x="478" y="684" on="0"/>
        <pt x="438" y="687" on="0"/>
        <pt x="416" y="687" on="1"/>
        <pt x="273" y="687" on="0"/>
        <pt x="129" y="527" on="0"/>
        <pt x="129" y="369" on="1"/>
        <pt x="129" y="212" on="0"/>
        <pt x="266" y="54" on="0"/>
        <pt x="402" y="54" on="1"/>
        <pt x="430" y="54" on="0"/>
        <pt x="514" y="63" on="0"/>
        <pt x="548" y="70" on="1"/>
        <pt x="548" y="376" on="1"/>
        <pt x="615" y="376" on="1"/>
        <pt x="615" y="27" on="1"/>
        <pt x="591" y="19" on="0"/>
        <pt x="535" y="6" on="0"/>
        <pt x="478" y="-3" on="0"/>
        <pt x="424" y="-8" on="0"/>
      </contour>
    </TTGlyph>
    <TTGlyph name="Gcommaaccent.sc" xMin="57" yMin="-172" xMax="548" yMax="585">
      <contour>
        <pt x="359" y="-7" on="1"/>
        <pt x="210" y="-7" on="0"/>
        <pt x="57" y="141" on="0"/>
        <pt x="57" y="287" on="1"/>
        <pt x="57" y="434" on="0"/>
        <pt x="214" y="585" on="0"/>
        <pt x="368" y="585" on="1"/>
        <pt x="452" y="585" on="0"/>
        <pt x="541" y="564" on="1"/>
        <pt x="541" y="505" on="1"/>
        <pt x="511" y="511" on="0"/>
        <pt x="465" y="519" on="0"/>
        <pt x="426" y="524" on="0"/>
        <pt x="391" y="526" on="0"/>
        <pt x="372" y="526" on="1"/>
        <pt x="128" y="526" on="0"/>
        <pt x="128" y="288" on="1"/>
        <pt x="128" y="53" on="0"/>
        <pt x="359" y="53" on="1"/>
        <pt x="371" y="53" on="0"/>
        <pt x="403" y="55" on="0"/>
        <pt x="438" y="59" on="0"/>
        <pt x="470" y="64" on="0"/>
        <pt x="482" y="67" on="1"/>
        <pt x="482" y="293" on="1"/>
        <pt x="548" y="293" on="1"/>
        <pt x="548" y="22" on="1"/>
        <pt x="527" y="16" on="0"/>
        <pt x="477" y="5" on="0"/>
        <pt x="426" y="-3" on="0"/>
        <pt x="378" y="-7" on="0"/>
      </contour>
      <contour>
        <pt x="301" y="-55" on="1"/>
        <pt x="373" y="-55" on="1"/>
        <pt x="317" y="-172" on="1"/>
        <pt x="260" y="-172" on="1"/>
      </contour>
    </TTGlyph>
    <TTGlyph name="Gdotaccent" xMin="57" yMin="-8" xMax="615" yMax="919">
      <contour>
        <pt x="371" y="822" on="1"/>
        <pt x="348" y="822" on="0"/>
        <pt x="322" y="844" on="0"/>
        <pt x="322" y="870" on="1"/>
        <pt x="322" y="919" on="0"/>
        <pt x="371" y="919" on="1"/>
        <pt x="394" y="919" on="0"/>
        <pt x="421" y="896" on="0"/>
        <pt x="421" y="870" on="1"/>
        <pt x="421" y="844" on="0"/>
        <pt x="394" y="822" on="0"/>
      </contour>
      <contour>
        <pt x="402" y="-8" on="1"/>
        <pt x="232" y="-8" on="0"/>
        <pt x="57" y="182" on="0"/>
        <pt x="57" y="368" on="1"/>
        <pt x="57" y="556" on="0"/>
        <pt x="237" y="750" on="0"/>
        <pt x="412" y="750" on="1"/>
        <pt x="506" y="750" on="0"/>
        <pt x="608" y="723" on="1"/>
        <pt x="608" y="660" on="1"/>
        <pt x="575" y="668" on="0"/>
        <pt x="523" y="678" on="0"/>
        <pt x="478" y="684" on="0"/>
        <pt x="438" y="687" on="0"/>
        <pt x="416" y="687" on="1"/>
        <pt x="273" y="687" on="0"/>
        <pt x="129" y="527" on="0"/>
        <pt x="129" y="369" on="1"/>
        <pt x="129" y="212" on="0"/>
        <pt x="266" y="54" on="0"/>
        <pt x="402" y="54" on="1"/>
        <pt x="430" y="54" on="0"/>
        <pt x="514" y="63" on="0"/>
        <pt x="548" y="70" on="1"/>
        <pt x="548" y="376" on="1"/>
        <pt x="615" y="376" on="1"/>
        <pt x="615" y="27" on="1"/>
        <pt x="591" y="19" on="0"/>
        <pt x="535" y="6" on="0"/>
        <pt x="478" y="-3" on="0"/>
        <pt x="424" y="-8" on="0"/>
      </contour>
    </TTGlyph>
    <TTGlyph name="Gdotaccent.sc" xMin="57" yMin="-7" xMax="548" yMax="727">
      <contour>
        <pt x="359" y="-7" on="1"/>
        <pt x="210" y="-7" on="0"/>
        <pt x="57" y="141" on="0"/>
        <pt x="57" y="287" on="1"/>
        <pt x="57" y="434" on="0"/>
        <pt x="214" y="585" on="0"/>
        <pt x="368" y="585" on="1"/>
        <pt x="452" y="585" on="0"/>
        <pt x="541" y="564" on="1"/>
        <pt x="541" y="505" on="1"/>
        <pt x="511" y="511" on="0"/>
        <pt x="465" y="519" on="0"/>
        <pt x="426" y="524" on="0"/>
        <pt x="391" y="526" on="0"/>
        <pt x="372" y="526" on="1"/>
        <pt x="128" y="526" on="0"/>
        <pt x="128" y="288" on="1"/>
        <pt x="128" y="53" on="0"/>
        <pt x="359" y="53" on="1"/>
        <pt x="371" y="53" on="0"/>
        <pt x="403" y="55" on="0"/>
        <pt x="438" y="59" on="0"/>
        <pt x="470" y="64" on="0"/>
        <pt x="482" y="67" on="1"/>
        <pt x="482" y="293" on="1"/>
        <pt x="548" y="293" on="1"/>
        <pt x="548" y="22" on="1"/>
        <pt x="527" y="16" on="0"/>
        <pt x="477" y="5" on="0"/>
        <pt x="426" y="-3" on="0"/>
        <pt x="378" y="-7" on="0"/>
      </contour>
      <contour>
        <pt x="332" y="640" on="1"/>
        <pt x="310" y="640" on="0"/>
        <pt x="286" y="660" on="0"/>
        <pt x="286" y="684" on="1"/>
        <pt x="286" y="727" on="0"/>
        <pt x="332" y="727" on="1"/>
        <pt x="354" y="727" on="0"/>
        <pt x="379" y="707" on="0"/>
        <pt x="379" y="684" on="1"/>
        <pt x="379" y="661" on="0"/>
        <pt x="354" y="640" on="0"/>
      </contour>
    </TTGlyph>
    <TTGlyph name="H" xMin="99" yMin="0" xMax="702" yMax="740">
      <contour>
        <pt x="99" y="740" on="1"/>
        <pt x="169" y="740" on="1"/>
        <pt x="169" y="410" on="1"/>
        <pt x="632" y="410" on="1"/>
        <pt x="632" y="740" on="1"/>
        <pt x="702" y="740" on="1"/>
        <pt x="702" y="0" on="1"/>
        <pt x="632" y="0" on="1"/>
        <pt x="632" y="350" on="1"/>
        <pt x="169" y="350" on="1"/>
        <pt x="169" y="0" on="1"/>
        <pt x="99" y="0" on="1"/>
      </contour>
    </TTGlyph>
    <TTGlyph name="H.sc" xMin="93" yMin="0" xMax="626" yMax="577">
      <contour>
        <pt x="93" y="577" on="1"/>
        <pt x="162" y="577" on="1"/>
        <pt x="162" y="324" on="1"/>
        <pt x="557" y="324" on="1"/>
        <pt x="557" y="577" on="1"/>
        <pt x="626" y="577" on="1"/>
        <pt x="626" y="0" on="1"/>
        <pt x="557" y="0" on="1"/>
        <pt x="557" y="269" on="1"/>
        <pt x="162" y="269" on="1"/>
        <pt x="162" y="0" on="1"/>
        <pt x="93" y="0" on="1"/>
      </contour>
    </TTGlyph>
    <TTGlyph name="Hbar" xMin="9" yMin="0" xMax="802" yMax="740">
      <contour>
        <pt x="9" y="594" on="1"/>
        <pt x="104" y="594" on="1"/>
        <pt x="104" y="740" on="1"/>
        <pt x="174" y="740" on="1"/>
        <pt x="174" y="594" on="1"/>
        <pt x="637" y="594" on="1"/>
        <pt x="637" y="740" on="1"/>
        <pt x="707" y="740" on="1"/>
        <pt x="707" y="594" on="1"/>
        <pt x="802" y="594" on="1"/>
        <pt x="802" y="547" on="1"/>
        <pt x="707" y="547" on="1"/>
        <pt x="707" y="0" on="1"/>
        <pt x="637" y="0" on="1"/>
        <pt x="637" y="350" on="1"/>
        <pt x="174" y="350" on="1"/>
        <pt x="174" y="0" on="1"/>
        <pt x="104" y="0" on="1"/>
        <pt x="104" y="547" on="1"/>
        <pt x="9" y="547" on="1"/>
      </contour>
      <contour>
        <pt x="637" y="410" on="1"/>
        <pt x="637" y="547" on="1"/>
        <pt x="174" y="547" on="1"/>
        <pt x="174" y="410" on="1"/>
      </contour>
    </TTGlyph>
    <TTGlyph name="Hbar.sc" xMin="18" yMin="0" xMax="711" yMax="577">
      <contour>
        <pt x="18" y="467" on="1"/>
        <pt x="98" y="467" on="1"/>
        <pt x="98" y="577" on="1"/>
        <pt x="166" y="577" on="1"/>
        <pt x="166" y="467" on="1"/>
        <pt x="561" y="467" on="1"/>
        <pt x="561" y="577" on="1"/>
        <pt x="630" y="577" on="1"/>
        <pt x="630" y="467" on="1"/>
        <pt x="711" y="467" on="1"/>
        <pt x="711" y="426" on="1"/>
        <pt x="630" y="426" on="1"/>
        <pt x="630" y="0" on="1"/>
        <pt x="561" y="0" on="1"/>
        <pt x="561" y="265" on="1"/>
        <pt x="166" y="265" on="1"/>
        <pt x="166" y="0" on="1"/>
        <pt x="98" y="0" on="1"/>
        <pt x="98" y="426" on="1"/>
        <pt x="18" y="426" on="1"/>
      </contour>
      <contour>
        <pt x="561" y="321" on="1"/>
        <pt x="561" y="426" on="1"/>
        <pt x="166" y="426" on="1"/>
        <pt x="166" y="321" on="1"/>
      </contour>
    </TTGlyph>
    <TTGlyph name="Hcircumflex" xMin="99" yMin="0" xMax="702" yMax="950">
      <contour>
        <pt x="99" y="740" on="1"/>
        <pt x="169" y="740" on="1"/>
        <pt x="169" y="410" on="1"/>
        <pt x="632" y="410" on="1"/>
        <pt x="632" y="740" on="1"/>
        <pt x="702" y="740" on="1"/>
        <pt x="702" y="0" on="1"/>
        <pt x="632" y="0" on="1"/>
        <pt x="632" y="350" on="1"/>
        <pt x="169" y="350" on="1"/>
        <pt x="169" y="0" on="1"/>
        <pt x="99" y="0" on="1"/>
      </contour>
      <contour>
        <pt x="228" y="876" on="1"/>
        <pt x="395" y="950" on="1"/>
        <pt x="562" y="876" on="1"/>
        <pt x="562" y="815" on="1"/>
        <pt x="395" y="889" on="1"/>
        <pt x="228" y="815" on="1"/>
      </contour>
    </TTGlyph>
    <TTGlyph name="Hcircumflex.sc" xMin="93" yMin="0" xMax="626" yMax="748">
      <contour>
        <pt x="93" y="577" on="1"/>
        <pt x="162" y="577" on="1"/>
        <pt x="162" y="324" on="1"/>
        <pt x="557" y="324" on="1"/>
        <pt x="557" y="577" on="1"/>
        <pt x="626" y="577" on="1"/>
        <pt x="626" y="0" on="1"/>
        <pt x="557" y="0" on="1"/>
        <pt x="557" y="269" on="1"/>
        <pt x="162" y="269" on="1"/>
        <pt x="162" y="0" on="1"/>
        <pt x="93" y="0" on="1"/>
      </contour>
      <contour>
        <pt x="207" y="689" on="1"/>
        <pt x="354" y="748" on="1"/>
        <pt x="503" y="689" on="1"/>
        <pt x="503" y="634" on="1"/>
        <pt x="355" y="692" on="1"/>
        <pt x="207" y="634" on="1"/>
      </contour>
    </TTGlyph>
    <TTGlyph name="Hdotbelow" xMin="99" yMin="-179" xMax="702" yMax="740">
      <contour>
        <pt x="99" y="740" on="1"/>
        <pt x="169" y="740" on="1"/>
        <pt x="169" y="410" on="1"/>
        <pt x="632" y="410" on="1"/>
        <pt x="632" y="740" on="1"/>
        <pt x="702" y="740" on="1"/>
        <pt x="702" y="0" on="1"/>
        <pt x="632" y="0" on="1"/>
        <pt x="632" y="350" on="1"/>
        <pt x="169" y="350" on="1"/>
        <pt x="169" y="0" on="1"/>
        <pt x="99" y="0" on="1"/>
      </contour>
      <contour>
        <pt x="410" y="-179" on="1"/>
        <pt x="387" y="-179" on="0"/>
        <pt x="363" y="-158" on="0"/>
        <pt x="363" y="-133" on="1"/>
        <pt x="363" y="-86" on="0"/>
        <pt x="410" y="-86" on="1"/>
        <pt x="433" y="-86" on="0"/>
        <pt x="458" y="-107" on="0"/>
        <pt x="458" y="-133" on="1"/>
        <pt x="458" y="-159" on="0"/>
        <pt x="433" y="-179" on="0"/>
      </contour>
    </TTGlyph>
    <TTGlyph name="Hdotbelow.sc" xMin="93" yMin="-144" xMax="626" yMax="577">
      <contour>
        <pt x="93" y="577" on="1"/>
        <pt x="162" y="577" on="1"/>
        <pt x="162" y="324" on="1"/>
        <pt x="557" y="324" on="1"/>
        <pt x="557" y="577" on="1"/>
        <pt x="626" y="577" on="1"/>
        <pt x="626" y="0" on="1"/>
        <pt x="557" y="0" on="1"/>
        <pt x="557" y="269" on="1"/>
        <pt x="162" y="269" on="1"/>
        <pt x="162" y="0" on="1"/>
        <pt x="93" y="0" on="1"/>
      </contour>
      <contour>
        <pt x="367" y="-144" on="1"/>
        <pt x="325" y="-144" on="0"/>
        <pt x="325" y="-104" on="1"/>
        <pt x="325" y="-63" on="0"/>
        <pt x="367" y="-63" on="1"/>
        <pt x="410" y="-63" on="0"/>
        <pt x="410" y="-104" on="1"/>
        <pt x="410" y="-144" on="0"/>
      </contour>
    </TTGlyph>
    <TTGlyph name="I" xMin="99" yMin="0" xMax="169" yMax="740">
      <contour>
        <pt x="99" y="740" on="1"/>
        <pt x="169" y="740" on="1"/>
        <pt x="169" y="0" on="1"/>
        <pt x="99" y="0" on="1"/>
      </contour>
    </TTGlyph>
    <TTGlyph name="I.sc" xMin="93" yMin="0" xMax="162" yMax="577">
      <contour>
        <pt x="93" y="577" on="1"/>
        <pt x="162" y="577" on="1"/>
        <pt x="162" y="0" on="1"/>
        <pt x="93" y="0" on="1"/>
      </contour>
    </TTGlyph>
    <TTGlyph name="IJ" xMin="99" yMin="-185" xMax="439" yMax="740">
      <contour>
        <pt x="99" y="740" on="1"/>
        <pt x="169" y="740" on="1"/>
        <pt x="169" y="0" on="1"/>
        <pt x="99" y="0" on="1"/>
      </contour>
      <contour>
        <pt x="290" y="-160" on="1"/>
        <pt x="312" y="-114" on="0"/>
        <pt x="343" y="-33" on="0"/>
        <pt x="361" y="48" on="0"/>
        <pt x="369" y="133" on="0"/>
        <pt x="369" y="184" on="1"/>
        <pt x="369" y="740" on="1"/>
        <pt x="439" y="740" on="1"/>
        <pt x="439" y="181" on="1"/>
        <pt x="439" y="131" on="0"/>
        <pt x="430" y="46" on="0"/>
        <pt x="407" y="-38" on="0"/>
        <pt x="369" y="-128" on="0"/>
        <pt x="341" y="-185" on="1"/>
      </contour>
    </TTGlyph>
    <TTGlyph name="Iacute" xMin="99" yMin="0" xMax="250" yMax="944">
      <contour>
        <pt x="99" y="740" on="1"/>
        <pt x="169" y="740" on="1"/>
        <pt x="169" y="0" on="1"/>
        <pt x="99" y="0" on="1"/>
      </contour>
      <contour>
        <pt x="100" y="811" on="1"/>
        <pt x="176" y="944" on="1"/>
        <pt x="250" y="944" on="1"/>
        <pt x="156" y="805" on="1"/>
      </contour>
    </TTGlyph>
    <TTGlyph name="Iacute.sc" xMin="93" yMin="0" xMax="231" yMax="742">
      <contour>
        <pt x="93" y="577" on="1"/>
        <pt x="162" y="577" on="1"/>
        <pt x="162" y="0" on="1"/>
        <pt x="93" y="0" on="1"/>
      </contour>
      <contour>
        <pt x="95" y="634" on="1"/>
        <pt x="161" y="742" on="1"/>
        <pt x="231" y="742" on="1"/>
        <pt x="150" y="629" on="1"/>
      </contour>
    </TTGlyph>
    <TTGlyph name="Ibreve" xMin="-48" yMin="0" xMax="316" yMax="958">
      <contour>
        <pt x="99" y="740" on="1"/>
        <pt x="169" y="740" on="1"/>
        <pt x="169" y="0" on="1"/>
        <pt x="99" y="0" on="1"/>
      </contour>
      <contour>
        <pt x="133" y="815" on="1"/>
        <pt x="43" y="815" on="0"/>
        <pt x="-48" y="893" on="0"/>
        <pt x="-48" y="958" on="1"/>
        <pt x="7" y="958" on="1"/>
        <pt x="7" y="913" on="0"/>
        <pt x="72" y="862" on="0"/>
        <pt x="133" y="862" on="1"/>
        <pt x="196" y="862" on="0"/>
        <pt x="260" y="913" on="0"/>
        <pt x="260" y="958" on="1"/>
        <pt x="316" y="958" on="1"/>
        <pt x="316" y="893" on="0"/>
        <pt x="224" y="815" on="0"/>
      </contour>
    </TTGlyph>
    <TTGlyph name="Ibreve.sc" xMin="-34" yMin="0" xMax="289" yMax="752">
      <contour>
        <pt x="93" y="577" on="1"/>
        <pt x="162" y="577" on="1"/>
        <pt x="162" y="0" on="1"/>
        <pt x="93" y="0" on="1"/>
      </contour>
      <contour>
        <pt x="127" y="635" on="1"/>
        <pt x="46" y="635" on="0"/>
        <pt x="-34" y="700" on="0"/>
        <pt x="-34" y="752" on="1"/>
        <pt x="18" y="752" on="1"/>
        <pt x="18" y="717" on="0"/>
        <pt x="73" y="678" on="0"/>
        <pt x="127" y="678" on="1"/>
        <pt x="181" y="678" on="0"/>
        <pt x="237" y="717" on="0"/>
        <pt x="237" y="752" on="1"/>
        <pt x="289" y="752" on="1"/>
        <pt x="289" y="700" on="0"/>
        <pt x="208" y="635" on="0"/>
      </contour>
    </TTGlyph>
    <TTGlyph name="Icircumflex" xMin="-32" yMin="0" xMax="302" yMax="950">
      <contour>
        <pt x="99" y="740" on="1"/>
        <pt x="169" y="740" on="1"/>
        <pt x="169" y="0" on="1"/>
        <pt x="99" y="0" on="1"/>
      </contour>
      <contour>
        <pt x="-32" y="876" on="1"/>
        <pt x="135" y="950" on="1"/>
        <pt x="302" y="876" on="1"/>
        <pt x="302" y="815" on="1"/>
        <pt x="135" y="889" on="1"/>
        <pt x="-32" y="815" on="1"/>
      </contour>
    </TTGlyph>
    <TTGlyph name="Icircumflex.sc" xMin="-19" yMin="0" xMax="276" yMax="748">
      <contour>
        <pt x="93" y="577" on="1"/>
        <pt x="162" y="577" on="1"/>
        <pt x="162" y="0" on="1"/>
        <pt x="93" y="0" on="1"/>
      </contour>
      <contour>
        <pt x="-19" y="689" on="1"/>
        <pt x="128" y="748" on="1"/>
        <pt x="276" y="689" on="1"/>
        <pt x="276" y="634" on="1"/>
        <pt x="129" y="692" on="1"/>
        <pt x="-19" y="634" on="1"/>
      </contour>
    </TTGlyph>
    <TTGlyph name="Idblgrave" xMin="-58" yMin="0" xMax="241" yMax="936">
      <contour>
        <pt x="99" y="740" on="1"/>
        <pt x="169" y="740" on="1"/>
        <pt x="169" y="0" on="1"/>
        <pt x="99" y="0" on="1"/>
      </contour>
      <contour>
        <pt x="36" y="796" on="1"/>
        <pt x="-58" y="936" on="1"/>
        <pt x="16" y="936" on="1"/>
        <pt x="91" y="810" on="1"/>
      </contour>
      <contour>
        <pt x="186" y="796" on="1"/>
        <pt x="92" y="936" on="1"/>
        <pt x="165" y="936" on="1"/>
        <pt x="241" y="810" on="1"/>
      </contour>
    </TTGlyph>
    <TTGlyph name="Idblgrave.sc" xMin="-43" yMin="0" xMax="226" yMax="736">
      <contour>
        <pt x="93" y="577" on="1"/>
        <pt x="162" y="577" on="1"/>
        <pt x="162" y="0" on="1"/>
        <pt x="93" y="0" on="1"/>
      </contour>
      <contour>
        <pt x="39" y="622" on="1"/>
        <pt x="-43" y="736" on="1"/>
        <pt x="27" y="736" on="1"/>
        <pt x="92" y="633" on="1"/>
      </contour>
      <contour>
        <pt x="173" y="622" on="1"/>
        <pt x="91" y="736" on="1"/>
        <pt x="162" y="736" on="1"/>
        <pt x="226" y="633" on="1"/>
      </contour>
    </TTGlyph>
    <TTGlyph name="Idieresis" xMin="-52" yMin="0" xMax="323" yMax="924">
      <contour>
        <pt x="99" y="740" on="1"/>
        <pt x="169" y="740" on="1"/>
        <pt x="169" y="0" on="1"/>
        <pt x="99" y="0" on="1"/>
      </contour>
      <contour>
        <pt x="-3" y="827" on="1"/>
        <pt x="-52" y="827" on="0"/>
        <pt x="-52" y="876" on="1"/>
        <pt x="-52" y="924" on="0"/>
        <pt x="-3" y="924" on="1"/>
        <pt x="20" y="924" on="0"/>
        <pt x="47" y="901" on="0"/>
        <pt x="47" y="876" on="1"/>
        <pt x="47" y="850" on="0"/>
        <pt x="20" y="827" on="0"/>
      </contour>
      <contour>
        <pt x="273" y="827" on="1"/>
        <pt x="224" y="827" on="0"/>
        <pt x="224" y="876" on="1"/>
        <pt x="224" y="924" on="0"/>
        <pt x="273" y="924" on="1"/>
        <pt x="296" y="924" on="0"/>
        <pt x="323" y="901" on="0"/>
        <pt x="323" y="876" on="1"/>
        <pt x="323" y="850" on="0"/>
        <pt x="296" y="827" on="0"/>
      </contour>
    </TTGlyph>
    <TTGlyph name="Idieresis.sc" xMin="-39" yMin="0" xMax="296" yMax="731">
      <contour>
        <pt x="93" y="577" on="1"/>
        <pt x="162" y="577" on="1"/>
        <pt x="162" y="0" on="1"/>
        <pt x="93" y="0" on="1"/>
      </contour>
      <contour>
        <pt x="8" y="643" on="1"/>
        <pt x="-39" y="643" on="0"/>
        <pt x="-39" y="687" on="1"/>
        <pt x="-39" y="731" on="0"/>
        <pt x="8" y="731" on="1"/>
        <pt x="29" y="731" on="0"/>
        <pt x="54" y="710" on="0"/>
        <pt x="54" y="687" on="1"/>
        <pt x="54" y="664" on="0"/>
        <pt x="29" y="643" on="0"/>
      </contour>
      <contour>
        <pt x="250" y="643" on="1"/>
        <pt x="205" y="643" on="0"/>
        <pt x="205" y="687" on="1"/>
        <pt x="205" y="731" on="0"/>
        <pt x="250" y="731" on="1"/>
        <pt x="296" y="731" on="0"/>
        <pt x="296" y="687" on="1"/>
        <pt x="296" y="643" on="0"/>
      </contour>
    </TTGlyph>
    <TTGlyph name="Idotaccent" xMin="86" yMin="0" xMax="185" yMax="919">
      <contour>
        <pt x="99" y="740" on="1"/>
        <pt x="169" y="740" on="1"/>
        <pt x="169" y="0" on="1"/>
        <pt x="99" y="0" on="1"/>
      </contour>
      <contour>
        <pt x="135" y="822" on="1"/>
        <pt x="112" y="822" on="0"/>
        <pt x="86" y="844" on="0"/>
        <pt x="86" y="870" on="1"/>
        <pt x="86" y="919" on="0"/>
        <pt x="135" y="919" on="1"/>
        <pt x="158" y="919" on="0"/>
        <pt x="185" y="896" on="0"/>
        <pt x="185" y="870" on="1"/>
        <pt x="185" y="844" on="0"/>
        <pt x="158" y="822" on="0"/>
      </contour>
    </TTGlyph>
    <TTGlyph name="Idotaccent.sc" xMin="82" yMin="0" xMax="175" yMax="727">
      <contour>
        <pt x="93" y="577" on="1"/>
        <pt x="162" y="577" on="1"/>
        <pt x="162" y="0" on="1"/>
        <pt x="93" y="0" on="1"/>
      </contour>
      <contour>
        <pt x="128" y="640" on="1"/>
        <pt x="105" y="640" on="0"/>
        <pt x="82" y="660" on="0"/>
        <pt x="82" y="684" on="1"/>
        <pt x="82" y="727" on="0"/>
        <pt x="128" y="727" on="1"/>
        <pt x="150" y="727" on="0"/>
        <pt x="175" y="707" on="0"/>
        <pt x="175" y="684" on="1"/>
        <pt x="175" y="661" on="0"/>
        <pt x="150" y="640" on="0"/>
      </contour>
    </TTGlyph>
    <TTGlyph name="Idotbelow" xMin="87" yMin="-179" xMax="182" yMax="740">
      <contour>
        <pt x="99" y="740" on="1"/>
        <pt x="169" y="740" on="1"/>
        <pt x="169" y="0" on="1"/>
        <pt x="99" y="0" on="1"/>
      </contour>
      <contour>
        <pt x="134" y="-179" on="1"/>
        <pt x="111" y="-179" on="0"/>
        <pt x="87" y="-158" on="0"/>
        <pt x="87" y="-133" on="1"/>
        <pt x="87" y="-86" on="0"/>
        <pt x="134" y="-86" on="1"/>
        <pt x="157" y="-86" on="0"/>
        <pt x="182" y="-107" on="0"/>
        <pt x="182" y="-133" on="1"/>
        <pt x="182" y="-159" on="0"/>
        <pt x="157" y="-179" on="0"/>
      </contour>
    </TTGlyph>
    <TTGlyph name="Idotbelow.sc" xMin="86" yMin="-144" xMax="172" yMax="577">
      <contour>
        <pt x="93" y="577" on="1"/>
        <pt x="162" y="577" on="1"/>
        <pt x="162" y="0" on="1"/>
        <pt x="93" y="0" on="1"/>
      </contour>
      <contour>
        <pt x="128" y="-144" on="1"/>
        <pt x="86" y="-144" on="0"/>
        <pt x="86" y="-104" on="1"/>
        <pt x="86" y="-63" on="0"/>
        <pt x="128" y="-63" on="1"/>
        <pt x="172" y="-63" on="0"/>
        <pt x="172" y="-104" on="1"/>
        <pt x="172" y="-144" on="0"/>
      </contour>
    </TTGlyph>
    <TTGlyph name="Igrave" xMin="20" yMin="0" xMax="170" yMax="944">
      <contour>
        <pt x="99" y="740" on="1"/>
        <pt x="169" y="740" on="1"/>
        <pt x="169" y="0" on="1"/>
        <pt x="99" y="0" on="1"/>
      </contour>
      <contour>
        <pt x="114" y="805" on="1"/>
        <pt x="20" y="944" on="1"/>
        <pt x="94" y="944" on="1"/>
        <pt x="170" y="818" on="1"/>
      </contour>
    </TTGlyph>
    <TTGlyph name="Igrave.sc" xMin="26" yMin="0" xMax="162" yMax="742">
      <contour>
        <pt x="93" y="577" on="1"/>
        <pt x="162" y="577" on="1"/>
        <pt x="162" y="0" on="1"/>
        <pt x="93" y="0" on="1"/>
      </contour>
      <contour>
        <pt x="108" y="629" on="1"/>
        <pt x="26" y="742" on="1"/>
        <pt x="98" y="742" on="1"/>
        <pt x="162" y="639" on="1"/>
      </contour>
    </TTGlyph>
    <TTGlyph name="Iinvertedbreve" xMin="-47" yMin="0" xMax="317" yMax="960">
      <contour>
        <pt x="99" y="740" on="1"/>
        <pt x="169" y="740" on="1"/>
        <pt x="169" y="0" on="1"/>
        <pt x="99" y="0" on="1"/>
      </contour>
      <contour>
        <pt x="262" y="817" on="1"/>
        <pt x="262" y="862" on="0"/>
        <pt x="197" y="913" on="0"/>
        <pt x="135" y="913" on="1"/>
        <pt x="73" y="913" on="0"/>
        <pt x="8" y="862" on="0"/>
        <pt x="8" y="817" on="1"/>
        <pt x="-47" y="817" on="1"/>
        <pt x="-47" y="883" on="0"/>
        <pt x="44" y="960" on="0"/>
        <pt x="135" y="960" on="1"/>
        <pt x="226" y="960" on="0"/>
        <pt x="317" y="883" on="0"/>
        <pt x="317" y="817" on="1"/>
      </contour>
    </TTGlyph>
    <TTGlyph name="Iinvertedbreve.sc" xMin="-33" yMin="0" xMax="290" yMax="754">
      <contour>
        <pt x="93" y="577" on="1"/>
        <pt x="162" y="577" on="1"/>
        <pt x="162" y="0" on="1"/>
        <pt x="93" y="0" on="1"/>
      </contour>
      <contour>
        <pt x="238" y="637" on="1"/>
        <pt x="238" y="672" on="0"/>
        <pt x="183" y="711" on="0"/>
        <pt x="129" y="711" on="1"/>
        <pt x="75" y="711" on="0"/>
        <pt x="19" y="672" on="0"/>
        <pt x="19" y="637" on="1"/>
        <pt x="-33" y="637" on="1"/>
        <pt x="-33" y="689" on="0"/>
        <pt x="47" y="754" on="0"/>
        <pt x="129" y="754" on="1"/>
        <pt x="210" y="754" on="0"/>
        <pt x="290" y="690" on="0"/>
        <pt x="290" y="637" on="1"/>
      </contour>
    </TTGlyph>
    <TTGlyph name="Imacron" xMin="-28" yMin="0" xMax="301" yMax="897">
      <contour>
        <pt x="99" y="740" on="1"/>
        <pt x="169" y="740" on="1"/>
        <pt x="169" y="0" on="1"/>
        <pt x="99" y="0" on="1"/>
      </contour>
      <contour>
        <pt x="-28" y="897" on="1"/>
        <pt x="301" y="897" on="1"/>
        <pt x="301" y="842" on="1"/>
        <pt x="-28" y="842" on="1"/>
      </contour>
    </TTGlyph>
    <TTGlyph name="Imacron.sc" xMin="-16" yMin="0" xMax="277" yMax="708">
      <contour>
        <pt x="93" y="577" on="1"/>
        <pt x="162" y="577" on="1"/>
        <pt x="162" y="0" on="1"/>
        <pt x="93" y="0" on="1"/>
      </contour>
      <contour>
        <pt x="-16" y="708" on="1"/>
        <pt x="277" y="708" on="1"/>
        <pt x="277" y="657" on="1"/>
        <pt x="-16" y="657" on="1"/>
      </contour>
    </TTGlyph>
    <TTGlyph name="Iogonek" xMin="-8" yMin="-220" xMax="169" yMax="740">
      <contour>
        <pt x="99" y="740" on="1"/>
        <pt x="169" y="740" on="1"/>
        <pt x="169" y="-20" on="1"/>
        <pt x="103" y="-52" on="0"/>
        <pt x="45" y="-108" on="0"/>
        <pt x="45" y="-138" on="1"/>
        <pt x="45" y="-174" on="0"/>
        <pt x="95" y="-174" on="1"/>
        <pt x="109" y="-174" on="0"/>
        <pt x="148" y="-169" on="0"/>
        <pt x="167" y="-164" on="1"/>
        <pt x="167" y="-208" on="1"/>
        <pt x="153" y="-214" on="0"/>
        <pt x="112" y="-220" on="0"/>
        <pt x="91" y="-220" on="1"/>
        <pt x="40" y="-220" on="0"/>
        <pt x="-8" y="-182" on="0"/>
        <pt x="-8" y="-141" on="1"/>
        <pt x="-8" y="-122" on="0"/>
        <pt x="4" y="-87" on="0"/>
        <pt x="32" y="-54" on="0"/>
        <pt x="78" y="-20" on="0"/>
        <pt x="111" y="0" on="1"/>
        <pt x="99" y="0" on="1"/>
      </contour>
    </TTGlyph>
    <TTGlyph name="Iogonek.sc" xMin="4" yMin="-172" xMax="162" yMax="577">
      <contour>
        <pt x="93" y="577" on="1"/>
        <pt x="162" y="577" on="1"/>
        <pt x="162" y="-15" on="1"/>
        <pt x="108" y="-37" on="0"/>
        <pt x="54" y="-76" on="0"/>
        <pt x="54" y="-102" on="1"/>
        <pt x="54" y="-119" on="0"/>
        <pt x="76" y="-131" on="0"/>
        <pt x="96" y="-131" on="1"/>
        <pt x="110" y="-131" on="0"/>
        <pt x="147" y="-126" on="0"/>
        <pt x="161" y="-122" on="1"/>
        <pt x="161" y="-162" on="1"/>
        <pt x="147" y="-167" on="0"/>
        <pt x="110" y="-172" on="0"/>
        <pt x="92" y="-172" on="1"/>
        <pt x="4" y="-172" on="0"/>
        <pt x="4" y="-109" on="1"/>
        <pt x="4" y="-94" on="0"/>
        <pt x="13" y="-68" on="0"/>
        <pt x="36" y="-43" on="0"/>
        <pt x="73" y="-16" on="0"/>
        <pt x="102" y="0" on="1"/>
        <pt x="93" y="0" on="1"/>
      </contour>
    </TTGlyph>
    <TTGlyph name="Itilde" xMin="-65" yMin="0" xMax="358" yMax="932">
      <contour>
        <pt x="99" y="740" on="1"/>
        <pt x="169" y="740" on="1"/>
        <pt x="169" y="0" on="1"/>
        <pt x="99" y="0" on="1"/>
      </contour>
      <contour>
        <pt x="-65" y="867" on="1"/>
        <pt x="-35" y="900" on="0"/>
        <pt x="30" y="932" on="0"/>
        <pt x="62" y="932" on="1"/>
        <pt x="87" y="932" on="0"/>
        <pt x="130" y="919" on="0"/>
        <pt x="171" y="903" on="0"/>
        <pt x="213" y="890" on="0"/>
        <pt x="236" y="890" on="1"/>
        <pt x="286" y="890" on="0"/>
        <pt x="334" y="928" on="1"/>
        <pt x="358" y="901" on="1"/>
        <pt x="330" y="869" on="0"/>
        <pt x="260" y="836" on="0"/>
        <pt x="224" y="836" on="1"/>
        <pt x="202" y="836" on="0"/>
        <pt x="159" y="849" on="0"/>
        <pt x="117" y="864" on="0"/>
        <pt x="75" y="877" on="0"/>
        <pt x="54" y="877" on="1"/>
        <pt x="30" y="877" on="0"/>
        <pt x="-16" y="860" on="0"/>
        <pt x="-41" y="840" on="1"/>
      </contour>
    </TTGlyph>
    <TTGlyph name="Itilde.sc" xMin="-49" yMin="0" xMax="324" yMax="734">
      <contour>
        <pt x="93" y="577" on="1"/>
        <pt x="162" y="577" on="1"/>
        <pt x="162" y="0" on="1"/>
        <pt x="93" y="0" on="1"/>
      </contour>
      <contour>
        <pt x="-49" y="676" on="1"/>
        <pt x="-23" y="705" on="0"/>
        <pt x="34" y="734" on="0"/>
        <pt x="63" y="734" on="1"/>
        <pt x="85" y="734" on="0"/>
        <pt x="123" y="724" on="0"/>
        <pt x="160" y="712" on="0"/>
        <pt x="197" y="702" on="0"/>
        <pt x="217" y="702" on="1"/>
        <pt x="262" y="702" on="0"/>
        <pt x="304" y="731" on="1"/>
        <pt x="324" y="709" on="1"/>
        <pt x="299" y="681" on="0"/>
        <pt x="237" y="652" on="0"/>
        <pt x="206" y="652" on="1"/>
        <pt x="186" y="652" on="0"/>
        <pt x="148" y="662" on="0"/>
        <pt x="110" y="673" on="0"/>
        <pt x="73" y="683" on="0"/>
        <pt x="54" y="683" on="1"/>
        <pt x="33" y="683" on="0"/>
        <pt x="-7" y="671" on="0"/>
        <pt x="-29" y="654" on="1"/>
      </contour>
    </TTGlyph>
    <TTGlyph name="J" xMin="22" yMin="-185" xMax="171" yMax="740">
      <contour>
        <pt x="22" y="-160" on="1"/>
        <pt x="44" y="-114" on="0"/>
        <pt x="75" y="-33" on="0"/>
        <pt x="93" y="48" on="0"/>
        <pt x="101" y="133" on="0"/>
        <pt x="101" y="184" on="1"/>
        <pt x="101" y="740" on="1"/>
        <pt x="171" y="740" on="1"/>
        <pt x="171" y="181" on="1"/>
        <pt x="171" y="131" on="0"/>
        <pt x="162" y="46" on="0"/>
        <pt x="139" y="-38" on="0"/>
        <pt x="101" y="-128" on="0"/>
        <pt x="73" y="-185" on="1"/>
      </contour>
    </TTGlyph>
    <TTGlyph name="J.sc" xMin="28" yMin="-147" xMax="164" yMax="577">
      <contour>
        <pt x="28" y="-124" on="1"/>
        <pt x="47" y="-88" on="0"/>
        <pt x="73" y="-25" on="0"/>
        <pt x="88" y="38" on="0"/>
        <pt x="95" y="105" on="0"/>
        <pt x="95" y="145" on="1"/>
        <pt x="95" y="577" on="1"/>
        <pt x="164" y="577" on="1"/>
        <pt x="164" y="142" on="1"/>
        <pt x="164" y="102" on="0"/>
        <pt x="156" y="35" on="0"/>
        <pt x="136" y="-31" on="0"/>
        <pt x="102" y="-102" on="0"/>
        <pt x="77" y="-147" on="1"/>
      </contour>
    </TTGlyph>
    <TTGlyph name="Jcircumflex" xMin="-28" yMin="-185" xMax="306" yMax="950">
      <contour>
        <pt x="22" y="-160" on="1"/>
        <pt x="44" y="-114" on="0"/>
        <pt x="75" y="-33" on="0"/>
        <pt x="93" y="48" on="0"/>
        <pt x="101" y="133" on="0"/>
        <pt x="101" y="184" on="1"/>
        <pt x="101" y="740" on="1"/>
        <pt x="171" y="740" on="1"/>
        <pt x="171" y="181" on="1"/>
        <pt x="171" y="131" on="0"/>
        <pt x="162" y="46" on="0"/>
        <pt x="139" y="-38" on="0"/>
        <pt x="101" y="-128" on="0"/>
        <pt x="73" y="-185" on="1"/>
      </contour>
      <contour>
        <pt x="-28" y="876" on="1"/>
        <pt x="139" y="950" on="1"/>
        <pt x="306" y="876" on="1"/>
        <pt x="306" y="815" on="1"/>
        <pt x="139" y="889" on="1"/>
        <pt x="-28" y="815" on="1"/>
      </contour>
    </TTGlyph>
    <TTGlyph name="Jcircumflex.sc" xMin="-17" yMin="-147" xMax="279" yMax="748">
      <contour>
        <pt x="27" y="-124" on="1"/>
        <pt x="46" y="-88" on="0"/>
        <pt x="72" y="-25" on="0"/>
        <pt x="87" y="38" on="0"/>
        <pt x="94" y="105" on="0"/>
        <pt x="94" y="145" on="1"/>
        <pt x="94" y="577" on="1"/>
        <pt x="163" y="577" on="1"/>
        <pt x="163" y="142" on="1"/>
        <pt x="163" y="102" on="0"/>
        <pt x="155" y="35" on="0"/>
        <pt x="135" y="-31" on="0"/>
        <pt x="101" y="-102" on="0"/>
        <pt x="76" y="-147" on="1"/>
      </contour>
      <contour>
        <pt x="-17" y="689" on="1"/>
        <pt x="131" y="748" on="1"/>
        <pt x="279" y="689" on="1"/>
        <pt x="279" y="634" on="1"/>
        <pt x="131" y="692" on="1"/>
        <pt x="-17" y="634" on="1"/>
      </contour>
    </TTGlyph>
    <TTGlyph name="K" xMin="99" yMin="0" xMax="677" yMax="740">
      <contour>
        <pt x="99" y="740" on="1"/>
        <pt x="169" y="740" on="1"/>
        <pt x="169" y="408" on="1"/>
        <pt x="341" y="408" on="1"/>
        <pt x="578" y="740" on="1"/>
        <pt x="660" y="740" on="1"/>
        <pt x="421" y="409" on="1"/>
        <pt x="391" y="384" on="1"/>
        <pt x="391" y="378" on="1"/>
        <pt x="424" y="353" on="1"/>
        <pt x="677" y="0" on="1"/>
        <pt x="595" y="0" on="1"/>
        <pt x="348" y="347" on="1"/>
        <pt x="169" y="347" on="1"/>
        <pt x="169" y="0" on="1"/>
        <pt x="99" y="0" on="1"/>
      </contour>
    </TTGlyph>
    <TTGlyph name="K.sc" xMin="93" yMin="0" xMax="603" yMax="577">
      <contour>
        <pt x="93" y="577" on="1"/>
        <pt x="162" y="577" on="1"/>
        <pt x="162" y="321" on="1"/>
        <pt x="308" y="321" on="1"/>
        <pt x="509" y="577" on="1"/>
        <pt x="588" y="577" on="1"/>
        <pt x="385" y="320" on="1"/>
        <pt x="358" y="301" on="1"/>
        <pt x="358" y="296" on="1"/>
        <pt x="387" y="276" on="1"/>
        <pt x="603" y="0" on="1"/>
        <pt x="523" y="0" on="1"/>
        <pt x="315" y="266" on="1"/>
        <pt x="162" y="266" on="1"/>
        <pt x="162" y="0" on="1"/>
        <pt x="93" y="0" on="1"/>
      </contour>
    </TTGlyph>
    <TTGlyph name="Kcommaaccent" xMin="99" yMin="-220" xMax="677" yMax="740">
      <contour>
        <pt x="324" y="-70" on="1"/>
        <pt x="398" y="-70" on="1"/>
        <pt x="335" y="-220" on="1"/>
        <pt x="275" y="-220" on="1"/>
      </contour>
      <contour>
        <pt x="99" y="740" on="1"/>
        <pt x="169" y="740" on="1"/>
        <pt x="169" y="408" on="1"/>
        <pt x="341" y="408" on="1"/>
        <pt x="578" y="740" on="1"/>
        <pt x="660" y="740" on="1"/>
        <pt x="421" y="409" on="1"/>
        <pt x="391" y="384" on="1"/>
        <pt x="391" y="378" on="1"/>
        <pt x="424" y="353" on="1"/>
        <pt x="677" y="0" on="1"/>
        <pt x="595" y="0" on="1"/>
        <pt x="348" y="347" on="1"/>
        <pt x="169" y="347" on="1"/>
        <pt x="169" y="0" on="1"/>
        <pt x="99" y="0" on="1"/>
      </contour>
    </TTGlyph>
    <TTGlyph name="Kcommaaccent.sc" xMin="93" yMin="-172" xMax="603" yMax="577">
      <contour>
        <pt x="93" y="577" on="1"/>
        <pt x="162" y="577" on="1"/>
        <pt x="162" y="321" on="1"/>
        <pt x="308" y="321" on="1"/>
        <pt x="509" y="577" on="1"/>
        <pt x="588" y="577" on="1"/>
        <pt x="385" y="320" on="1"/>
        <pt x="358" y="301" on="1"/>
        <pt x="358" y="296" on="1"/>
        <pt x="387" y="276" on="1"/>
        <pt x="603" y="0" on="1"/>
        <pt x="523" y="0" on="1"/>
        <pt x="315" y="266" on="1"/>
        <pt x="162" y="266" on="1"/>
        <pt x="162" y="0" on="1"/>
        <pt x="93" y="0" on="1"/>
      </contour>
      <contour>
        <pt x="296" y="-55" on="1"/>
        <pt x="368" y="-55" on="1"/>
        <pt x="311" y="-172" on="1"/>
        <pt x="255" y="-172" on="1"/>
      </contour>
    </TTGlyph>
    <TTGlyph name="L" xMin="99" yMin="0" xMax="542" yMax="740">
      <contour>
        <pt x="99" y="740" on="1"/>
        <pt x="169" y="740" on="1"/>
        <pt x="169" y="60" on="1"/>
        <pt x="542" y="60" on="1"/>
        <pt x="542" y="0" on="1"/>
        <pt x="99" y="0" on="1"/>
      </contour>
    </TTGlyph>
    <TTGlyph name="L.sc" xMin="93" yMin="0" xMax="485" yMax="577">
      <contour>
        <pt x="93" y="577" on="1"/>
        <pt x="162" y="577" on="1"/>
        <pt x="162" y="56" on="1"/>
        <pt x="485" y="56" on="1"/>
        <pt x="485" y="0" on="1"/>
        <pt x="93" y="0" on="1"/>
      </contour>
    </TTGlyph>
    <TTGlyph name="Lacute" xMin="99" yMin="0" xMax="542" yMax="944">
      <contour>
        <pt x="103" y="811" on="1"/>
        <pt x="179" y="944" on="1"/>
        <pt x="253" y="944" on="1"/>
        <pt x="159" y="805" on="1"/>
      </contour>
      <contour>
        <pt x="99" y="740" on="1"/>
        <pt x="169" y="740" on="1"/>
        <pt x="169" y="60" on="1"/>
        <pt x="542" y="60" on="1"/>
        <pt x="542" y="0" on="1"/>
        <pt x="99" y="0" on="1"/>
      </contour>
    </TTGlyph>
    <TTGlyph name="Lacute.sc" xMin="93" yMin="0" xMax="486" yMax="742">
      <contour>
        <pt x="93" y="577" on="1"/>
        <pt x="162" y="577" on="1"/>
        <pt x="162" y="56" on="1"/>
        <pt x="486" y="56" on="1"/>
        <pt x="486" y="0" on="1"/>
        <pt x="93" y="0" on="1"/>
      </contour>
      <contour>
        <pt x="99" y="634" on="1"/>
        <pt x="163" y="742" on="1"/>
        <pt x="234" y="742" on="1"/>
        <pt x="152" y="629" on="1"/>
      </contour>
    </TTGlyph>
    <TTGlyph name="Lcaron" xMin="99" yMin="0" xMax="542" yMax="752">
      <contour>
        <pt x="416" y="752" on="1"/>
        <pt x="476" y="752" on="1"/>
        <pt x="450" y="524" on="1"/>
        <pt x="416" y="524" on="1"/>
      </contour>
      <contour>
        <pt x="99" y="740" on="1"/>
        <pt x="169" y="740" on="1"/>
        <pt x="169" y="60" on="1"/>
        <pt x="542" y="60" on="1"/>
        <pt x="542" y="0" on="1"/>
        <pt x="99" y="0" on="1"/>
      </contour>
    </TTGlyph>
    <TTGlyph name="Lcaron.sc" xMin="93" yMin="0" xMax="485" yMax="592">
      <contour>
        <pt x="93" y="577" on="1"/>
        <pt x="162" y="577" on="1"/>
        <pt x="162" y="56" on="1"/>
        <pt x="485" y="56" on="1"/>
        <pt x="485" y="0" on="1"/>
        <pt x="93" y="0" on="1"/>
      </contour>
      <contour>
        <pt x="371" y="592" on="1"/>
        <pt x="428" y="592" on="1"/>
        <pt x="405" y="414" on="1"/>
        <pt x="371" y="414" on="1"/>
      </contour>
    </TTGlyph>
    <TTGlyph name="Lcommaaccent" xMin="99" yMin="-220" xMax="542" yMax="740">
      <contour>
        <pt x="288" y="-70" on="1"/>
        <pt x="362" y="-70" on="1"/>
        <pt x="299" y="-220" on="1"/>
        <pt x="239" y="-220" on="1"/>
      </contour>
      <contour>
        <pt x="99" y="740" on="1"/>
        <pt x="169" y="740" on="1"/>
        <pt x="169" y="60" on="1"/>
        <pt x="542" y="60" on="1"/>
        <pt x="542" y="0" on="1"/>
        <pt x="99" y="0" on="1"/>
      </contour>
    </TTGlyph>
    <TTGlyph name="Lcommaaccent.sc" xMin="93" yMin="-172" xMax="485" yMax="577">
      <contour>
        <pt x="93" y="577" on="1"/>
        <pt x="162" y="577" on="1"/>
        <pt x="162" y="56" on="1"/>
        <pt x="485" y="56" on="1"/>
        <pt x="485" y="0" on="1"/>
        <pt x="93" y="0" on="1"/>
      </contour>
      <contour>
        <pt x="256" y="-55" on="1"/>
        <pt x="328" y="-55" on="1"/>
        <pt x="271" y="-172" on="1"/>
        <pt x="214" y="-172" on="1"/>
      </contour>
    </TTGlyph>
    <TTGlyph name="Ldot" xMin="99" yMin="0" xMax="542" yMax="740">
      <contour>
        <pt x="99" y="740" on="1"/>
        <pt x="169" y="740" on="1"/>
        <pt x="169" y="60" on="1"/>
        <pt x="542" y="60" on="1"/>
        <pt x="542" y="0" on="1"/>
        <pt x="99" y="0" on="1"/>
      </contour>
      <contour>
        <pt x="463" y="328" on="1"/>
        <pt x="439" y="328" on="0"/>
        <pt x="413" y="350" on="0"/>
        <pt x="413" y="376" on="1"/>
        <pt x="413" y="425" on="0"/>
        <pt x="463" y="425" on="1"/>
        <pt x="486" y="425" on="0"/>
        <pt x="512" y="402" on="0"/>
        <pt x="512" y="376" on="1"/>
        <pt x="512" y="350" on="0"/>
        <pt x="486" y="328" on="0"/>
      </contour>
    </TTGlyph>
    <TTGlyph name="Ldot.sc" xMin="93" yMin="0" xMax="485" yMax="577">
      <contour>
        <pt x="93" y="577" on="1"/>
        <pt x="162" y="577" on="1"/>
        <pt x="162" y="56" on="1"/>
        <pt x="485" y="56" on="1"/>
        <pt x="485" y="0" on="1"/>
        <pt x="93" y="0" on="1"/>
      </contour>
      <contour>
        <pt x="417" y="252" on="1"/>
        <pt x="370" y="252" on="0"/>
        <pt x="370" y="296" on="1"/>
        <pt x="370" y="340" on="0"/>
        <pt x="417" y="340" on="1"/>
        <pt x="463" y="340" on="0"/>
        <pt x="463" y="296" on="1"/>
        <pt x="463" y="252" on="0"/>
      </contour>
    </TTGlyph>
    <TTGlyph name="Lslash" xMin="17" yMin="0" xMax="563" yMax="740">
      <contour>
        <pt x="17" y="287" on="1"/>
        <pt x="120" y="349" on="1"/>
        <pt x="120" y="740" on="1"/>
        <pt x="190" y="740" on="1"/>
        <pt x="190" y="391" on="1"/>
        <pt x="377" y="503" on="1"/>
        <pt x="377" y="441" on="1"/>
        <pt x="190" y="329" on="1"/>
        <pt x="190" y="60" on="1"/>
        <pt x="563" y="60" on="1"/>
        <pt x="563" y="0" on="1"/>
        <pt x="120" y="0" on="1"/>
        <pt x="120" y="287" on="1"/>
        <pt x="17" y="225" on="1"/>
      </contour>
    </TTGlyph>
    <TTGlyph name="Lslash.sc" xMin="24" yMin="0" xMax="504" yMax="577">
      <contour>
        <pt x="24" y="232" on="1"/>
        <pt x="112" y="280" on="1"/>
        <pt x="112" y="577" on="1"/>
        <pt x="180" y="577" on="1"/>
        <pt x="180" y="309" on="1"/>
        <pt x="342" y="398" on="1"/>
        <pt x="342" y="342" on="1"/>
        <pt x="180" y="254" on="1"/>
        <pt x="180" y="56" on="1"/>
        <pt x="504" y="56" on="1"/>
        <pt x="504" y="0" on="1"/>
        <pt x="112" y="0" on="1"/>
        <pt x="112" y="223" on="1"/>
        <pt x="24" y="176" on="1"/>
      </contour>
    </TTGlyph>
    <TTGlyph name="M" xMin="99" yMin="0" xMax="859" yMax="740">
      <contour>
        <pt x="99" y="740" on="1"/>
        <pt x="197" y="740" on="1"/>
        <pt x="400" y="285" on="1"/>
        <pt x="475" y="104" on="1"/>
        <pt x="481" y="104" on="1"/>
        <pt x="558" y="285" on="1"/>
        <pt x="760" y="740" on="1"/>
        <pt x="859" y="740" on="1"/>
        <pt x="859" y="0" on="1"/>
        <pt x="793" y="0" on="1"/>
        <pt x="793" y="652" on="1"/>
        <pt x="787" y="652" on="1"/>
        <pt x="684" y="406" on="1"/>
        <pt x="512" y="28" on="1"/>
        <pt x="446" y="28" on="1"/>
        <pt x="274" y="406" on="1"/>
        <pt x="170" y="652" on="1"/>
        <pt x="164" y="652" on="1"/>
        <pt x="164" y="0" on="1"/>
        <pt x="99" y="0" on="1"/>
      </contour>
    </TTGlyph>
    <TTGlyph name="M.sc" xMin="93" yMin="0" xMax="761" yMax="577">
      <contour>
        <pt x="93" y="577" on="1"/>
        <pt x="185" y="577" on="1"/>
        <pt x="358" y="238" on="1"/>
        <pt x="424" y="96" on="1"/>
        <pt x="430" y="96" on="1"/>
        <pt x="496" y="238" on="1"/>
        <pt x="670" y="577" on="1"/>
        <pt x="761" y="577" on="1"/>
        <pt x="761" y="0" on="1"/>
        <pt x="698" y="0" on="1"/>
        <pt x="698" y="498" on="1"/>
        <pt x="693" y="498" on="1"/>
        <pt x="600" y="301" on="1"/>
        <pt x="459" y="22" on="1"/>
        <pt x="396" y="22" on="1"/>
        <pt x="254" y="301" on="1"/>
        <pt x="162" y="498" on="1"/>
        <pt x="156" y="498" on="1"/>
        <pt x="156" y="0" on="1"/>
        <pt x="93" y="0" on="1"/>
      </contour>
    </TTGlyph>
    <TTGlyph name="N" xMin="99" yMin="0" xMax="715" yMax="740">
      <contour>
        <pt x="99" y="740" on="1"/>
        <pt x="160" y="740" on="1"/>
        <pt x="580" y="196" on="1"/>
        <pt x="644" y="106" on="1"/>
        <pt x="650" y="106" on="1"/>
        <pt x="650" y="740" on="1"/>
        <pt x="715" y="740" on="1"/>
        <pt x="715" y="0" on="1"/>
        <pt x="653" y="0" on="1"/>
        <pt x="230" y="547" on="1"/>
        <pt x="169" y="632" on="1"/>
        <pt x="164" y="632" on="1"/>
        <pt x="164" y="0" on="1"/>
        <pt x="99" y="0" on="1"/>
      </contour>
    </TTGlyph>
    <TTGlyph name="N.sc" xMin="93" yMin="0" xMax="629" yMax="577">
      <contour>
        <pt x="93" y="577" on="1"/>
        <pt x="150" y="577" on="1"/>
        <pt x="503" y="169" on="1"/>
        <pt x="560" y="98" on="1"/>
        <pt x="565" y="98" on="1"/>
        <pt x="565" y="577" on="1"/>
        <pt x="629" y="577" on="1"/>
        <pt x="629" y="0" on="1"/>
        <pt x="572" y="0" on="1"/>
        <pt x="216" y="410" on="1"/>
        <pt x="162" y="478" on="1"/>
        <pt x="156" y="478" on="1"/>
        <pt x="156" y="0" on="1"/>
        <pt x="93" y="0" on="1"/>
      </contour>
    </TTGlyph>
    <TTGlyph name="Nacute" xMin="99" yMin="0" xMax="715" yMax="944">
      <contour>
        <pt x="365" y="811" on="1"/>
        <pt x="441" y="944" on="1"/>
        <pt x="515" y="944" on="1"/>
        <pt x="421" y="805" on="1"/>
      </contour>
      <contour>
        <pt x="99" y="740" on="1"/>
        <pt x="160" y="740" on="1"/>
        <pt x="580" y="196" on="1"/>
        <pt x="644" y="106" on="1"/>
        <pt x="650" y="106" on="1"/>
        <pt x="650" y="740" on="1"/>
        <pt x="715" y="740" on="1"/>
        <pt x="715" y="0" on="1"/>
        <pt x="653" y="0" on="1"/>
        <pt x="230" y="547" on="1"/>
        <pt x="169" y="632" on="1"/>
        <pt x="164" y="632" on="1"/>
        <pt x="164" y="0" on="1"/>
        <pt x="99" y="0" on="1"/>
      </contour>
    </TTGlyph>
    <TTGlyph name="Nacute.sc" xMin="93" yMin="0" xMax="629" yMax="742">
      <contour>
        <pt x="93" y="577" on="1"/>
        <pt x="150" y="577" on="1"/>
        <pt x="503" y="169" on="1"/>
        <pt x="560" y="98" on="1"/>
        <pt x="565" y="98" on="1"/>
        <pt x="565" y="577" on="1"/>
        <pt x="629" y="577" on="1"/>
        <pt x="629" y="0" on="1"/>
        <pt x="572" y="0" on="1"/>
        <pt x="216" y="410" on="1"/>
        <pt x="162" y="478" on="1"/>
        <pt x="156" y="478" on="1"/>
        <pt x="156" y="0" on="1"/>
        <pt x="93" y="0" on="1"/>
      </contour>
      <contour>
        <pt x="322" y="634" on="1"/>
        <pt x="387" y="742" on="1"/>
        <pt x="458" y="742" on="1"/>
        <pt x="376" y="629" on="1"/>
      </contour>
    </TTGlyph>
    <TTGlyph name="Ncaron" xMin="99" yMin="0" xMax="715" yMax="950">
      <contour>
        <pt x="240" y="950" on="1"/>
        <pt x="407" y="876" on="1"/>
        <pt x="573" y="950" on="1"/>
        <pt x="573" y="889" on="1"/>
        <pt x="406" y="815" on="1"/>
        <pt x="240" y="889" on="1"/>
      </contour>
      <contour>
        <pt x="99" y="740" on="1"/>
        <pt x="160" y="740" on="1"/>
        <pt x="580" y="196" on="1"/>
        <pt x="644" y="106" on="1"/>
        <pt x="650" y="106" on="1"/>
        <pt x="650" y="740" on="1"/>
        <pt x="715" y="740" on="1"/>
        <pt x="715" y="0" on="1"/>
        <pt x="653" y="0" on="1"/>
        <pt x="230" y="547" on="1"/>
        <pt x="169" y="632" on="1"/>
        <pt x="164" y="632" on="1"/>
        <pt x="164" y="0" on="1"/>
        <pt x="99" y="0" on="1"/>
      </contour>
    </TTGlyph>
    <TTGlyph name="Ncaron.sc" xMin="93" yMin="0" xMax="629" yMax="748">
      <contour>
        <pt x="93" y="577" on="1"/>
        <pt x="150" y="577" on="1"/>
        <pt x="503" y="169" on="1"/>
        <pt x="560" y="98" on="1"/>
        <pt x="565" y="98" on="1"/>
        <pt x="565" y="577" on="1"/>
        <pt x="629" y="577" on="1"/>
        <pt x="629" y="0" on="1"/>
        <pt x="572" y="0" on="1"/>
        <pt x="216" y="410" on="1"/>
        <pt x="162" y="478" on="1"/>
        <pt x="156" y="478" on="1"/>
        <pt x="156" y="0" on="1"/>
        <pt x="93" y="0" on="1"/>
      </contour>
      <contour>
        <pt x="213" y="693" on="1"/>
        <pt x="213" y="748" on="1"/>
        <pt x="361" y="690" on="1"/>
        <pt x="508" y="748" on="1"/>
        <pt x="508" y="693" on="1"/>
        <pt x="360" y="635" on="1"/>
      </contour>
    </TTGlyph>
    <TTGlyph name="Ncommaaccent" xMin="99" yMin="-220" xMax="715" yMax="740">
      <contour>
        <pt x="384" y="-70" on="1"/>
        <pt x="458" y="-70" on="1"/>
        <pt x="395" y="-220" on="1"/>
        <pt x="335" y="-220" on="1"/>
      </contour>
      <contour>
        <pt x="99" y="740" on="1"/>
        <pt x="160" y="740" on="1"/>
        <pt x="580" y="196" on="1"/>
        <pt x="644" y="106" on="1"/>
        <pt x="650" y="106" on="1"/>
        <pt x="650" y="740" on="1"/>
        <pt x="715" y="740" on="1"/>
        <pt x="715" y="0" on="1"/>
        <pt x="653" y="0" on="1"/>
        <pt x="230" y="547" on="1"/>
        <pt x="169" y="632" on="1"/>
        <pt x="164" y="632" on="1"/>
        <pt x="164" y="0" on="1"/>
        <pt x="99" y="0" on="1"/>
      </contour>
    </TTGlyph>
    <TTGlyph name="Ncommaaccent.sc" xMin="93" yMin="-172" xMax="629" yMax="577">
      <contour>
        <pt x="93" y="577" on="1"/>
        <pt x="150" y="577" on="1"/>
        <pt x="503" y="169" on="1"/>
        <pt x="560" y="98" on="1"/>
        <pt x="565" y="98" on="1"/>
        <pt x="565" y="577" on="1"/>
        <pt x="629" y="577" on="1"/>
        <pt x="629" y="0" on="1"/>
        <pt x="572" y="0" on="1"/>
        <pt x="216" y="410" on="1"/>
        <pt x="162" y="478" on="1"/>
        <pt x="156" y="478" on="1"/>
        <pt x="156" y="0" on="1"/>
        <pt x="93" y="0" on="1"/>
      </contour>
      <contour>
        <pt x="336" y="-55" on="1"/>
        <pt x="408" y="-55" on="1"/>
        <pt x="351" y="-172" on="1"/>
        <pt x="295" y="-172" on="1"/>
      </contour>
    </TTGlyph>
    <TTGlyph name="Ndotaccent" xMin="99" yMin="0" xMax="715" yMax="919">
      <contour>
        <pt x="406" y="822" on="1"/>
        <pt x="383" y="822" on="0"/>
        <pt x="357" y="844" on="0"/>
        <pt x="357" y="870" on="1"/>
        <pt x="357" y="919" on="0"/>
        <pt x="406" y="919" on="1"/>
        <pt x="429" y="919" on="0"/>
        <pt x="456" y="896" on="0"/>
        <pt x="456" y="870" on="1"/>
        <pt x="456" y="844" on="0"/>
        <pt x="429" y="822" on="0"/>
      </contour>
      <contour>
        <pt x="99" y="740" on="1"/>
        <pt x="160" y="740" on="1"/>
        <pt x="580" y="196" on="1"/>
        <pt x="644" y="106" on="1"/>
        <pt x="650" y="106" on="1"/>
        <pt x="650" y="740" on="1"/>
        <pt x="715" y="740" on="1"/>
        <pt x="715" y="0" on="1"/>
        <pt x="653" y="0" on="1"/>
        <pt x="230" y="547" on="1"/>
        <pt x="169" y="632" on="1"/>
        <pt x="164" y="632" on="1"/>
        <pt x="164" y="0" on="1"/>
        <pt x="99" y="0" on="1"/>
      </contour>
    </TTGlyph>
    <TTGlyph name="Ndotaccent.sc" xMin="93" yMin="0" xMax="629" yMax="727">
      <contour>
        <pt x="93" y="577" on="1"/>
        <pt x="150" y="577" on="1"/>
        <pt x="503" y="169" on="1"/>
        <pt x="560" y="98" on="1"/>
        <pt x="565" y="98" on="1"/>
        <pt x="565" y="577" on="1"/>
        <pt x="629" y="577" on="1"/>
        <pt x="629" y="0" on="1"/>
        <pt x="572" y="0" on="1"/>
        <pt x="216" y="410" on="1"/>
        <pt x="162" y="478" on="1"/>
        <pt x="156" y="478" on="1"/>
        <pt x="156" y="0" on="1"/>
        <pt x="93" y="0" on="1"/>
      </contour>
      <contour>
        <pt x="361" y="640" on="1"/>
        <pt x="338" y="640" on="0"/>
        <pt x="315" y="660" on="0"/>
        <pt x="315" y="684" on="1"/>
        <pt x="315" y="727" on="0"/>
        <pt x="361" y="727" on="1"/>
        <pt x="383" y="727" on="0"/>
        <pt x="408" y="707" on="0"/>
        <pt x="408" y="684" on="1"/>
        <pt x="408" y="661" on="0"/>
        <pt x="383" y="640" on="0"/>
      </contour>
    </TTGlyph>
    <TTGlyph name="Ntilde" xMin="99" yMin="0" xMax="715" yMax="932">
      <contour>
        <pt x="206" y="867" on="1"/>
        <pt x="236" y="900" on="0"/>
        <pt x="301" y="932" on="0"/>
        <pt x="333" y="932" on="1"/>
        <pt x="358" y="932" on="0"/>
        <pt x="401" y="919" on="0"/>
        <pt x="442" y="903" on="0"/>
        <pt x="484" y="890" on="0"/>
        <pt x="507" y="890" on="1"/>
        <pt x="557" y="890" on="0"/>
        <pt x="605" y="928" on="1"/>
        <pt x="629" y="901" on="1"/>
        <pt x="601" y="869" on="0"/>
        <pt x="531" y="836" on="0"/>
        <pt x="495" y="836" on="1"/>
        <pt x="473" y="836" on="0"/>
        <pt x="430" y="849" on="0"/>
        <pt x="388" y="864" on="0"/>
        <pt x="346" y="877" on="0"/>
        <pt x="325" y="877" on="1"/>
        <pt x="301" y="877" on="0"/>
        <pt x="255" y="860" on="0"/>
        <pt x="230" y="840" on="1"/>
      </contour>
      <contour>
        <pt x="99" y="740" on="1"/>
        <pt x="160" y="740" on="1"/>
        <pt x="580" y="196" on="1"/>
        <pt x="644" y="106" on="1"/>
        <pt x="650" y="106" on="1"/>
        <pt x="650" y="740" on="1"/>
        <pt x="715" y="740" on="1"/>
        <pt x="715" y="0" on="1"/>
        <pt x="653" y="0" on="1"/>
        <pt x="230" y="547" on="1"/>
        <pt x="169" y="632" on="1"/>
        <pt x="164" y="632" on="1"/>
        <pt x="164" y="0" on="1"/>
        <pt x="99" y="0" on="1"/>
      </contour>
    </TTGlyph>
    <TTGlyph name="Ntilde.sc" xMin="93" yMin="0" xMax="629" yMax="734">
      <contour>
        <pt x="184" y="676" on="1"/>
        <pt x="210" y="705" on="0"/>
        <pt x="268" y="734" on="0"/>
        <pt x="297" y="734" on="1"/>
        <pt x="319" y="734" on="0"/>
        <pt x="357" y="724" on="0"/>
        <pt x="393" y="712" on="0"/>
        <pt x="430" y="702" on="0"/>
        <pt x="451" y="702" on="1"/>
        <pt x="493" y="702" on="0"/>
        <pt x="537" y="731" on="1"/>
        <pt x="557" y="709" on="1"/>
        <pt x="532" y="681" on="0"/>
        <pt x="470" y="652" on="0"/>
        <pt x="439" y="652" on="1"/>
        <pt x="419" y="652" on="0"/>
        <pt x="381" y="662" on="0"/>
        <pt x="343" y="673" on="0"/>
        <pt x="305" y="683" on="0"/>
        <pt x="287" y="683" on="1"/>
        <pt x="266" y="683" on="0"/>
        <pt x="226" y="671" on="0"/>
        <pt x="204" y="654" on="1"/>
      </contour>
      <contour>
        <pt x="93" y="577" on="1"/>
        <pt x="150" y="577" on="1"/>
        <pt x="503" y="169" on="1"/>
        <pt x="560" y="98" on="1"/>
        <pt x="565" y="98" on="1"/>
        <pt x="565" y="577" on="1"/>
        <pt x="629" y="577" on="1"/>
        <pt x="629" y="0" on="1"/>
        <pt x="572" y="0" on="1"/>
        <pt x="216" y="410" on="1"/>
        <pt x="162" y="478" on="1"/>
        <pt x="156" y="478" on="1"/>
        <pt x="156" y="0" on="1"/>
        <pt x="93" y="0" on="1"/>
      </contour>
    </TTGlyph>
    <TTGlyph name="O" xMin="57" yMin="-10" xMax="722" yMax="750">
      <contour>
        <pt x="390" y="-10" on="1"/>
        <pt x="232" y="-10" on="0"/>
        <pt x="57" y="183" on="0"/>
        <pt x="57" y="369" on="1"/>
        <pt x="57" y="555" on="0"/>
        <pt x="232" y="750" on="0"/>
        <pt x="390" y="750" on="1"/>
        <pt x="468" y="750" on="0"/>
        <pt x="592" y="700" on="0"/>
        <pt x="677" y="604" on="0"/>
        <pt x="722" y="462" on="0"/>
        <pt x="722" y="369" on="1"/>
        <pt x="722" y="184" on="0"/>
        <pt x="547" y="-10" on="0"/>
      </contour>
      <contour>
        <pt x="390" y="52" on="1"/>
        <pt x="517" y="52" on="0"/>
        <pt x="650" y="214" on="0"/>
        <pt x="650" y="369" on="1"/>
        <pt x="650" y="526" on="0"/>
        <pt x="517" y="688" on="0"/>
        <pt x="390" y="688" on="1"/>
        <pt x="262" y="688" on="0"/>
        <pt x="129" y="527" on="0"/>
        <pt x="129" y="369" on="1"/>
        <pt x="129" y="213" on="0"/>
        <pt x="262" y="52" on="0"/>
      </contour>
    </TTGlyph>
    <TTGlyph name="O.sc" xMin="57" yMin="-8" xMax="641" yMax="585">
      <contour>
        <pt x="350" y="-8" on="1"/>
        <pt x="210" y="-8" on="0"/>
        <pt x="57" y="142" on="0"/>
        <pt x="57" y="288" on="1"/>
        <pt x="57" y="433" on="0"/>
        <pt x="210" y="585" on="0"/>
        <pt x="350" y="585" on="1"/>
        <pt x="488" y="585" on="0"/>
        <pt x="641" y="433" on="0"/>
        <pt x="641" y="288" on="1"/>
        <pt x="641" y="143" on="0"/>
        <pt x="488" y="-8" on="0"/>
      </contour>
      <contour>
        <pt x="350" y="50" on="1"/>
        <pt x="459" y="50" on="0"/>
        <pt x="572" y="171" on="0"/>
        <pt x="572" y="288" on="1"/>
        <pt x="572" y="406" on="0"/>
        <pt x="460" y="527" on="0"/>
        <pt x="350" y="527" on="1"/>
        <pt x="239" y="527" on="0"/>
        <pt x="127" y="406" on="0"/>
        <pt x="127" y="288" on="1"/>
        <pt x="127" y="170" on="0"/>
        <pt x="239" y="50" on="0"/>
      </contour>
    </TTGlyph>
    <TTGlyph name="OE" xMin="56" yMin="-10" xMax="962" yMax="750">
      <contour>
        <pt x="393" y="-10" on="1"/>
        <pt x="234" y="-10" on="0"/>
        <pt x="56" y="184" on="0"/>
        <pt x="56" y="369" on="1"/>
        <pt x="56" y="462" on="0"/>
        <pt x="102" y="604" on="0"/>
        <pt x="188" y="700" on="0"/>
        <pt x="313" y="750" on="0"/>
        <pt x="393" y="750" on="1"/>
        <pt x="424" y="750" on="0"/>
        <pt x="473" y="746" on="0"/>
        <pt x="499" y="740" on="1"/>
        <pt x="953" y="740" on="1"/>
        <pt x="953" y="680" on="1"/>
        <pt x="570" y="680" on="1"/>
        <pt x="570" y="407" on="1"/>
        <pt x="932" y="407" on="1"/>
        <pt x="932" y="346" on="1"/>
        <pt x="570" y="346" on="1"/>
        <pt x="570" y="60" on="1"/>
        <pt x="962" y="60" on="1"/>
        <pt x="962" y="0" on="1"/>
        <pt x="499" y="0" on="1"/>
        <pt x="475" y="-5" on="0"/>
        <pt x="422" y="-10" on="0"/>
      </contour>
      <contour>
        <pt x="393" y="52" on="1"/>
        <pt x="423" y="52" on="0"/>
        <pt x="476" y="56" on="0"/>
        <pt x="499" y="63" on="1"/>
        <pt x="499" y="677" on="1"/>
        <pt x="475" y="684" on="0"/>
        <pt x="424" y="688" on="0"/>
        <pt x="393" y="688" on="1"/>
        <pt x="264" y="688" on="0"/>
        <pt x="128" y="527" on="0"/>
        <pt x="128" y="369" on="1"/>
        <pt x="128" y="213" on="0"/>
        <pt x="264" y="52" on="0"/>
      </contour>
    </TTGlyph>
</ttFont>
